<svg width="32" height="32" viewBox="0 0 32 32" fill="none" xmlns="http://www.w3.org/2000/svg">
<path d="M8 9C7.20887 9 6.43552 8.76541 5.77772 8.32588C5.11992 7.88635 4.60723 7.26164 4.30448 6.53074C4.00173 5.79983 3.92252 4.99556 4.07686 4.21964C4.2312 3.44372 4.61216 2.73098 5.17157 2.17157C5.73098 1.61216 6.44371 1.2312 7.21964 1.07686C7.99556 0.92252 8.79983 1.00173 9.53073 1.30448C10.2616 1.60723 10.8864 2.11992 11.3259 2.77772C11.7654 3.43552 12 4.20888 12 5C12 6.06087 11.5786 7.07828 10.8284 7.82843C10.0783 8.57857 9.06087 9 8 9ZM8 3C7.60444 3 7.21776 3.1173 6.88886 3.33706C6.55996 3.55683 6.30362 3.86918 6.15224 4.23463C6.00087 4.60009 5.96126 5.00222 6.03843 5.39018C6.1156 5.77814 6.30608 6.13451 6.58579 6.41422C6.86549 6.69392 7.22186 6.8844 7.60982 6.96157C7.99778 7.03874 8.39991 6.99914 8.76537 6.84776C9.13082 6.69639 9.44318 6.44004 9.66294 6.11114C9.8827 5.78224 10 5.39556 10 5C10 4.46957 9.78929 3.96086 9.41421 3.58579C9.03914 3.21072 8.53043 3 8 3ZM24 9C23.2089 9 22.4355 8.76541 21.7777 8.32588C21.1199 7.88635 20.6072 7.26164 20.3045 6.53074C20.0017 5.79983 19.9225 4.99556 20.0769 4.21964C20.2312 3.44372 20.6122 2.73098 21.1716 2.17157C21.731 1.61216 22.4437 1.2312 23.2196 1.07686C23.9956 0.92252 24.7998 1.00173 25.5307 1.30448C26.2616 1.60723 26.8864 2.11992 27.3259 2.77772C27.7654 3.43552 28 4.20888 28 5C28 6.06087 27.5786 7.07828 26.8284 7.82843C26.0783 8.57857 25.0609 9 24 9ZM24 3C23.6044 3 23.2178 3.1173 22.8889 3.33706C22.56 3.55683 22.3036 3.86918 22.1522 4.23463C22.0009 4.60009 21.9613 5.00222 22.0384 5.39018C22.1156 5.77814 22.3061 6.13451 22.5858 6.41422C22.8655 6.69392 23.2219 6.8844 23.6098 6.96157C23.9978 7.03874 24.3999 6.99914 24.7654 6.84776C25.1308 6.69639 25.4432 6.44004 25.6629 6.11114C25.8827 5.78224 26 5.39556 26 5C26 4.46957 25.7893 3.96086 25.4142 3.58579C25.0391 3.21072 24.5304 3 24 3ZM26 30H22C21.4696 30 20.9609 29.7893 20.5858 29.4142C20.2107 29.0391 20 28.5304 20 28V21H22V28H26V19H28V13C28 12.7348 27.8946 12.4804 27.7071 12.2929C27.5196 12.1054 27.2652 12 27 12H20.58L16 20L11.42 12H5C4.73478 12 4.48043 12.1054 4.29289 12.2929C4.10536 12.4804 4 12.7348 4 13V19H6V28H10V21H12V28C12 28.5304 11.7893 29.0391 11.4142 29.4142C11.0391 29.7893 10.5304 30 10 30H6C5.46957 30 4.96086 29.7893 4.58579 29.4142C4.21071 29.0391 4 28.5304 4 28V21C3.46957 21 2.96086 20.7893 2.58579 20.4142C2.21071 20.0391 2 19.5304 2 19V13C2 12.2044 2.31607 11.4413 2.87868 10.8787C3.44129 10.3161 4.20435 10 5 10H12.58L16 16L19.42 10H27C27.7956 10 28.5587 10.3161 29.1213 10.8787C29.6839 11.4413 30 12.2044 30 13V19C30 19.5304 29.7893 20.0391 29.4142 20.4142C29.0391 20.7893 28.5304 21 28 21V28C28 28.5304 27.7893 29.0391 27.4142 29.4142C27.0391 29.7893 26.5304 30 26 30Z" fill="#4B4B4B"/>
</svg>
