<svg width="32" height="32" viewBox="0 0 32 32" fill="none" xmlns="http://www.w3.org/2000/svg">
<mask id="path-1-outside-1_1640_1549" maskUnits="userSpaceOnUse" x="3" y="4" width="26" height="24" fill="black">
<rect fill="white" x="3" y="4" width="26" height="24"/>
<path d="M25.1313 22.9365C25.9026 23.3293 26.5401 23.8818 27.0438 24.5938C27.5475 25.3058 27.8662 26.1079 28 27H26.7014C26.6149 26.5335 26.4535 26.0997 26.2174 25.6987C25.9813 25.2976 25.694 24.9539 25.3556 24.6674C25.0172 24.381 24.6355 24.1518 24.2105 23.98C23.7855 23.8081 23.3448 23.7262 22.8883 23.7344C22.424 23.7344 21.9833 23.8163 21.5662 23.98C21.149 24.1437 20.7673 24.3687 20.4211 24.6552C20.0748 24.9416 19.7875 25.2895 19.5593 25.6987C19.331 26.1079 19.1697 26.5417 19.0753 27H17.7767C17.9026 26.1161 18.2174 25.3181 18.7211 24.6061C19.2248 23.894 19.8662 23.3375 20.6454 22.9365C20.1968 22.5682 19.8505 22.1221 19.6065 21.5983C19.3625 21.0745 19.2366 20.518 19.2287 19.9287C19.2287 19.5604 19.2759 19.2044 19.3704 18.8606C19.4648 18.5169 19.6065 18.1936 19.7954 17.8908C19.9843 17.588 20.2086 17.3179 20.4683 17.0805C20.728 16.8432 21.0192 16.6427 21.3419 16.479C21.1294 16.1598 20.8854 15.8774 20.6099 15.6319C20.3345 15.3864 20.0354 15.1695 19.7127 14.9812C19.3901 14.793 19.0516 14.658 18.6975 14.5761C18.3433 14.4943 17.9774 14.4452 17.5996 14.4288C16.97 14.4288 16.3679 14.5556 15.7934 14.8094C15.2189 15.0631 14.7191 15.4355 14.2941 15.9265C14.483 16.4585 14.5775 17.0069 14.5775 17.5716C14.5775 18.3246 14.4161 19.0325 14.0935 19.6954C13.7708 20.3584 13.3182 20.9149 12.7359 21.3651C13.2474 21.6351 13.7078 21.9666 14.1171 22.3595C14.5263 22.7523 14.8805 23.1943 15.1795 23.6853C15.4786 24.1764 15.7029 24.7002 15.8524 25.2567C16.002 25.8133 16.0807 26.3944 16.0885 27H14.5775C14.5775 26.3534 14.4594 25.7437 14.2233 25.1708C13.9872 24.5979 13.6645 24.0986 13.2553 23.673C12.846 23.2475 12.362 22.9078 11.8032 22.6541C11.2445 22.4004 10.6581 22.2776 10.0443 22.2858C9.41466 22.2858 8.82833 22.4086 8.28529 22.6541C7.74225 22.8996 7.26217 23.2352 6.84506 23.6608C6.42794 24.0864 6.10133 24.5897 5.86522 25.1708C5.62912 25.7519 5.51107 26.3616 5.51107 27H4C4 26.4025 4.0787 25.8255 4.2361 25.269C4.39351 24.7125 4.61781 24.1887 4.909 23.6976C5.2002 23.2065 5.55042 22.7646 5.95967 22.3717C6.36891 21.9789 6.83325 21.6433 7.35268 21.3651C6.77029 20.9149 6.31776 20.3584 5.99508 19.6954C5.67241 19.0325 5.51107 18.3246 5.51107 17.5716C5.51107 16.925 5.62912 16.3153 5.86522 15.7424C6.10133 15.1695 6.424 14.6702 6.83325 14.2446C7.2425 13.8191 7.72258 13.4794 8.27349 13.2257C8.8244 12.972 9.41466 12.8492 10.0443 12.8574C10.7132 12.8574 11.3468 13.0047 11.9449 13.2993C12.543 13.594 13.0625 14.0032 13.5032 14.527C13.7078 14.3224 13.9282 14.1382 14.1643 13.9746C14.4004 13.8109 14.6483 13.6554 14.908 13.508C14.3256 13.0579 13.8731 12.5014 13.5504 11.8384C13.2277 11.1755 13.0664 10.4675 13.0664 9.71459C13.0664 9.06802 13.1845 8.45828 13.4206 7.88538C13.6567 7.31247 13.9793 6.81322 14.3886 6.38764C14.7978 5.96205 15.2779 5.6224 15.8288 5.36868C16.3797 5.11496 16.97 4.9922 17.5996 5.00038C18.2213 5.00038 18.8077 5.12315 19.3586 5.36868C19.9095 5.61421 20.3896 5.94977 20.7988 6.37536C21.2081 6.80095 21.5347 7.30429 21.7787 7.88538C22.0226 8.46647 22.1407 9.07621 22.1328 9.71459C22.1328 10.4675 21.9715 11.1755 21.6488 11.8384C21.3261 12.5014 20.8736 13.0579 20.2912 13.508C20.8421 13.8109 21.3379 14.1792 21.7787 14.6129C22.2194 15.0467 22.5932 15.5501 22.9001 16.123C23.4038 16.123 23.876 16.2212 24.3168 16.4176C24.7575 16.614 25.1471 16.8882 25.4855 17.2401C25.8239 17.5921 26.0836 17.9931 26.2646 18.4432C26.4456 18.8934 26.5401 19.3885 26.548 19.9287C26.548 20.518 26.426 21.0745 26.182 21.5983C25.938 22.1221 25.5878 22.5682 25.1313 22.9365ZM10.0443 20.7144C10.4614 20.7144 10.851 20.6326 11.213 20.4689C11.575 20.3052 11.8977 20.0801 12.181 19.7937C12.4643 19.5072 12.6808 19.1757 12.8303 18.7992C12.9798 18.4228 13.0585 18.0135 13.0664 17.5716C13.0664 17.1378 12.9877 16.7327 12.8303 16.3562C12.6729 15.9797 12.4565 15.6442 12.181 15.3495C11.9056 15.0549 11.5868 14.8298 11.2248 14.6743C10.8628 14.5188 10.4693 14.437 10.0443 14.4288C9.62715 14.4288 9.23758 14.5106 8.87555 14.6743C8.51353 14.838 8.19085 15.0631 7.90753 15.3495C7.6242 15.636 7.40777 15.9675 7.25824 16.3439C7.10871 16.7204 7.03 17.1296 7.02213 17.5716C7.02213 18.0054 7.10084 18.4105 7.25824 18.787C7.41564 19.1635 7.63207 19.499 7.90753 19.7937C8.18298 20.0883 8.50172 20.3134 8.86375 20.4689C9.22577 20.6244 9.61928 20.7062 10.0443 20.7144ZM14.5775 9.71459C14.5775 10.1484 14.6562 10.5535 14.8136 10.93C14.971 11.3064 15.1874 11.642 15.4629 11.9366C15.7383 12.2313 16.0571 12.4564 16.4191 12.6119C16.7811 12.7674 17.1746 12.8492 17.5996 12.8574C18.0167 12.8574 18.4063 12.7755 18.7683 12.6119C19.1303 12.4482 19.453 12.2231 19.7364 11.9366C20.0197 11.6502 20.2361 11.3187 20.3856 10.9422C20.5352 10.5658 20.6139 10.1565 20.6217 9.71459C20.6217 9.28081 20.543 8.87569 20.3856 8.49921C20.2282 8.12273 20.0118 7.78717 19.7364 7.49253C19.4609 7.19789 19.1422 6.97282 18.7801 6.81732C18.4181 6.66181 18.0246 6.57997 17.5996 6.57178C17.1825 6.57178 16.7929 6.65363 16.4309 6.81732C16.0689 6.981 15.7462 7.20607 15.4629 7.49253C15.1795 7.77898 14.9631 8.11045 14.8136 8.48693C14.664 8.86341 14.5853 9.27263 14.5775 9.71459ZM22.8883 17.4488C22.5578 17.4488 22.2509 17.5143 21.9675 17.6453C21.6842 17.7762 21.4324 17.9522 21.212 18.1731C20.9916 18.3941 20.8185 18.656 20.6926 18.9588C20.5667 19.2617 20.5037 19.585 20.5037 19.9287C20.5037 20.2724 20.5667 20.5916 20.6926 20.8863C20.8185 21.1809 20.9877 21.4428 21.2002 21.672C21.4127 21.9011 21.6645 22.0812 21.9557 22.2121C22.2469 22.3431 22.5578 22.4086 22.8883 22.4086C23.2189 22.4086 23.5258 22.3431 23.8091 22.2121C24.0925 22.0812 24.3443 21.9052 24.5647 21.6842C24.785 21.4633 24.9582 21.2014 25.0841 20.8985C25.21 20.5957 25.273 20.2724 25.273 19.9287C25.273 19.585 25.21 19.2658 25.0841 18.9711C24.9582 18.6765 24.789 18.4146 24.5765 18.1854C24.364 17.9563 24.1122 17.7762 23.821 17.6453C23.5298 17.5143 23.2189 17.4488 22.8883 17.4488Z"/>
</mask>
<path d="M25.1313 22.9365C25.9026 23.3293 26.5401 23.8818 27.0438 24.5938C27.5475 25.3058 27.8662 26.1079 28 27H26.7014C26.6149 26.5335 26.4535 26.0997 26.2174 25.6987C25.9813 25.2976 25.694 24.9539 25.3556 24.6674C25.0172 24.381 24.6355 24.1518 24.2105 23.98C23.7855 23.8081 23.3448 23.7262 22.8883 23.7344C22.424 23.7344 21.9833 23.8163 21.5662 23.98C21.149 24.1437 20.7673 24.3687 20.4211 24.6552C20.0748 24.9416 19.7875 25.2895 19.5593 25.6987C19.331 26.1079 19.1697 26.5417 19.0753 27H17.7767C17.9026 26.1161 18.2174 25.3181 18.7211 24.6061C19.2248 23.894 19.8662 23.3375 20.6454 22.9365C20.1968 22.5682 19.8505 22.1221 19.6065 21.5983C19.3625 21.0745 19.2366 20.518 19.2287 19.9287C19.2287 19.5604 19.2759 19.2044 19.3704 18.8606C19.4648 18.5169 19.6065 18.1936 19.7954 17.8908C19.9843 17.588 20.2086 17.3179 20.4683 17.0805C20.728 16.8432 21.0192 16.6427 21.3419 16.479C21.1294 16.1598 20.8854 15.8774 20.6099 15.6319C20.3345 15.3864 20.0354 15.1695 19.7127 14.9812C19.3901 14.793 19.0516 14.658 18.6975 14.5761C18.3433 14.4943 17.9774 14.4452 17.5996 14.4288C16.97 14.4288 16.3679 14.5556 15.7934 14.8094C15.2189 15.0631 14.7191 15.4355 14.2941 15.9265C14.483 16.4585 14.5775 17.0069 14.5775 17.5716C14.5775 18.3246 14.4161 19.0325 14.0935 19.6954C13.7708 20.3584 13.3182 20.9149 12.7359 21.3651C13.2474 21.6351 13.7078 21.9666 14.1171 22.3595C14.5263 22.7523 14.8805 23.1943 15.1795 23.6853C15.4786 24.1764 15.7029 24.7002 15.8524 25.2567C16.002 25.8133 16.0807 26.3944 16.0885 27H14.5775C14.5775 26.3534 14.4594 25.7437 14.2233 25.1708C13.9872 24.5979 13.6645 24.0986 13.2553 23.673C12.846 23.2475 12.362 22.9078 11.8032 22.6541C11.2445 22.4004 10.6581 22.2776 10.0443 22.2858C9.41466 22.2858 8.82833 22.4086 8.28529 22.6541C7.74225 22.8996 7.26217 23.2352 6.84506 23.6608C6.42794 24.0864 6.10133 24.5897 5.86522 25.1708C5.62912 25.7519 5.51107 26.3616 5.51107 27H4C4 26.4025 4.0787 25.8255 4.2361 25.269C4.39351 24.7125 4.61781 24.1887 4.909 23.6976C5.2002 23.2065 5.55042 22.7646 5.95967 22.3717C6.36891 21.9789 6.83325 21.6433 7.35268 21.3651C6.77029 20.9149 6.31776 20.3584 5.99508 19.6954C5.67241 19.0325 5.51107 18.3246 5.51107 17.5716C5.51107 16.925 5.62912 16.3153 5.86522 15.7424C6.10133 15.1695 6.424 14.6702 6.83325 14.2446C7.2425 13.8191 7.72258 13.4794 8.27349 13.2257C8.8244 12.972 9.41466 12.8492 10.0443 12.8574C10.7132 12.8574 11.3468 13.0047 11.9449 13.2993C12.543 13.594 13.0625 14.0032 13.5032 14.527C13.7078 14.3224 13.9282 14.1382 14.1643 13.9746C14.4004 13.8109 14.6483 13.6554 14.908 13.508C14.3256 13.0579 13.8731 12.5014 13.5504 11.8384C13.2277 11.1755 13.0664 10.4675 13.0664 9.71459C13.0664 9.06802 13.1845 8.45828 13.4206 7.88538C13.6567 7.31247 13.9793 6.81322 14.3886 6.38764C14.7978 5.96205 15.2779 5.6224 15.8288 5.36868C16.3797 5.11496 16.97 4.9922 17.5996 5.00038C18.2213 5.00038 18.8077 5.12315 19.3586 5.36868C19.9095 5.61421 20.3896 5.94977 20.7988 6.37536C21.2081 6.80095 21.5347 7.30429 21.7787 7.88538C22.0226 8.46647 22.1407 9.07621 22.1328 9.71459C22.1328 10.4675 21.9715 11.1755 21.6488 11.8384C21.3261 12.5014 20.8736 13.0579 20.2912 13.508C20.8421 13.8109 21.3379 14.1792 21.7787 14.6129C22.2194 15.0467 22.5932 15.5501 22.9001 16.123C23.4038 16.123 23.876 16.2212 24.3168 16.4176C24.7575 16.614 25.1471 16.8882 25.4855 17.2401C25.8239 17.5921 26.0836 17.9931 26.2646 18.4432C26.4456 18.8934 26.5401 19.3885 26.548 19.9287C26.548 20.518 26.426 21.0745 26.182 21.5983C25.938 22.1221 25.5878 22.5682 25.1313 22.9365ZM10.0443 20.7144C10.4614 20.7144 10.851 20.6326 11.213 20.4689C11.575 20.3052 11.8977 20.0801 12.181 19.7937C12.4643 19.5072 12.6808 19.1757 12.8303 18.7992C12.9798 18.4228 13.0585 18.0135 13.0664 17.5716C13.0664 17.1378 12.9877 16.7327 12.8303 16.3562C12.6729 15.9797 12.4565 15.6442 12.181 15.3495C11.9056 15.0549 11.5868 14.8298 11.2248 14.6743C10.8628 14.5188 10.4693 14.437 10.0443 14.4288C9.62715 14.4288 9.23758 14.5106 8.87555 14.6743C8.51353 14.838 8.19085 15.0631 7.90753 15.3495C7.6242 15.636 7.40777 15.9675 7.25824 16.3439C7.10871 16.7204 7.03 17.1296 7.02213 17.5716C7.02213 18.0054 7.10084 18.4105 7.25824 18.787C7.41564 19.1635 7.63207 19.499 7.90753 19.7937C8.18298 20.0883 8.50172 20.3134 8.86375 20.4689C9.22577 20.6244 9.61928 20.7062 10.0443 20.7144ZM14.5775 9.71459C14.5775 10.1484 14.6562 10.5535 14.8136 10.93C14.971 11.3064 15.1874 11.642 15.4629 11.9366C15.7383 12.2313 16.0571 12.4564 16.4191 12.6119C16.7811 12.7674 17.1746 12.8492 17.5996 12.8574C18.0167 12.8574 18.4063 12.7755 18.7683 12.6119C19.1303 12.4482 19.453 12.2231 19.7364 11.9366C20.0197 11.6502 20.2361 11.3187 20.3856 10.9422C20.5352 10.5658 20.6139 10.1565 20.6217 9.71459C20.6217 9.28081 20.543 8.87569 20.3856 8.49921C20.2282 8.12273 20.0118 7.78717 19.7364 7.49253C19.4609 7.19789 19.1422 6.97282 18.7801 6.81732C18.4181 6.66181 18.0246 6.57997 17.5996 6.57178C17.1825 6.57178 16.7929 6.65363 16.4309 6.81732C16.0689 6.981 15.7462 7.20607 15.4629 7.49253C15.1795 7.77898 14.9631 8.11045 14.8136 8.48693C14.664 8.86341 14.5853 9.27263 14.5775 9.71459ZM22.8883 17.4488C22.5578 17.4488 22.2509 17.5143 21.9675 17.6453C21.6842 17.7762 21.4324 17.9522 21.212 18.1731C20.9916 18.3941 20.8185 18.656 20.6926 18.9588C20.5667 19.2617 20.5037 19.585 20.5037 19.9287C20.5037 20.2724 20.5667 20.5916 20.6926 20.8863C20.8185 21.1809 20.9877 21.4428 21.2002 21.672C21.4127 21.9011 21.6645 22.0812 21.9557 22.2121C22.2469 22.3431 22.5578 22.4086 22.8883 22.4086C23.2189 22.4086 23.5258 22.3431 23.8091 22.2121C24.0925 22.0812 24.3443 21.9052 24.5647 21.6842C24.785 21.4633 24.9582 21.2014 25.0841 20.8985C25.21 20.5957 25.273 20.2724 25.273 19.9287C25.273 19.585 25.21 19.2658 25.0841 18.9711C24.9582 18.6765 24.789 18.4146 24.5765 18.1854C24.364 17.9563 24.1122 17.7762 23.821 17.6453C23.5298 17.5143 23.2189 17.4488 22.8883 17.4488Z" fill="#292929"/>
<path d="M25.1313 22.9365C25.9026 23.3293 26.5401 23.8818 27.0438 24.5938C27.5475 25.3058 27.8662 26.1079 28 27H26.7014C26.6149 26.5335 26.4535 26.0997 26.2174 25.6987C25.9813 25.2976 25.694 24.9539 25.3556 24.6674C25.0172 24.381 24.6355 24.1518 24.2105 23.98C23.7855 23.8081 23.3448 23.7262 22.8883 23.7344C22.424 23.7344 21.9833 23.8163 21.5662 23.98C21.149 24.1437 20.7673 24.3687 20.4211 24.6552C20.0748 24.9416 19.7875 25.2895 19.5593 25.6987C19.331 26.1079 19.1697 26.5417 19.0753 27H17.7767C17.9026 26.1161 18.2174 25.3181 18.7211 24.6061C19.2248 23.894 19.8662 23.3375 20.6454 22.9365C20.1968 22.5682 19.8505 22.1221 19.6065 21.5983C19.3625 21.0745 19.2366 20.518 19.2287 19.9287C19.2287 19.5604 19.2759 19.2044 19.3704 18.8606C19.4648 18.5169 19.6065 18.1936 19.7954 17.8908C19.9843 17.588 20.2086 17.3179 20.4683 17.0805C20.728 16.8432 21.0192 16.6427 21.3419 16.479C21.1294 16.1598 20.8854 15.8774 20.6099 15.6319C20.3345 15.3864 20.0354 15.1695 19.7127 14.9812C19.3901 14.793 19.0516 14.658 18.6975 14.5761C18.3433 14.4943 17.9774 14.4452 17.5996 14.4288C16.97 14.4288 16.3679 14.5556 15.7934 14.8094C15.2189 15.0631 14.7191 15.4355 14.2941 15.9265C14.483 16.4585 14.5775 17.0069 14.5775 17.5716C14.5775 18.3246 14.4161 19.0325 14.0935 19.6954C13.7708 20.3584 13.3182 20.9149 12.7359 21.3651C13.2474 21.6351 13.7078 21.9666 14.1171 22.3595C14.5263 22.7523 14.8805 23.1943 15.1795 23.6853C15.4786 24.1764 15.7029 24.7002 15.8524 25.2567C16.002 25.8133 16.0807 26.3944 16.0885 27H14.5775C14.5775 26.3534 14.4594 25.7437 14.2233 25.1708C13.9872 24.5979 13.6645 24.0986 13.2553 23.673C12.846 23.2475 12.362 22.9078 11.8032 22.6541C11.2445 22.4004 10.6581 22.2776 10.0443 22.2858C9.41466 22.2858 8.82833 22.4086 8.28529 22.6541C7.74225 22.8996 7.26217 23.2352 6.84506 23.6608C6.42794 24.0864 6.10133 24.5897 5.86522 25.1708C5.62912 25.7519 5.51107 26.3616 5.51107 27H4C4 26.4025 4.0787 25.8255 4.2361 25.269C4.39351 24.7125 4.61781 24.1887 4.909 23.6976C5.2002 23.2065 5.55042 22.7646 5.95967 22.3717C6.36891 21.9789 6.83325 21.6433 7.35268 21.3651C6.77029 20.9149 6.31776 20.3584 5.99508 19.6954C5.67241 19.0325 5.51107 18.3246 5.51107 17.5716C5.51107 16.925 5.62912 16.3153 5.86522 15.7424C6.10133 15.1695 6.424 14.6702 6.83325 14.2446C7.2425 13.8191 7.72258 13.4794 8.27349 13.2257C8.8244 12.972 9.41466 12.8492 10.0443 12.8574C10.7132 12.8574 11.3468 13.0047 11.9449 13.2993C12.543 13.594 13.0625 14.0032 13.5032 14.527C13.7078 14.3224 13.9282 14.1382 14.1643 13.9746C14.4004 13.8109 14.6483 13.6554 14.908 13.508C14.3256 13.0579 13.8731 12.5014 13.5504 11.8384C13.2277 11.1755 13.0664 10.4675 13.0664 9.71459C13.0664 9.06802 13.1845 8.45828 13.4206 7.88538C13.6567 7.31247 13.9793 6.81322 14.3886 6.38764C14.7978 5.96205 15.2779 5.6224 15.8288 5.36868C16.3797 5.11496 16.97 4.9922 17.5996 5.00038C18.2213 5.00038 18.8077 5.12315 19.3586 5.36868C19.9095 5.61421 20.3896 5.94977 20.7988 6.37536C21.2081 6.80095 21.5347 7.30429 21.7787 7.88538C22.0226 8.46647 22.1407 9.07621 22.1328 9.71459C22.1328 10.4675 21.9715 11.1755 21.6488 11.8384C21.3261 12.5014 20.8736 13.0579 20.2912 13.508C20.8421 13.8109 21.3379 14.1792 21.7787 14.6129C22.2194 15.0467 22.5932 15.5501 22.9001 16.123C23.4038 16.123 23.876 16.2212 24.3168 16.4176C24.7575 16.614 25.1471 16.8882 25.4855 17.2401C25.8239 17.5921 26.0836 17.9931 26.2646 18.4432C26.4456 18.8934 26.5401 19.3885 26.548 19.9287C26.548 20.518 26.426 21.0745 26.182 21.5983C25.938 22.1221 25.5878 22.5682 25.1313 22.9365ZM10.0443 20.7144C10.4614 20.7144 10.851 20.6326 11.213 20.4689C11.575 20.3052 11.8977 20.0801 12.181 19.7937C12.4643 19.5072 12.6808 19.1757 12.8303 18.7992C12.9798 18.4228 13.0585 18.0135 13.0664 17.5716C13.0664 17.1378 12.9877 16.7327 12.8303 16.3562C12.6729 15.9797 12.4565 15.6442 12.181 15.3495C11.9056 15.0549 11.5868 14.8298 11.2248 14.6743C10.8628 14.5188 10.4693 14.437 10.0443 14.4288C9.62715 14.4288 9.23758 14.5106 8.87555 14.6743C8.51353 14.838 8.19085 15.0631 7.90753 15.3495C7.6242 15.636 7.40777 15.9675 7.25824 16.3439C7.10871 16.7204 7.03 17.1296 7.02213 17.5716C7.02213 18.0054 7.10084 18.4105 7.25824 18.787C7.41564 19.1635 7.63207 19.499 7.90753 19.7937C8.18298 20.0883 8.50172 20.3134 8.86375 20.4689C9.22577 20.6244 9.61928 20.7062 10.0443 20.7144ZM14.5775 9.71459C14.5775 10.1484 14.6562 10.5535 14.8136 10.93C14.971 11.3064 15.1874 11.642 15.4629 11.9366C15.7383 12.2313 16.0571 12.4564 16.4191 12.6119C16.7811 12.7674 17.1746 12.8492 17.5996 12.8574C18.0167 12.8574 18.4063 12.7755 18.7683 12.6119C19.1303 12.4482 19.453 12.2231 19.7364 11.9366C20.0197 11.6502 20.2361 11.3187 20.3856 10.9422C20.5352 10.5658 20.6139 10.1565 20.6217 9.71459C20.6217 9.28081 20.543 8.87569 20.3856 8.49921C20.2282 8.12273 20.0118 7.78717 19.7364 7.49253C19.4609 7.19789 19.1422 6.97282 18.7801 6.81732C18.4181 6.66181 18.0246 6.57997 17.5996 6.57178C17.1825 6.57178 16.7929 6.65363 16.4309 6.81732C16.0689 6.981 15.7462 7.20607 15.4629 7.49253C15.1795 7.77898 14.9631 8.11045 14.8136 8.48693C14.664 8.86341 14.5853 9.27263 14.5775 9.71459ZM22.8883 17.4488C22.5578 17.4488 22.2509 17.5143 21.9675 17.6453C21.6842 17.7762 21.4324 17.9522 21.212 18.1731C20.9916 18.3941 20.8185 18.656 20.6926 18.9588C20.5667 19.2617 20.5037 19.585 20.5037 19.9287C20.5037 20.2724 20.5667 20.5916 20.6926 20.8863C20.8185 21.1809 20.9877 21.4428 21.2002 21.672C21.4127 21.9011 21.6645 22.0812 21.9557 22.2121C22.2469 22.3431 22.5578 22.4086 22.8883 22.4086C23.2189 22.4086 23.5258 22.3431 23.8091 22.2121C24.0925 22.0812 24.3443 21.9052 24.5647 21.6842C24.785 21.4633 24.9582 21.2014 25.0841 20.8985C25.21 20.5957 25.273 20.2724 25.273 19.9287C25.273 19.585 25.21 19.2658 25.0841 18.9711C24.9582 18.6765 24.789 18.4146 24.5765 18.1854C24.364 17.9563 24.1122 17.7762 23.821 17.6453C23.5298 17.5143 23.2189 17.4488 22.8883 17.4488Z" stroke="#292929" stroke-width="0.4" mask="url(#path-1-outside-1_1640_1549)"/>
</svg>
