<svg width="32" height="32" viewBox="0 0 32 32" fill="none" xmlns="http://www.w3.org/2000/svg">
<path d="M23.668 4L23.9147 4.00667C24.9771 4.06716 25.98 4.51643 26.7325 5.26886C27.4849 6.0213 27.9342 7.02428 27.9947 8.08667L28.0013 8.33333V16.0293C27.378 15.6297 26.7058 15.3119 26.0013 15.084L26 10.6667H6.00133L6 23.6667C6.00002 24.2523 6.22023 24.8164 6.61691 25.2472C7.01359 25.678 7.55773 25.9438 8.14133 25.992L8.33333 26H15.0853C15.3147 26.712 15.6347 27.3827 16.0293 28H8.33333C7.22648 28.0001 6.16156 27.5766 5.35703 26.8164C4.55249 26.0563 4.06933 25.0171 4.00667 23.912L4 23.6667V8.33333C3.99993 7.22648 4.42341 6.16156 5.18356 5.35703C5.94372 4.55249 6.98293 4.06933 8.088 4.00667L8.33333 4H23.668ZM23.668 6H8.33467C7.71583 6 7.12234 6.24583 6.68475 6.68342C6.24717 7.121 6.00133 7.71449 6.00133 8.33333V8.66667H26.0013V8.33333C26.0013 7.71449 25.7555 7.121 25.3179 6.68342C24.8803 6.24583 24.2868 6 23.668 6ZM13.6667 12.6667C13.9083 12.6667 14.1418 12.7542 14.3239 12.913C14.506 13.0719 14.6245 13.2913 14.6573 13.5307L14.6667 13.6667V23C14.6667 23.2416 14.5791 23.4751 14.4203 23.6572C14.2615 23.8394 14.0421 23.9578 13.8027 23.9907L13.6667 24H9C8.75835 24 8.52488 23.9125 8.34276 23.7536C8.16064 23.5948 8.0422 23.3754 8.00933 23.136L8 23V13.6667C8.00001 13.425 8.08752 13.1915 8.24636 13.0094C8.40519 12.8273 8.6246 12.7089 8.864 12.676L9 12.6667H13.6667ZM12.6667 14.6667H10V22H12.6667V14.6667ZM24 13.6667C24 13.4015 23.8946 13.1471 23.7071 12.9596C23.5196 12.772 23.2652 12.6667 23 12.6667H17.0053L16.8707 12.676C16.6198 12.7105 16.3913 12.8389 16.2314 13.0353C16.0716 13.2317 15.9922 13.4815 16.0092 13.7342C16.0263 13.9868 16.1387 14.2236 16.3235 14.3967C16.5084 14.5698 16.7521 14.6663 17.0053 14.6667H23L23.136 14.6573C23.3754 14.6245 23.5948 14.506 23.7536 14.3239C23.9125 14.1418 24 13.9083 24 13.6667ZM19.04 18.6333C19.1397 18.9782 19.1687 19.3397 19.1253 19.6961C19.0819 20.0525 18.967 20.3964 18.7874 20.7073C18.6079 21.0182 18.3674 21.2896 18.0804 21.5054C17.7935 21.7211 17.4659 21.8766 17.1173 21.9627L16.3387 22.1547C16.2139 22.9531 16.2166 23.7664 16.3467 24.564L17.0667 24.7373C17.4181 24.822 17.7487 24.9772 18.0383 25.1936C18.3279 25.4099 18.5704 25.6829 18.7513 25.9959C18.9321 26.3089 19.0474 26.6555 19.0901 27.0144C19.1329 27.3734 19.1022 27.7373 19 28.084L18.7507 28.9267C19.3373 29.4413 20.004 29.8587 20.7293 30.1547L21.388 29.464C21.6371 29.202 21.9369 28.9933 22.2691 28.8508C22.6014 28.7082 22.9591 28.6347 23.3207 28.6347C23.6822 28.6347 24.04 28.7082 24.3722 28.8508C24.7044 28.9933 25.0042 29.202 25.2533 29.464L25.9173 30.164C26.6393 29.8705 27.3075 29.4591 27.8947 28.9467L27.6307 28.032C27.5312 27.6872 27.5023 27.3258 27.5458 26.9696C27.5893 26.6134 27.7043 26.2696 27.8838 25.9589C28.0633 25.6481 28.3037 25.3768 28.5906 25.1612C28.8775 24.9456 29.2049 24.7901 29.5533 24.704L30.3307 24.512C30.4556 23.7131 30.4529 22.8994 30.3227 22.1013L29.6027 21.928C29.2512 21.8433 28.9207 21.6881 28.6311 21.4718C28.3415 21.2554 28.0989 20.9824 27.9181 20.6694C27.7373 20.3564 27.622 20.0099 27.5792 19.6509C27.5364 19.292 27.5671 18.9281 27.6693 18.5813L27.9187 17.7413C27.3321 17.224 26.6633 16.8081 25.94 16.5107L25.2827 17.2027C25.0335 17.4649 24.7337 17.6737 24.4013 17.8164C24.069 17.9591 23.711 18.0327 23.3493 18.0327C22.9876 18.0327 22.6297 17.9591 22.2973 17.8164C21.965 17.6737 21.6651 17.4649 21.416 17.2027L20.752 16.5027C20.0267 16.796 19.36 17.2093 18.7747 17.7187L19.04 18.6333ZM23.3333 25.3333C22.2667 25.3333 21.4 24.4373 21.4 23.3333C21.4 22.228 22.2667 21.3333 23.3333 21.3333C24.4 21.3333 25.2667 22.228 25.2667 23.3333C25.2667 24.4373 24.4 25.3333 23.3333 25.3333Z" fill="#4B4B4B"/>
</svg>
