<svg width="24" height="24" viewBox="0 0 24 24" fill="none" xmlns="http://www.w3.org/2000/svg">
<path d="M9.66666 4.9987H14.3333C14.3333 4.37986 14.0875 3.78637 13.6499 3.34878C13.2123 2.9112 12.6188 2.66536 12 2.66536C11.3812 2.66536 10.7877 2.9112 10.3501 3.34878C9.9125 3.78637 9.66666 4.37986 9.66666 4.9987ZM7.33333 4.9987C7.33333 3.76102 7.82499 2.57404 8.70016 1.69887C9.57533 0.823697 10.7623 0.332031 12 0.332031C13.2377 0.332031 14.4247 0.823697 15.2998 1.69887C16.175 2.57404 16.6667 3.76102 16.6667 4.9987H22.5C22.8094 4.9987 23.1062 5.12161 23.325 5.34041C23.5437 5.5592 23.6667 5.85595 23.6667 6.16537C23.6667 6.47478 23.5437 6.77153 23.325 6.99032C23.1062 7.20912 22.8094 7.33203 22.5 7.33203H21.471L20.4373 19.3954C20.338 20.5602 19.805 21.6454 18.9438 22.4361C18.0827 23.2268 16.9561 23.6655 15.787 23.6654H8.213C7.04389 23.6655 5.91732 23.2268 5.05617 22.4361C4.19502 21.6454 3.66204 20.5602 3.56266 19.3954L2.529 7.33203H1.49999C1.19058 7.33203 0.893829 7.20912 0.675037 6.99032C0.456245 6.77153 0.333328 6.47478 0.333328 6.16537C0.333328 5.85595 0.456245 5.5592 0.675037 5.34041C0.893829 5.12161 1.19058 4.9987 1.49999 4.9987H7.33333ZM15.5 11.9987C15.5 11.6893 15.3771 11.3925 15.1583 11.1737C14.9395 10.9549 14.6427 10.832 14.3333 10.832C14.0239 10.832 13.7272 10.9549 13.5084 11.1737C13.2896 11.3925 13.1667 11.6893 13.1667 11.9987V16.6654C13.1667 16.9748 13.2896 17.2715 13.5084 17.4903C13.7272 17.7091 14.0239 17.832 14.3333 17.832C14.6427 17.832 14.9395 17.7091 15.1583 17.4903C15.3771 17.2715 15.5 16.9748 15.5 16.6654V11.9987ZM9.66666 10.832C9.97608 10.832 10.2728 10.9549 10.4916 11.1737C10.7104 11.3925 10.8333 11.6893 10.8333 11.9987V16.6654C10.8333 16.9748 10.7104 17.2715 10.4916 17.4903C10.2728 17.7091 9.97608 17.832 9.66666 17.832C9.35724 17.832 9.0605 17.7091 8.8417 17.4903C8.62291 17.2715 8.5 16.9748 8.5 16.6654V11.9987C8.5 11.6893 8.62291 11.3925 8.8417 11.1737C9.0605 10.9549 9.35724 10.832 9.66666 10.832ZM5.88666 19.197C5.93637 19.7797 6.20302 20.3224 6.63385 20.7178C7.06467 21.1132 7.62824 21.3324 8.213 21.332H15.787C16.3713 21.3318 16.9343 21.1123 17.3647 20.717C17.795 20.3217 18.0613 19.7793 18.111 19.197L19.1283 7.33203H4.87166L5.88666 19.197Z" fill="#B4B4B4"/>
</svg>
