<svg width="32" height="32" viewBox="0 0 32 32" fill="none" xmlns="http://www.w3.org/2000/svg">
<path d="M11.6029 10.2517L11.6029 10.2518C11.5392 10.3634 11.4541 10.4613 11.3525 10.5401C11.2509 10.6189 11.1347 10.6769 11.0106 10.711C10.8864 10.745 10.7568 10.7544 10.629 10.7386C10.5013 10.7228 10.3779 10.6821 10.2659 10.6188C10.1539 10.5555 10.0555 10.4709 9.9763 10.3697C9.89712 10.2685 9.83872 10.1527 9.80446 10.029C9.7702 9.90534 9.76076 9.77613 9.77667 9.64878C9.79258 9.52144 9.83353 9.39848 9.89717 9.28693L9.89719 9.2869C10.687 7.90371 11.8147 7.13596 13.0219 6.90214L13.0224 6.90203C14.1424 6.69153 15.3006 6.92374 16.2514 7.54946C17.122 8.12236 17.8363 9.06586 17.8583 10.2073C17.8583 10.2073 17.8583 10.2073 17.8583 10.2073L17.7583 10.2093L11.6029 10.2517ZM11.6029 10.2517C12.1317 9.32211 12.7979 8.9347 13.3975 8.81785C14.0128 8.70555 14.6478 8.8347 15.1694 9.17815L15.1694 9.17817M11.6029 10.2517L15.1694 9.17817M15.1694 9.17817C15.6747 9.51059 15.8913 9.92678 15.8992 10.2481C15.9036 10.5168 15.7621 11.0152 14.8409 11.5584L15.1694 9.17817ZM18.6089 30.0239C16.947 30.0257 15.3043 29.6696 13.7936 28.9799C12.283 28.2903 10.9401 27.2834 9.85725 26.0284L9.64438 25.7817L9.959 25.8665C10.9626 26.1372 11.9952 26.2872 13.0346 26.3135L13.0649 26.3143L13.0896 26.3317C14.7038 27.4665 16.6323 28.0743 18.6087 28.0713H18.6088C20.1808 28.0713 21.6619 27.695 22.9688 27.0309C22.9689 27.0308 22.9691 27.0307 22.9692 27.0306L23.2752 26.8732L23.31 26.8552L23.3478 26.8657L28.1925 28.2162L26.5574 23.9572L26.5397 23.9112L26.5655 23.8691L26.7909 23.5011L26.7909 23.501C27.6796 22.0545 28.1937 20.3551 28.1937 18.5322V18.5321C28.1964 16.6063 27.6105 14.7253 26.5139 13.1386L26.4966 13.1135L26.4962 13.0831C26.4819 12.0485 26.344 11.0192 26.0855 10.0169L26.0046 9.70321L26.2483 9.91674C27.4773 10.9938 28.4615 12.3194 29.1351 13.8051C29.8087 15.2908 30.1562 16.9023 30.1545 18.5323M18.6089 30.0239C20.3603 30.0236 22.0228 29.6354 23.5112 28.9384L27.8565 30.1499L27.8566 30.1499C28.1884 30.2421 28.5394 30.2408 28.8705 30.1461C29.2016 30.0514 29.4998 29.8671 29.732 29.6136C29.9641 29.3601 30.121 29.0473 30.1851 28.7102C30.2493 28.3731 30.2181 28.0249 30.0951 27.7044L30.0951 27.7043L28.7102 24.0993C29.6303 22.4487 30.1545 20.5504 30.1545 18.5323M18.6089 30.0239C18.6089 30.0239 18.6089 30.0239 18.6088 30.0239H18.6089ZM30.1545 18.5323L30.0545 18.5322M30.1545 18.5323C30.1545 18.5323 30.1545 18.5322 30.1545 18.5322H30.0545M30.0545 18.5322C30.0562 16.9165 29.7117 15.3191 29.044 13.8464C28.4007 12.4277 27.4718 11.1562 26.3153 10.1103L28.6 24.0914C29.5263 22.4457 30.0545 20.5494 30.0545 18.5322ZM3.8065 13.2747L3.8065 13.2745C3.80727 11.1959 4.49026 9.17431 5.75163 7.51742C7.01301 5.86052 8.78373 4.65899 10.7944 4.09575C12.8052 3.5325 14.9457 3.6384 16.8904 4.39732C18.8351 5.15623 20.4773 6.52659 21.5674 8.29979C22.6574 10.073 23.1356 12.152 22.9293 14.2205C22.7229 16.289 21.8433 18.2338 20.4242 19.7591C19.0051 21.2844 17.1241 22.3067 15.0674 22.6702C13.0109 23.0337 10.8914 22.7187 9.03138 21.7732C9.03124 21.7731 9.03108 21.773 9.03093 21.7729L8.72499 21.6154L8.69013 21.5975L8.65237 21.608L3.80769 22.9585L5.44275 18.6995L5.46042 18.6535L5.43467 18.6114L5.20928 18.2434L5.20918 18.2432C4.2894 16.7478 3.80389 15.028 3.8065 13.2747ZM13.8316 20.3848C14.2082 20.3848 14.5695 20.2359 14.8359 19.9707C15.1024 19.7054 15.2522 19.3456 15.2522 18.9704C15.2522 18.5951 15.1024 18.2353 14.8359 17.97C14.5695 17.7048 14.2082 17.5559 13.8316 17.5559C13.4549 17.5559 13.0936 17.7048 12.8272 17.97C12.5607 18.2353 12.4109 18.5951 12.4109 18.9704C12.4109 19.3456 12.5607 19.7054 12.8272 19.9707C13.0936 20.2359 13.4549 20.3848 13.8316 20.3848ZM13.3914 1.78281C11.378 1.78235 9.39955 2.3059 7.65227 3.30154C5.90498 4.29719 4.44961 5.73033 3.43064 7.45878C2.41167 9.18724 1.86453 11.1509 1.84357 13.1549C1.82277 15.1432 2.32068 17.1026 3.2882 18.8416L1.90509 22.4466C1.90509 22.4467 1.90508 22.4467 1.90508 22.4467C1.7819 22.7674 1.75065 23.1158 1.81483 23.4531C1.87902 23.7905 2.0361 24.1034 2.2685 24.357C2.5009 24.6106 2.79946 24.7949 3.13086 24.8894C3.46225 24.9838 3.81349 24.9848 4.14542 24.8922L8.48901 23.6806C10.0447 24.4061 11.7436 24.777 13.4618 24.766C15.1924 24.7549 16.8984 24.3567 18.4536 23.6008C20.0088 22.845 21.3735 21.7508 22.4465 20.3991C23.5195 19.0475 24.2736 17.473 24.6528 15.7921C25.032 14.1113 25.0266 12.3671 24.6371 10.6885C24.2476 9.00997 23.484 7.4401 22.4027 6.095C21.3214 4.7499 19.9501 3.66401 18.3903 2.91761C16.8305 2.1712 15.122 1.78338 13.3914 1.78281Z" fill="#4B4B4B" stroke="#4B4B4B" stroke-width="0.2"/>
</svg>
