<svg width="30" height="28" viewBox="0 0 30 28" fill="none" xmlns="http://www.w3.org/2000/svg">
<path d="M24 13C21.7715 13 18 12.579 18 11C18 9.421 21.7715 9 24 9C26.2285 9 30 9.421 30 11C30 12.579 26.2285 13 24 13ZM24 10C20.9785 10 19.1365 10.665 18.997 11.021C19.1365 11.335 20.9785 12 24 12C26.9625 12 28.791 11.361 28.993 11C28.791 10.639 26.9625 10 24 10Z" fill="#292929"/>
<path d="M24 16C21.7715 16 18 15.5785 18 14V11C18 10.8674 18.0527 10.7402 18.1464 10.6464C18.2402 10.5527 18.3674 10.5 18.5 10.5C18.6326 10.5 18.7598 10.5527 18.8536 10.6464C18.9473 10.7402 19 10.8674 19 11V14C19.1365 14.335 20.978 15 24 15C27.022 15 28.8635 14.335 29.003 13.979L29 11C29 10.8674 29.0527 10.7402 29.1464 10.6464C29.2402 10.5527 29.3674 10.5 29.5 10.5C29.6326 10.5 29.7598 10.5527 29.8536 10.6464C29.9473 10.7402 30 10.8674 30 11V14C30 15.5785 26.2285 16 24 16Z" fill="#292929"/>
<path d="M24 19C21.7715 19 18 18.5785 18 17V14C18 13.8674 18.0527 13.7402 18.1464 13.6464C18.2402 13.5527 18.3674 13.5 18.5 13.5C18.6326 13.5 18.7598 13.5527 18.8536 13.6464C18.9473 13.7402 19 13.8674 19 14V17C19.1365 17.3355 20.978 18 24 18C27.022 18 28.8635 17.3355 29.003 16.979L29 14C29 13.8674 29.0527 13.7402 29.1464 13.6464C29.2402 13.5527 29.3674 13.5 29.5 13.5C29.6326 13.5 29.7598 13.5527 29.8536 13.6464C29.9473 13.7402 30 13.8674 30 14V17C30 18.5785 26.2285 19 24 19Z" fill="#292929"/>
<path d="M24 22C21.7715 22 18 21.5785 18 20V17C18 16.8674 18.0527 16.7402 18.1464 16.6464C18.2402 16.5527 18.3674 16.5 18.5 16.5C18.6326 16.5 18.7598 16.5527 18.8536 16.6464C18.9473 16.7402 19 16.8674 19 17V20C19.1365 20.3355 20.978 21 24 21C27.022 21 28.8635 20.3355 29.003 19.979L29 17C29 16.8674 29.0527 16.7402 29.1464 16.6464C29.2402 16.5527 29.3674 16.5 29.5 16.5C29.6326 16.5 29.7598 16.5527 29.8536 16.6464C29.9473 16.7402 30 16.8674 30 17V20C30 21.5785 26.2285 22 24 22ZM15 19C12.7715 19 9 18.5785 9 17C9 15.4215 12.7715 15 15 15C15.5255 15 16.043 15.0195 16.539 15.058C16.6712 15.0683 16.7939 15.1308 16.8801 15.2316C16.9662 15.3324 17.0088 15.4633 16.9985 15.5955C16.9882 15.7277 16.9257 15.8504 16.8249 15.9366C16.7241 16.0227 16.5932 16.0653 16.461 16.055C15.991 16.0185 15.5 16 15 16C11.978 16 10.1365 16.6645 9.997 17.021C10.1365 17.3355 11.978 18 15 18C15.5 18 15.991 17.9815 16.461 17.945C16.5265 17.9399 16.5923 17.9477 16.6547 17.968C16.7172 17.9883 16.775 18.0208 16.8249 18.0634C16.8748 18.1061 16.9158 18.1582 16.9456 18.2167C16.9754 18.2752 16.9934 18.339 16.9985 18.4045C17.0036 18.47 16.9958 18.5358 16.9755 18.5982C16.9552 18.6607 16.9227 18.7185 16.8801 18.7684C16.8374 18.8183 16.7853 18.8593 16.7268 18.8891C16.6683 18.9189 16.6045 18.9369 16.539 18.942C16.043 18.9805 15.5255 19 15 19Z" fill="#292929"/>
<path d="M15 22C12.7715 22 9 21.5785 9 20V17C9 16.8674 9.05268 16.7402 9.14645 16.6464C9.24021 16.5527 9.36739 16.5 9.5 16.5C9.63261 16.5 9.75979 16.5527 9.85355 16.6464C9.94732 16.7402 10 16.8674 10 17V20C10.1365 20.3355 11.978 21 15 21C15.5 21 15.991 20.9815 16.461 20.945C16.5265 20.9399 16.5923 20.9477 16.6547 20.968C16.7172 20.9883 16.775 21.0208 16.8249 21.0634C16.8748 21.1061 16.9158 21.1582 16.9456 21.2167C16.9754 21.2752 16.9934 21.339 16.9985 21.4045C17.0036 21.47 16.9958 21.5358 16.9755 21.5982C16.9552 21.6607 16.9227 21.7185 16.8801 21.7684C16.8374 21.8183 16.7853 21.8593 16.7268 21.8891C16.6683 21.9189 16.6045 21.9369 16.539 21.942C16.043 21.9805 15.5255 22 15 22Z" fill="#292929"/>
<path d="M15 25C12.7715 25 9 24.5785 9 23V20C9 19.8674 9.05268 19.7402 9.14645 19.6464C9.24021 19.5527 9.36739 19.5 9.5 19.5C9.63261 19.5 9.75979 19.5527 9.85355 19.6464C9.94732 19.7402 10 19.8674 10 20V23C10.1365 23.3355 11.978 24 15 24C15.5 24 15.991 23.9815 16.461 23.945C16.5265 23.9399 16.5923 23.9477 16.6547 23.968C16.7172 23.9883 16.775 24.0208 16.8249 24.0634C16.8748 24.1061 16.9158 24.1582 16.9456 24.2167C16.9754 24.2752 16.9934 24.339 16.9985 24.4045C17.0036 24.47 16.9958 24.5358 16.9755 24.5982C16.9552 24.6607 16.9227 24.7185 16.8801 24.7684C16.8374 24.8183 16.7853 24.8593 16.7268 24.8891C16.6683 24.9189 16.6045 24.9369 16.539 24.942C16.043 24.9805 15.5255 25 15 25ZM6 22C3.7715 22 0 21.5785 0 20C0 18.4215 3.7715 18 6 18C6.5255 18 7.043 18.0195 7.539 18.058C7.60446 18.0631 7.66828 18.0811 7.7268 18.1109C7.78532 18.1407 7.8374 18.1817 7.88007 18.2316C7.92274 18.2815 7.95516 18.3393 7.97548 18.4018C7.9958 18.4642 8.00362 18.53 7.9985 18.5955C7.99338 18.661 7.97541 18.7248 7.94563 18.7833C7.91585 18.8418 7.87483 18.8939 7.82492 18.9366C7.775 18.9792 7.71718 19.0117 7.65474 19.032C7.5923 19.0523 7.52646 19.0601 7.461 19.055C6.991 19.0185 6.5 19 6 19C2.978 19 1.1365 19.6645 0.997 20.021C1.1365 20.3355 2.978 21 6 21C6.5 21 6.991 20.9815 7.461 20.945C7.52646 20.9399 7.5923 20.9477 7.65474 20.968C7.71718 20.9883 7.775 21.0208 7.82492 21.0634C7.87483 21.1061 7.91585 21.1582 7.94563 21.2167C7.97541 21.2752 7.99338 21.339 7.9985 21.4045C8.00362 21.47 7.9958 21.5358 7.97548 21.5982C7.95516 21.6607 7.92274 21.7185 7.88007 21.7684C7.8374 21.8183 7.78532 21.8593 7.7268 21.8891C7.66828 21.9189 7.60446 21.9369 7.539 21.942C7.043 21.9805 6.5255 22 6 22Z" fill="#292929"/>
<path d="M6 25C3.7715 25 0 24.5785 0 23V20C0 19.8674 0.0526784 19.7402 0.146447 19.6464C0.240215 19.5527 0.367392 19.5 0.5 19.5C0.632608 19.5 0.759785 19.5527 0.853553 19.6464C0.947322 19.7402 1 19.8674 1 20V23C1.1365 23.3355 2.978 24 6 24C6.5 24 6.991 23.9815 7.461 23.945C7.52646 23.9399 7.5923 23.9477 7.65474 23.968C7.71718 23.9883 7.775 24.0208 7.82492 24.0634C7.87483 24.1061 7.91585 24.1582 7.94563 24.2167C7.97541 24.2752 7.99338 24.339 7.9985 24.4045C8.00362 24.47 7.9958 24.5358 7.97548 24.5982C7.95516 24.6607 7.92274 24.7185 7.88007 24.7684C7.8374 24.8183 7.78532 24.8593 7.7268 24.8891C7.66828 24.9189 7.60446 24.9369 7.539 24.942C7.043 24.9805 6.5255 25 6 25Z" fill="#292929"/>
<path d="M6 28C3.7715 28 0 27.5785 0 26V23C0 22.8674 0.0526784 22.7402 0.146447 22.6464C0.240215 22.5527 0.367392 22.5 0.5 22.5C0.632608 22.5 0.759785 22.5527 0.853553 22.6464C0.947322 22.7402 1 22.8674 1 23V26C1.1365 26.3355 2.978 27 6 27C6.5 27 6.991 26.9815 7.461 26.945C7.52646 26.9399 7.5923 26.9477 7.65474 26.968C7.71718 26.9883 7.775 27.0208 7.82492 27.0634C7.87483 27.1061 7.91585 27.1582 7.94563 27.2167C7.97541 27.2752 7.99338 27.339 7.9985 27.4045C8.00362 27.47 7.9958 27.5358 7.97548 27.5982C7.95516 27.6607 7.92274 27.7185 7.88007 27.7684C7.8374 27.8183 7.78532 27.8593 7.7268 27.8891C7.66828 27.9189 7.60446 27.9369 7.539 27.942C7.043 27.9805 6.5255 28 6 28ZM15 28C12.7715 28 9 27.5785 9 26V23C9 22.8674 9.05268 22.7402 9.14645 22.6464C9.24021 22.5527 9.36739 22.5 9.5 22.5C9.63261 22.5 9.75979 22.5527 9.85355 22.6464C9.94732 22.7402 10 22.8674 10 23V26C10.1365 26.3355 11.978 27 15 27C15.5 27 15.991 26.9815 16.461 26.945C16.5265 26.9399 16.5923 26.9477 16.6547 26.968C16.7172 26.9883 16.775 27.0208 16.8249 27.0634C16.8748 27.1061 16.9158 27.1582 16.9456 27.2167C16.9754 27.2752 16.9934 27.339 16.9985 27.4045C17.0036 27.47 16.9958 27.5358 16.9755 27.5982C16.9552 27.6607 16.9227 27.7185 16.8801 27.7684C16.8374 27.8183 16.7853 27.8593 16.7268 27.8891C16.6683 27.9189 16.6045 27.9369 16.539 27.942C16.043 27.9805 15.5255 28 15 28ZM24 25C21.7715 25 18 24.5785 18 23V20C18 19.8674 18.0527 19.7402 18.1464 19.6464C18.2402 19.5527 18.3674 19.5 18.5 19.5C18.6326 19.5 18.7598 19.5527 18.8536 19.6464C18.9473 19.7402 19 19.8674 19 20V23C19.1365 23.3355 20.978 24 24 24C27.022 24 28.8635 23.3355 29.003 22.979L29 20C29 19.8674 29.0527 19.7402 29.1464 19.6464C29.2402 19.5527 29.3674 19.5 29.5 19.5C29.6326 19.5 29.7598 19.5527 29.8536 19.6464C29.9473 19.7402 30 19.8674 30 20V23C30 24.5785 26.2285 25 24 25Z" fill="#292929"/>
<path d="M24 28.0004C21.7715 28.0004 18 27.5789 18 26.0004V23.0004C18 22.8677 18.0527 22.7406 18.1464 22.6468C18.2402 22.553 18.3674 22.5004 18.5 22.5004C18.6326 22.5004 18.7598 22.553 18.8536 22.6468C18.9473 22.7406 19 22.8677 19 23.0004V26.0004C19.1365 26.3359 20.978 27.0004 24 27.0004C27.022 27.0004 28.8635 26.3359 29.003 25.9794L29 23.0004C29 22.8677 29.0527 22.7406 29.1464 22.6468C29.2402 22.553 29.3674 22.5004 29.5 22.5004C29.6326 22.5004 29.7598 22.553 29.8536 22.6468C29.9473 22.7406 30 22.8677 30 23.0004V26.0004C30 27.5789 26.2285 28.0004 24 28.0004ZM21 8.00035C20.901 8.00043 20.8042 7.97113 20.7219 7.91616C20.6396 7.8612 20.5755 7.78304 20.5376 7.69158C20.4998 7.60013 20.4899 7.4995 20.5093 7.40244C20.5287 7.30538 20.5764 7.21625 20.6465 7.14635L27.6465 0.146351C27.693 0.099929 27.7481 0.0631113 27.8088 0.0380003C27.8695 0.0128893 27.9345 -2.31827e-05 28.0002 3.12448e-08C28.0659 2.32452e-05 28.1309 0.0129818 28.1915 0.0381357C28.2522 0.0632896 28.3073 0.100146 28.3538 0.146601C28.4002 0.193056 28.437 0.2482 28.4621 0.308884C28.4872 0.369568 28.5001 0.434604 28.5001 0.500278C28.5001 0.565952 28.4871 0.630979 28.462 0.691645C28.4368 0.752311 28.4 0.807429 28.3535 0.853851L21.3535 7.85385C21.2598 7.94763 21.1326 8.00032 21 8.00035ZM23 3.50035C22.7033 3.50035 22.4133 3.41238 22.1666 3.24756C21.92 3.08273 21.7277 2.84847 21.6142 2.57438C21.5007 2.30029 21.4709 1.99869 21.5288 1.70772C21.5867 1.41674 21.7296 1.14947 21.9393 0.939691C22.1491 0.729912 22.4164 0.587051 22.7074 0.529174C22.9983 0.471296 23.2999 0.501001 23.574 0.614532C23.8481 0.728064 24.0824 0.920322 24.2472 1.167C24.412 1.41367 24.5 1.70368 24.5 2.00035C24.5 2.39818 24.342 2.77971 24.0607 3.06101C23.7794 3.34232 23.3978 3.50035 23 3.50035ZM23 1.50035C22.9011 1.50035 22.8044 1.52968 22.7222 1.58462C22.64 1.63956 22.5759 1.71765 22.5381 1.80901C22.5002 1.90037 22.4903 2.00091 22.5096 2.0979C22.5289 2.19489 22.5765 2.28398 22.6464 2.3539C22.7164 2.42383 22.8055 2.47145 22.9025 2.49074C22.9994 2.51004 23.1 2.50013 23.1913 2.46229C23.2827 2.42445 23.3608 2.36036 23.4157 2.27814C23.4707 2.19591 23.5 2.09924 23.5 2.00035C23.5 1.86774 23.4473 1.74057 23.3536 1.6468C23.2598 1.55303 23.1326 1.50035 23 1.50035ZM26.5 7.00035C26.2033 7.00035 25.9133 6.91238 25.6666 6.74756C25.42 6.58273 25.2277 6.34847 25.1142 6.07438C25.0006 5.80029 24.9709 5.49869 25.0288 5.20772C25.0867 4.91674 25.2296 4.64947 25.4393 4.43969C25.6491 4.22991 25.9164 4.08705 26.2074 4.02917C26.4983 3.9713 26.7999 4.001 27.074 4.11453C27.3481 4.22806 27.5824 4.42032 27.7472 4.667C27.912 4.91367 28 5.20368 28 5.50035C28 5.89818 27.842 6.27971 27.5607 6.56101C27.2794 6.84232 26.8978 7.00035 26.5 7.00035ZM26.5 5.00035C26.4011 5.00035 26.3044 5.02968 26.2222 5.08462C26.14 5.13956 26.0759 5.21765 26.0381 5.30901C26.0002 5.40037 25.9903 5.50091 26.0096 5.5979C26.0289 5.69489 26.0765 5.78398 26.1464 5.8539C26.2164 5.92383 26.3055 5.97145 26.4025 5.99074C26.4994 6.01004 26.6 6.00013 26.6913 5.96229C26.7827 5.92445 26.8608 5.86036 26.9157 5.77814C26.9707 5.69591 27 5.59924 27 5.50035C27 5.36774 26.9473 5.24057 26.8536 5.1468C26.7598 5.05303 26.6326 5.00035 26.5 5.00035Z" fill="#292929"/>
</svg>
