<svg width="32" height="32" viewBox="0 0 32 32" fill="none" xmlns="http://www.w3.org/2000/svg">
<path d="M25 15C22.7715 15 19 14.579 19 13C19 11.421 22.7715 11 25 11C27.2285 11 31 11.421 31 13C31 14.579 27.2285 15 25 15ZM25 12C21.9785 12 20.1365 12.665 19.997 13.021C20.1365 13.335 21.9785 14 25 14C27.9625 14 29.791 13.361 29.993 13C29.791 12.639 27.9625 12 25 12Z" fill="#4B4B4B"/>
<path d="M25 18C22.7715 18 19 17.5785 19 16V13C19 12.8674 19.0527 12.7402 19.1464 12.6464C19.2402 12.5527 19.3674 12.5 19.5 12.5C19.6326 12.5 19.7598 12.5527 19.8536 12.6464C19.9473 12.7402 20 12.8674 20 13V16C20.1365 16.335 21.978 17 25 17C28.022 17 29.8635 16.335 30.003 15.979L30 13C30 12.8674 30.0527 12.7402 30.1464 12.6464C30.2402 12.5527 30.3674 12.5 30.5 12.5C30.6326 12.5 30.7598 12.5527 30.8536 12.6464C30.9473 12.7402 31 12.8674 31 13V16C31 17.5785 27.2285 18 25 18Z" fill="#4B4B4B"/>
<path d="M25 21C22.7715 21 19 20.5785 19 19V16C19 15.8674 19.0527 15.7402 19.1464 15.6464C19.2402 15.5527 19.3674 15.5 19.5 15.5C19.6326 15.5 19.7598 15.5527 19.8536 15.6464C19.9473 15.7402 20 15.8674 20 16V19C20.1365 19.3355 21.978 20 25 20C28.022 20 29.8635 19.3355 30.003 18.979L30 16C30 15.8674 30.0527 15.7402 30.1464 15.6464C30.2402 15.5527 30.3674 15.5 30.5 15.5C30.6326 15.5 30.7598 15.5527 30.8536 15.6464C30.9473 15.7402 31 15.8674 31 16V19C31 20.5785 27.2285 21 25 21Z" fill="#4B4B4B"/>
<path d="M25 24C22.7715 24 19 23.5785 19 22V19C19 18.8674 19.0527 18.7402 19.1464 18.6464C19.2402 18.5527 19.3674 18.5 19.5 18.5C19.6326 18.5 19.7598 18.5527 19.8536 18.6464C19.9473 18.7402 20 18.8674 20 19V22C20.1365 22.3355 21.978 23 25 23C28.022 23 29.8635 22.3355 30.003 21.979L30 19C30 18.8674 30.0527 18.7402 30.1464 18.6464C30.2402 18.5527 30.3674 18.5 30.5 18.5C30.6326 18.5 30.7598 18.5527 30.8536 18.6464C30.9473 18.7402 31 18.8674 31 19V22C31 23.5785 27.2285 24 25 24ZM16 21C13.7715 21 10 20.5785 10 19C10 17.4215 13.7715 17 16 17C16.5255 17 17.043 17.0195 17.539 17.058C17.6712 17.0683 17.7939 17.1308 17.8801 17.2316C17.9662 17.3324 18.0088 17.4633 17.9985 17.5955C17.9882 17.7277 17.9257 17.8504 17.8249 17.9366C17.7241 18.0227 17.5932 18.0653 17.461 18.055C16.991 18.0185 16.5 18 16 18C12.978 18 11.1365 18.6645 10.997 19.021C11.1365 19.3355 12.978 20 16 20C16.5 20 16.991 19.9815 17.461 19.945C17.5265 19.9399 17.5923 19.9477 17.6547 19.968C17.7172 19.9883 17.775 20.0208 17.8249 20.0634C17.8748 20.1061 17.9158 20.1582 17.9456 20.2167C17.9754 20.2752 17.9934 20.339 17.9985 20.4045C18.0036 20.47 17.9958 20.5358 17.9755 20.5982C17.9552 20.6607 17.9227 20.7185 17.8801 20.7684C17.8374 20.8183 17.7853 20.8593 17.7268 20.8891C17.6683 20.9189 17.6045 20.9369 17.539 20.942C17.043 20.9805 16.5255 21 16 21Z" fill="#4B4B4B"/>
<path d="M16 24C13.7715 24 10 23.5785 10 22V19C10 18.8674 10.0527 18.7402 10.1464 18.6464C10.2402 18.5527 10.3674 18.5 10.5 18.5C10.6326 18.5 10.7598 18.5527 10.8536 18.6464C10.9473 18.7402 11 18.8674 11 19V22C11.1365 22.3355 12.978 23 16 23C16.5 23 16.991 22.9815 17.461 22.945C17.5265 22.9399 17.5923 22.9477 17.6547 22.968C17.7172 22.9883 17.775 23.0208 17.8249 23.0634C17.8748 23.1061 17.9158 23.1582 17.9456 23.2167C17.9754 23.2752 17.9934 23.339 17.9985 23.4045C18.0036 23.47 17.9958 23.5358 17.9755 23.5982C17.9552 23.6607 17.9227 23.7185 17.8801 23.7684C17.8374 23.8183 17.7853 23.8593 17.7268 23.8891C17.6683 23.9189 17.6045 23.9369 17.539 23.942C17.043 23.9805 16.5255 24 16 24Z" fill="#4B4B4B"/>
<path d="M16 27C13.7715 27 10 26.5785 10 25V22C10 21.8674 10.0527 21.7402 10.1464 21.6464C10.2402 21.5527 10.3674 21.5 10.5 21.5C10.6326 21.5 10.7598 21.5527 10.8536 21.6464C10.9473 21.7402 11 21.8674 11 22V25C11.1365 25.3355 12.978 26 16 26C16.5 26 16.991 25.9815 17.461 25.945C17.5265 25.9399 17.5923 25.9477 17.6547 25.968C17.7172 25.9883 17.775 26.0208 17.8249 26.0634C17.8748 26.1061 17.9158 26.1582 17.9456 26.2167C17.9754 26.2752 17.9934 26.339 17.9985 26.4045C18.0036 26.47 17.9958 26.5358 17.9755 26.5982C17.9552 26.6607 17.9227 26.7185 17.8801 26.7684C17.8374 26.8183 17.7853 26.8593 17.7268 26.8891C17.6683 26.9189 17.6045 26.9369 17.539 26.942C17.043 26.9805 16.5255 27 16 27ZM7 24C4.7715 24 1 23.5785 1 22C1 20.4215 4.7715 20 7 20C7.5255 20 8.043 20.0195 8.539 20.058C8.60446 20.0631 8.66828 20.0811 8.7268 20.1109C8.78532 20.1407 8.8374 20.1817 8.88007 20.2316C8.92274 20.2815 8.95516 20.3393 8.97548 20.4018C8.9958 20.4642 9.00362 20.53 8.9985 20.5955C8.99338 20.661 8.97541 20.7248 8.94563 20.7833C8.91585 20.8418 8.87483 20.8939 8.82492 20.9366C8.775 20.9792 8.71718 21.0117 8.65474 21.032C8.5923 21.0523 8.52646 21.0601 8.461 21.055C7.991 21.0185 7.5 21 7 21C3.978 21 2.1365 21.6645 1.997 22.021C2.1365 22.3355 3.978 23 7 23C7.5 23 7.991 22.9815 8.461 22.945C8.52646 22.9399 8.5923 22.9477 8.65474 22.968C8.71718 22.9883 8.775 23.0208 8.82492 23.0634C8.87483 23.1061 8.91585 23.1582 8.94563 23.2167C8.97541 23.2752 8.99338 23.339 8.9985 23.4045C9.00362 23.47 8.9958 23.5358 8.97548 23.5982C8.95516 23.6607 8.92274 23.7185 8.88007 23.7684C8.8374 23.8183 8.78532 23.8593 8.7268 23.8891C8.66828 23.9189 8.60446 23.9369 8.539 23.942C8.043 23.9805 7.5255 24 7 24Z" fill="#4B4B4B"/>
<path d="M7 27C4.7715 27 1 26.5785 1 25V22C1 21.8674 1.05268 21.7402 1.14645 21.6464C1.24021 21.5527 1.36739 21.5 1.5 21.5C1.63261 21.5 1.75979 21.5527 1.85355 21.6464C1.94732 21.7402 2 21.8674 2 22V25C2.1365 25.3355 3.978 26 7 26C7.5 26 7.991 25.9815 8.461 25.945C8.52646 25.9399 8.5923 25.9477 8.65474 25.968C8.71718 25.9883 8.775 26.0208 8.82492 26.0634C8.87483 26.1061 8.91585 26.1582 8.94563 26.2167C8.97541 26.2752 8.99338 26.339 8.9985 26.4045C9.00362 26.47 8.9958 26.5358 8.97548 26.5982C8.95516 26.6607 8.92274 26.7185 8.88007 26.7684C8.8374 26.8183 8.78532 26.8593 8.7268 26.8891C8.66828 26.9189 8.60446 26.9369 8.539 26.942C8.043 26.9805 7.5255 27 7 27Z" fill="#4B4B4B"/>
<path d="M7 30C4.7715 30 1 29.5785 1 28V25C1 24.8674 1.05268 24.7402 1.14645 24.6464C1.24021 24.5527 1.36739 24.5 1.5 24.5C1.63261 24.5 1.75979 24.5527 1.85355 24.6464C1.94732 24.7402 2 24.8674 2 25V28C2.1365 28.3355 3.978 29 7 29C7.5 29 7.991 28.9815 8.461 28.945C8.52646 28.9399 8.5923 28.9477 8.65474 28.968C8.71718 28.9883 8.775 29.0208 8.82492 29.0634C8.87483 29.1061 8.91585 29.1582 8.94563 29.2167C8.97541 29.2752 8.99338 29.339 8.9985 29.4045C9.00362 29.47 8.9958 29.5358 8.97548 29.5982C8.95516 29.6607 8.92274 29.7185 8.88007 29.7684C8.8374 29.8183 8.78532 29.8593 8.7268 29.8891C8.66828 29.9189 8.60446 29.9369 8.539 29.942C8.043 29.9805 7.5255 30 7 30ZM16 30C13.7715 30 10 29.5785 10 28V25C10 24.8674 10.0527 24.7402 10.1464 24.6464C10.2402 24.5527 10.3674 24.5 10.5 24.5C10.6326 24.5 10.7598 24.5527 10.8536 24.6464C10.9473 24.7402 11 24.8674 11 25V28C11.1365 28.3355 12.978 29 16 29C16.5 29 16.991 28.9815 17.461 28.945C17.5265 28.9399 17.5923 28.9477 17.6547 28.968C17.7172 28.9883 17.775 29.0208 17.8249 29.0634C17.8748 29.1061 17.9158 29.1582 17.9456 29.2167C17.9754 29.2752 17.9934 29.339 17.9985 29.4045C18.0036 29.47 17.9958 29.5358 17.9755 29.5982C17.9552 29.6607 17.9227 29.7185 17.8801 29.7684C17.8374 29.8183 17.7853 29.8593 17.7268 29.8891C17.6683 29.9189 17.6045 29.9369 17.539 29.942C17.043 29.9805 16.5255 30 16 30ZM25 27C22.7715 27 19 26.5785 19 25V22C19 21.8674 19.0527 21.7402 19.1464 21.6464C19.2402 21.5527 19.3674 21.5 19.5 21.5C19.6326 21.5 19.7598 21.5527 19.8536 21.6464C19.9473 21.7402 20 21.8674 20 22V25C20.1365 25.3355 21.978 26 25 26C28.022 26 29.8635 25.3355 30.003 24.979L30 22C30 21.8674 30.0527 21.7402 30.1464 21.6464C30.2402 21.5527 30.3674 21.5 30.5 21.5C30.6326 21.5 30.7598 21.5527 30.8536 21.6464C30.9473 21.7402 31 21.8674 31 22V25C31 26.5785 27.2285 27 25 27Z" fill="#4B4B4B"/>
<path d="M25 30C22.7715 30 19 29.5785 19 28V25C19 24.8674 19.0527 24.7402 19.1464 24.6464C19.2402 24.5527 19.3674 24.5 19.5 24.5C19.6326 24.5 19.7598 24.5527 19.8536 24.6464C19.9473 24.7402 20 24.8674 20 25V28C20.1365 28.3355 21.978 29 25 29C28.022 29 29.8635 28.3355 30.003 27.979L30 25C30 24.8674 30.0527 24.7402 30.1464 24.6464C30.2402 24.5527 30.3674 24.5 30.5 24.5C30.6326 24.5 30.7598 24.5527 30.8536 24.6464C30.9473 24.7402 31 24.8674 31 25V28C31 29.5785 27.2285 30 25 30ZM22 9.99998C21.901 10.0001 21.8042 9.97076 21.7219 9.9158C21.6396 9.86083 21.5755 9.78267 21.5376 9.69122C21.4998 9.59976 21.4899 9.49913 21.5093 9.40207C21.5287 9.30501 21.5764 9.21588 21.6465 9.14599L28.6465 2.14599C28.693 2.09956 28.7481 2.06275 28.8088 2.03763C28.8695 2.01252 28.9345 1.99961 29.0002 1.99963C29.0659 1.99966 29.1309 2.01262 29.1915 2.03777C29.2522 2.06292 29.3073 2.09978 29.3538 2.14624C29.4002 2.19269 29.437 2.24783 29.4621 2.30852C29.4872 2.3692 29.5001 2.43424 29.5001 2.49991C29.5001 2.56559 29.4871 2.63061 29.462 2.69128C29.4368 2.75195 29.4 2.80706 29.3535 2.85349L22.3535 9.85349C22.2598 9.94726 22.1326 9.99996 22 9.99998ZM24 5.49999C23.7033 5.49999 23.4133 5.41201 23.1666 5.24719C22.92 5.08237 22.7277 4.8481 22.6142 4.57401C22.5007 4.29992 22.4709 3.99832 22.5288 3.70735C22.5867 3.41638 22.7296 3.1491 22.9393 2.93933C23.1491 2.72955 23.4164 2.58669 23.7074 2.52881C23.9983 2.47093 24.2999 2.50063 24.574 2.61417C24.8481 2.7277 25.0824 2.91996 25.2472 3.16663C25.412 3.4133 25.5 3.70331 25.5 3.99999C25.5 4.39781 25.342 4.77934 25.0607 5.06065C24.7794 5.34195 24.3978 5.49999 24 5.49999ZM24 3.49999C23.9011 3.49999 23.8044 3.52931 23.7222 3.58425C23.64 3.63919 23.5759 3.71728 23.5381 3.80864C23.5002 3.90001 23.4903 4.00054 23.5096 4.09753C23.5289 4.19452 23.5765 4.28361 23.6464 4.35354C23.7164 4.42346 23.8055 4.47109 23.9025 4.49038C23.9994 4.50967 24.1 4.49977 24.1913 4.46193C24.2827 4.42408 24.3608 4.36 24.4157 4.27777C24.4707 4.19555 24.5 4.09888 24.5 3.99999C24.5 3.86738 24.4473 3.7402 24.3536 3.64643C24.2598 3.55266 24.1326 3.49999 24 3.49999ZM27.5 8.99999C27.2033 8.99999 26.9133 8.91201 26.6666 8.74719C26.42 8.58237 26.2277 8.3481 26.1142 8.07401C26.0007 7.79992 25.9709 7.49832 26.0288 7.20735C26.0867 6.91638 26.2296 6.6491 26.4393 6.43932C26.6491 6.22955 26.9164 6.08668 27.2074 6.02881C27.4983 5.97093 27.7999 6.00063 28.074 6.11417C28.3481 6.2277 28.5824 6.41996 28.7472 6.66663C28.912 6.9133 29 7.20331 29 7.49999C29 7.89781 28.842 8.27934 28.5607 8.56065C28.2794 8.84195 27.8978 8.99999 27.5 8.99999ZM27.5 6.99999C27.4011 6.99999 27.3044 7.02931 27.2222 7.08425C27.14 7.13919 27.0759 7.21728 27.0381 7.30864C27.0002 7.40001 26.9903 7.50054 27.0096 7.59753C27.0289 7.69452 27.0765 7.78361 27.1464 7.85354C27.2164 7.92346 27.3055 7.97109 27.4025 7.99038C27.4994 8.00967 27.6 7.99977 27.6913 7.96193C27.7827 7.92408 27.8608 7.86 27.9157 7.77777C27.9707 7.69555 28 7.59888 28 7.49999C28 7.36738 27.9473 7.2402 27.8536 7.14643C27.7598 7.05266 27.6326 6.99999 27.5 6.99999Z" fill="#4B4B4B"/>
</svg>
