<svg width="32" height="32" viewBox="0 0 32 32" fill="none" xmlns="http://www.w3.org/2000/svg">
<path d="M5.33329 26.6654C4.59996 26.6654 3.97196 26.404 3.44929 25.8814C2.92663 25.3587 2.66574 24.7311 2.66663 23.9987V7.9987C2.66663 7.26537 2.92796 6.63737 3.45063 6.1147C3.97329 5.59203 4.60085 5.33114 5.33329 5.33203H13.3333L16 7.9987H26.6666C27.4 7.9987 28.028 8.26003 28.5506 8.7827C29.0733 9.30537 29.3342 9.93292 29.3333 10.6654V14.9987C28.9333 14.7098 28.5111 14.4654 28.0666 14.2654C27.6222 14.0654 27.1555 13.8876 26.6666 13.732V10.6654H5.33329V23.9987H14.7666C14.8333 24.4654 14.9333 24.9209 15.0666 25.3654C15.2 25.8098 15.3666 26.2431 15.5666 26.6654H5.33329ZM22.6666 29.332L22.2666 27.332C22 27.2209 21.7497 27.104 21.516 26.9814C21.2822 26.8587 21.0435 26.7089 20.8 26.532L18.8666 27.132L17.5333 24.8654L19.0666 23.532C19.0222 23.2654 19 22.9765 19 22.6654C19 22.3543 19.0222 22.0654 19.0666 21.7987L17.5333 20.4654L18.8666 18.1987L20.8 18.7987C21.0444 18.6209 21.2835 18.4711 21.5173 18.3494C21.7511 18.2276 22.0009 18.1107 22.2666 17.9987L22.6666 15.9987H25.3333L25.7333 17.9987C26 18.1098 26.2502 18.2267 26.484 18.3494C26.7177 18.472 26.9564 18.6218 27.2 18.7987L29.1333 18.1987L30.4666 20.4654L28.9333 21.7987C28.9777 22.0654 29 22.3543 29 22.6654C29 22.9765 28.9777 23.2654 28.9333 23.532L30.4666 24.8654L29.1333 27.132L27.2 26.532C26.9555 26.7098 26.7169 26.86 26.484 26.9827C26.2511 27.1054 26.0009 27.2218 25.7333 27.332L25.3333 29.332H22.6666ZM24 25.332C24.7333 25.332 25.3613 25.0707 25.884 24.548C26.4066 24.0254 26.6675 23.3978 26.6666 22.6654C26.6666 21.932 26.4053 21.304 25.8826 20.7814C25.36 20.2587 24.7324 19.9978 24 19.9987C23.2666 19.9987 22.6386 20.26 22.116 20.7827C21.5933 21.3054 21.3324 21.9329 21.3333 22.6654C21.3333 23.3987 21.5946 24.0267 22.1173 24.5494C22.64 25.072 23.2675 25.3329 24 25.332Z" fill="#4B4B4B"/>
</svg>
