<svg width="32" height="32" viewBox="0 0 32 32" fill="none" xmlns="http://www.w3.org/2000/svg">
<path d="M22.6667 27.9987L25.0667 30.3587C25.7334 31.0254 26.6667 30.492 26.6667 29.7054V23.9987L30.4001 19.4654C30.5486 19.2673 30.6391 19.0317 30.6614 18.7851C30.6836 18.5385 30.6367 18.2906 30.526 18.0691C30.4152 17.8476 30.245 17.6613 30.0344 17.5312C29.8238 17.401 29.581 17.332 29.3334 17.332H20.0001C18.9334 17.332 18.2667 18.6654 18.9334 19.4654L22.6667 23.9987V27.9987ZM20.0001 26.6654H2.66675V22.6654C2.66675 19.0654 9.73341 17.332 13.3334 17.332C14.1334 17.332 15.0667 17.4654 16.1334 17.5987C15.8667 18.3987 16.0001 19.332 16.2667 20.132C15.3334 19.9987 14.2667 19.8654 13.3334 19.8654C9.33341 19.8654 5.20008 21.8654 5.20008 22.6654V24.132H19.3334L20.0001 24.932V26.6654ZM13.3334 5.33203C10.4001 5.33203 8.00008 7.73203 8.00008 10.6654C8.00008 13.5987 10.4001 15.9987 13.3334 15.9987C16.2667 15.9987 18.6667 13.5987 18.6667 10.6654C18.6667 7.73203 16.2667 5.33203 13.3334 5.33203ZM13.3334 13.332C11.8667 13.332 10.6667 12.132 10.6667 10.6654C10.6667 9.1987 11.8667 7.9987 13.3334 7.9987C14.8001 7.9987 16.0001 9.1987 16.0001 10.6654C16.0001 12.132 14.8001 13.332 13.3334 13.332Z" fill="#4B4B4B"/>
</svg>
