<svg width="29" height="26" viewBox="0 0 29 26" fill="none" xmlns="http://www.w3.org/2000/svg">
<path d="M20.6667 22.9987L23.0667 25.3587C23.7334 26.0254 24.6667 25.492 24.6667 24.7054V18.9987L28.4001 14.4654C28.5486 14.2673 28.6391 14.0317 28.6614 13.7851C28.6836 13.5385 28.6367 13.2906 28.526 13.0691C28.4152 12.8476 28.245 12.6613 28.0344 12.5312C27.8238 12.401 27.581 12.332 27.3334 12.332H18.0001C16.9334 12.332 16.2667 13.6654 16.9334 14.4654L20.6667 18.9987V22.9987ZM18.0001 21.6654H0.666748V17.6654C0.666748 14.0654 7.73341 12.332 11.3334 12.332C12.1334 12.332 13.0667 12.4654 14.1334 12.5987C13.8667 13.3987 14.0001 14.332 14.2667 15.132C13.3334 14.9987 12.2667 14.8654 11.3334 14.8654C7.33341 14.8654 3.20008 16.8654 3.20008 17.6654V19.132H17.3334L18.0001 19.932V21.6654ZM11.3334 0.332031C8.40008 0.332031 6.00008 2.73203 6.00008 5.66536C6.00008 8.5987 8.40008 10.9987 11.3334 10.9987C14.2667 10.9987 16.6667 8.5987 16.6667 5.66536C16.6667 2.73203 14.2667 0.332031 11.3334 0.332031ZM11.3334 8.33203C9.86675 8.33203 8.66675 7.13203 8.66675 5.66536C8.66675 4.1987 9.86675 2.9987 11.3334 2.9987C12.8001 2.9987 14.0001 4.1987 14.0001 5.66536C14.0001 7.13203 12.8001 8.33203 11.3334 8.33203Z" fill="black"/>
</svg>
