<svg width="24" height="24" viewBox="0 0 24 24" fill="none" xmlns="http://www.w3.org/2000/svg">
<path d="M8.5 10.832H19V13.1654H8.5V10.832ZM19 6.16537H5V8.4987H19V6.16537ZM23.6667 2.66536V23.6654L19 18.9987H2.66666C2.04782 18.9987 1.45433 18.7529 1.01675 18.3153C0.579161 17.8777 0.333328 17.2842 0.333328 16.6654V2.66536C0.333328 1.38203 1.38333 0.332031 2.66666 0.332031H21.3333C21.9522 0.332031 22.5457 0.577864 22.9832 1.01545C23.4208 1.45303 23.6667 2.04653 23.6667 2.66536ZM21.3333 2.66536H2.66666V16.6654H19.9683L21.3333 18.0304V2.66536Z" fill="#B4B4B4"/>
</svg>
