<svg width="32" height="32" viewBox="0 0 32 32" fill="none" xmlns="http://www.w3.org/2000/svg">
<path d="M23.7561 16.2531L23.7858 16.2629L23.7533 16.2583C23.7333 16.3274 23.3972 17.4298 22.2705 18.5129C21.1499 19.59 19.2281 20.667 16 20.667C12.7718 20.667 10.8502 19.5909 9.72979 18.5147C8.60344 17.4328 8.26715 16.3313 8.24616 16.2606L8.24628 16.2605L8.2438 16.2531C8.18619 16.0792 8.06367 15.9342 7.90179 15.8484C7.73991 15.7626 7.55116 15.7426 7.3749 15.7926C7.19864 15.8426 7.04847 15.9586 6.95569 16.1166C6.86292 16.2746 6.83471 16.4623 6.87694 16.6406L6.87664 16.6406L6.88004 16.6524C6.89458 16.7027 7.30546 18.0599 8.65058 19.4075C10.0024 20.7618 12.2821 22.0897 16 22.0897C19.7178 22.0897 21.9975 20.7618 23.3493 19.4075C24.6944 18.0599 25.1053 16.7027 25.1199 16.6524L25.1202 16.6525L25.123 16.6406C25.1652 16.4623 25.137 16.2746 25.0442 16.1166C24.9514 15.9586 24.8013 15.8426 24.625 15.7926C24.4487 15.7426 24.26 15.7626 24.0981 15.8484C23.9362 15.9342 23.8137 16.0792 23.7561 16.2531Z" fill="#292929" stroke="#292929" stroke-width="0.5"/>
<mask id="path-2-outside-1_1640_2147" maskUnits="userSpaceOnUse" x="0.882324" y="1.54688" width="30" height="29" fill="black">
<rect fill="white" x="0.882324" y="1.54688" width="30" height="29"/>
<path d="M29.6566 15.9956C29.5343 15.9956 29.417 16.0442 29.3306 16.1306C29.2441 16.2171 29.1955 16.3343 29.1955 16.4566V18.373H27.4657C27.3872 18.373 27.31 18.393 27.2414 18.4311C27.1729 18.4693 27.1151 18.5243 27.0738 18.591C27.0643 18.6067 26.1146 20.1292 24.7937 21.2291C24.7433 21.2708 24.7024 21.3228 24.6737 21.3815C24.645 21.4403 24.6291 21.5045 24.6271 21.5699C24.6252 21.6352 24.6372 21.7003 24.6623 21.7607C24.6875 21.821 24.7252 21.8754 24.7729 21.92L26.7955 23.8239L25.5041 25.0531L23.3057 23.0167C23.2601 22.9749 23.2067 22.9427 23.1485 22.9219C23.0903 22.9011 23.0285 22.8922 22.9668 22.8956C22.9051 22.8991 22.8447 22.9149 22.7892 22.942C22.7337 22.9692 22.6842 23.0072 22.6436 23.0538C22.6279 23.0714 21.0545 24.8345 17.3046 25.2271C17.1913 25.239 17.0865 25.2925 17.0103 25.3772C16.9341 25.4618 16.8919 25.5717 16.8919 25.6856V28.5335H15.1093V25.6856C15.1093 25.5716 15.067 25.4616 14.9907 25.377C14.9144 25.2923 14.8094 25.2389 14.696 25.2271C10.9467 24.8345 9.3733 23.0714 9.35697 23.0557C9.31679 23.0083 9.26739 22.9696 9.21178 22.942C9.15616 22.9143 9.0955 22.8983 9.03348 22.8949C8.97157 22.8913 8.90957 22.9003 8.85119 22.9212C8.79281 22.9422 8.73924 22.9747 8.69367 23.0167L6.49525 25.0531L5.20446 23.8232L7.22701 21.9194C7.2746 21.8746 7.31215 21.8203 7.33718 21.7599C7.3622 21.6996 7.37413 21.6346 7.37217 21.5693C7.37021 21.5039 7.35441 21.4398 7.32581 21.3811C7.29721 21.3223 7.25647 21.2703 7.20628 21.2285C5.88723 20.128 4.93562 18.6054 4.9262 18.5903C4.88482 18.5237 4.8271 18.4686 4.75851 18.4305C4.68992 18.3924 4.61273 18.3724 4.53425 18.3724H2.80441V16.4566C2.80441 16.3343 2.75583 16.2171 2.66937 16.1306C2.58291 16.0442 2.46564 15.9956 2.34337 15.9956C2.22109 15.9956 2.10382 16.0442 2.01736 16.1306C1.9309 16.2171 1.88232 16.3343 1.88232 16.4566V18.8334C1.88232 18.9557 1.9309 19.073 2.01736 19.1594C2.10382 19.2459 2.22109 19.2945 2.34337 19.2945H4.28363C4.84505 20.1293 5.49656 20.8998 6.22641 21.5921L4.21642 23.4834C4.17102 23.5265 4.13486 23.5784 4.11015 23.6359C4.08544 23.6934 4.07269 23.7553 4.07269 23.8179C4.07269 23.8805 4.08544 23.9424 4.11015 23.9999C4.13486 24.0574 4.17102 24.1093 4.21642 24.1524L6.17428 26.0166C6.25903 26.0966 6.37094 26.1415 6.48747 26.1423C6.60401 26.1432 6.71653 26.0998 6.8024 26.021L9.00082 23.9872C9.65847 24.5613 11.2897 25.7032 14.1866 26.092V28.992C14.1866 29.1143 14.2352 29.2316 14.3216 29.318C14.4081 29.4045 14.5254 29.4531 14.6476 29.4531H17.3486C17.4708 29.4531 17.5881 29.4045 17.6746 29.318C17.761 29.2316 17.8096 29.1143 17.8096 28.992V26.0945C20.7065 25.7057 22.3377 24.5638 22.9954 23.9897L25.1938 26.0235C25.2798 26.1032 25.393 26.1471 25.5103 26.1463C25.6276 26.1455 25.7401 26.1 25.8251 26.0191L27.7829 24.1549C27.8283 24.1117 27.8645 24.0598 27.8892 24.0023C27.9139 23.9447 27.9267 23.8827 27.9267 23.8201C27.9267 23.7574 27.9139 23.6955 27.8892 23.6379C27.8645 23.5804 27.8283 23.5284 27.7829 23.4853L25.7729 21.5947C26.5032 20.9016 27.155 20.1303 27.7163 19.2945H29.6566C29.7789 19.2945 29.8961 19.2459 29.9826 19.1594C30.0691 19.073 30.1176 18.9557 30.1176 18.8334V16.4566C30.1176 16.3343 30.0691 16.2171 29.9826 16.1306C29.8961 16.0442 29.7789 15.9956 29.6566 15.9956ZM4.9218 14.7814C4.98251 14.7817 5.04266 14.7699 5.09881 14.7469C5.15497 14.7238 5.20602 14.6899 5.24903 14.6471C5.29204 14.6042 5.32617 14.5533 5.34945 14.4972C5.37274 14.4412 5.38473 14.3811 5.38473 14.3204V12.4913C5.38622 11.4922 5.78377 10.5345 6.49021 9.82805C7.19666 9.1216 8.15439 8.72406 9.15346 8.72256H9.54792C10.0901 8.72372 10.6257 8.8415 11.1184 9.0679C11.6111 9.2943 12.0493 9.62403 12.4034 10.0347C11.5736 10.9047 11.1108 12.061 11.1113 13.2633V15.0923C11.109 15.1543 11.1192 15.216 11.1414 15.2739C11.1635 15.3318 11.1971 15.3847 11.2401 15.4293C11.2831 15.4739 11.3346 15.5094 11.3917 15.5337C11.4487 15.5579 11.5101 15.5704 11.572 15.5704C11.634 15.5704 11.6954 15.5579 11.7524 15.5337C11.8094 15.5094 11.861 15.4739 11.904 15.4293C11.947 15.3847 11.9806 15.3318 12.0027 15.2739C12.0248 15.216 12.0351 15.1543 12.0328 15.0923V13.2601C12.0342 12.3743 12.347 11.5171 12.9165 10.8386C13.4861 10.1601 14.276 9.70343 15.1482 9.54854L14.3317 14.1646C14.3175 14.2438 14.3243 14.3254 14.3515 14.4011C14.3788 14.4769 14.4254 14.5441 14.4868 14.5961L15.701 15.625C15.7844 15.6959 15.8902 15.7348 15.9997 15.7348C16.1091 15.7348 16.215 15.6959 16.2983 15.625L17.5106 14.5942C17.572 14.5422 17.6187 14.475 17.6459 14.3992C17.6731 14.3235 17.68 14.2419 17.6658 14.1627L16.8492 9.54666C17.7214 9.70155 18.5114 10.1582 19.0809 10.8367C19.6505 11.5152 19.9633 12.3724 19.9647 13.2582V15.0873C19.9624 15.1493 19.9726 15.211 19.9947 15.2689C20.0169 15.3268 20.0504 15.3796 20.0934 15.4243C20.1364 15.4689 20.188 15.5044 20.2451 15.5286C20.3021 15.5529 20.3634 15.5654 20.4254 15.5654C20.4874 15.5654 20.5487 15.5529 20.6058 15.5286C20.6628 15.5044 20.7144 15.4689 20.7574 15.4243C20.8004 15.3796 20.834 15.3268 20.8561 15.2689C20.8782 15.211 20.8884 15.1493 20.8861 15.0873V13.2601C20.8865 12.0593 20.4247 10.9043 19.5966 10.0347C19.9509 9.62421 20.3894 9.29474 20.8823 9.06867C21.3752 8.84259 21.911 8.7252 22.4533 8.72445H22.8465C23.8456 8.72594 24.8033 9.12348 25.5097 9.82993C26.2162 10.5364 26.6137 11.4941 26.6152 12.4932V14.3223C26.6129 14.3842 26.6232 14.446 26.6453 14.5039C26.6674 14.5617 26.701 14.6146 26.744 14.6592C26.787 14.7038 26.8386 14.7393 26.8956 14.7636C26.9526 14.7878 27.014 14.8003 27.076 14.8003C27.1379 14.8003 27.1993 14.7878 27.2563 14.7636C27.3133 14.7393 27.3649 14.7038 27.4079 14.6592C27.4509 14.6146 27.4845 14.5617 27.5066 14.5039C27.5287 14.446 27.539 14.3842 27.5367 14.3223V12.4913C27.5357 11.538 27.2447 10.6076 26.7024 9.82356C26.1601 9.03956 25.392 8.43912 24.5003 8.10198C25.0184 7.71314 25.4009 7.17119 25.5939 6.55288C25.7868 5.93457 25.7803 5.27124 25.5754 4.6568C25.3704 4.04237 24.9774 3.50798 24.4519 3.12931C23.9264 2.75064 23.2951 2.54688 22.6474 2.54688C21.9997 2.54688 21.3684 2.75064 20.8429 3.12931C20.3174 3.50798 19.9243 4.04237 19.7194 4.6568C19.5144 5.27124 19.508 5.93457 19.7009 6.55288C19.8939 7.17119 20.2764 7.71314 20.7944 8.10198C20.0607 8.37884 19.4078 8.83463 18.895 9.42794C18.5709 9.19855 18.2191 9.01113 17.8479 8.87017C18.3659 8.48133 18.7485 7.93939 18.9414 7.32108C19.1344 6.70277 19.1279 6.03943 18.9229 5.42499C18.718 4.81056 18.3249 4.27617 17.7995 3.8975C17.274 3.51883 16.6427 3.31507 15.995 3.31507C15.3472 3.31507 14.7159 3.51883 14.1904 3.8975C13.665 4.27617 13.2719 4.81056 13.067 5.42499C12.862 6.03943 12.8555 6.70277 13.0485 7.32108C13.2414 7.93939 13.624 8.48133 14.142 8.87017C13.7708 9.01113 13.419 9.19855 13.0949 9.42794C12.5823 8.83445 11.9293 8.37863 11.1955 8.10198C11.7135 7.71314 12.0961 7.17119 12.289 6.55288C12.4819 5.93457 12.4755 5.27124 12.2705 4.6568C12.0656 4.04237 11.6725 3.50798 11.147 3.12931C10.6215 2.75064 9.99023 2.54688 9.34252 2.54688C8.69481 2.54688 8.06351 2.75064 7.53802 3.12931C7.01253 3.50798 6.61947 4.04237 6.41453 4.6568C6.20958 5.27124 6.20311 5.93457 6.39605 6.55288C6.58899 7.17119 6.97155 7.71314 7.48956 8.10198C6.59787 8.43912 5.82985 9.03956 5.28752 9.82356C4.74518 10.6076 4.4542 11.538 4.45322 12.4913V14.3204C4.45322 14.3816 4.46539 14.4421 4.48903 14.4986C4.51267 14.555 4.5473 14.6062 4.59091 14.6491C4.63453 14.692 4.68625 14.7258 4.74306 14.7485C4.79986 14.7712 4.86063 14.7824 4.9218 14.7814ZM22.6505 3.47021C23.0785 3.47034 23.4968 3.59731 23.8526 3.83509C24.2084 4.07286 24.4857 4.41077 24.6495 4.80611C24.8133 5.20145 24.8563 5.63648 24.773 6.05622C24.6896 6.47597 24.4837 6.86159 24.1813 7.16437C23.8789 7.46714 23.4935 7.67348 23.0739 7.7573C22.6542 7.84112 22.2191 7.79866 21.8236 7.6353C21.4281 7.47194 21.0898 7.195 20.8517 6.83947C20.6135 6.48395 20.486 6.0658 20.4854 5.63786C20.4852 5.35336 20.5411 5.07162 20.6498 4.80872C20.7585 4.54582 20.918 4.30691 21.119 4.10562C21.3201 3.90434 21.5588 3.74462 21.8216 3.6356C22.0844 3.52658 22.366 3.47038 22.6505 3.47021ZM16 14.6709L15.2877 14.0647L16 10.0265L16.7123 14.0647L16 14.6709ZM16 4.23903C16.4282 4.23891 16.8469 4.36579 17.203 4.60362C17.5592 4.84145 17.8368 5.17956 18.0007 5.57517C18.1647 5.97079 18.2077 6.40614 18.1242 6.82618C18.0407 7.24622 17.8346 7.63206 17.5318 7.93493C17.229 8.23779 16.8432 8.44406 16.4232 8.52765C16.0032 8.61125 15.5679 8.56841 15.1722 8.40455C14.7765 8.24069 14.4383 7.96318 14.2004 7.60712C13.9625 7.25105 13.8355 6.83242 13.8355 6.40417C13.836 5.8302 14.0642 5.27987 14.47 4.87396C14.8758 4.46804 15.426 4.2397 16 4.23903ZM9.34943 3.47021C9.77739 3.47021 10.1958 3.59708 10.5516 3.83478C10.9075 4.07248 11.185 4.41035 11.3489 4.80567C11.5128 5.201 11.5558 5.63605 11.4726 6.05584C11.3893 6.47563 11.1835 6.86131 10.8811 7.16415C10.5787 7.46698 10.1933 7.67338 9.77363 7.75725C9.35396 7.84112 8.91885 7.79871 8.52328 7.63536C8.12772 7.47202 7.78945 7.19508 7.55123 6.83954C7.31302 6.484 7.18555 6.06582 7.18492 5.63786C7.18476 5.06346 7.41265 4.51249 7.81852 4.10603C8.22439 3.69957 8.77503 3.47088 9.34943 3.47021Z"/>
</mask>
<path d="M29.6566 15.9956C29.5343 15.9956 29.417 16.0442 29.3306 16.1306C29.2441 16.2171 29.1955 16.3343 29.1955 16.4566V18.373H27.4657C27.3872 18.373 27.31 18.393 27.2414 18.4311C27.1729 18.4693 27.1151 18.5243 27.0738 18.591C27.0643 18.6067 26.1146 20.1292 24.7937 21.2291C24.7433 21.2708 24.7024 21.3228 24.6737 21.3815C24.645 21.4403 24.6291 21.5045 24.6271 21.5699C24.6252 21.6352 24.6372 21.7003 24.6623 21.7607C24.6875 21.821 24.7252 21.8754 24.7729 21.92L26.7955 23.8239L25.5041 25.0531L23.3057 23.0167C23.2601 22.9749 23.2067 22.9427 23.1485 22.9219C23.0903 22.9011 23.0285 22.8922 22.9668 22.8956C22.9051 22.8991 22.8447 22.9149 22.7892 22.942C22.7337 22.9692 22.6842 23.0072 22.6436 23.0538C22.6279 23.0714 21.0545 24.8345 17.3046 25.2271C17.1913 25.239 17.0865 25.2925 17.0103 25.3772C16.9341 25.4618 16.8919 25.5717 16.8919 25.6856V28.5335H15.1093V25.6856C15.1093 25.5716 15.067 25.4616 14.9907 25.377C14.9144 25.2923 14.8094 25.2389 14.696 25.2271C10.9467 24.8345 9.3733 23.0714 9.35697 23.0557C9.31679 23.0083 9.26739 22.9696 9.21178 22.942C9.15616 22.9143 9.0955 22.8983 9.03348 22.8949C8.97157 22.8913 8.90957 22.9003 8.85119 22.9212C8.79281 22.9422 8.73924 22.9747 8.69367 23.0167L6.49525 25.0531L5.20446 23.8232L7.22701 21.9194C7.2746 21.8746 7.31215 21.8203 7.33718 21.7599C7.3622 21.6996 7.37413 21.6346 7.37217 21.5693C7.37021 21.5039 7.35441 21.4398 7.32581 21.3811C7.29721 21.3223 7.25647 21.2703 7.20628 21.2285C5.88723 20.128 4.93562 18.6054 4.9262 18.5903C4.88482 18.5237 4.8271 18.4686 4.75851 18.4305C4.68992 18.3924 4.61273 18.3724 4.53425 18.3724H2.80441V16.4566C2.80441 16.3343 2.75583 16.2171 2.66937 16.1306C2.58291 16.0442 2.46564 15.9956 2.34337 15.9956C2.22109 15.9956 2.10382 16.0442 2.01736 16.1306C1.9309 16.2171 1.88232 16.3343 1.88232 16.4566V18.8334C1.88232 18.9557 1.9309 19.073 2.01736 19.1594C2.10382 19.2459 2.22109 19.2945 2.34337 19.2945H4.28363C4.84505 20.1293 5.49656 20.8998 6.22641 21.5921L4.21642 23.4834C4.17102 23.5265 4.13486 23.5784 4.11015 23.6359C4.08544 23.6934 4.07269 23.7553 4.07269 23.8179C4.07269 23.8805 4.08544 23.9424 4.11015 23.9999C4.13486 24.0574 4.17102 24.1093 4.21642 24.1524L6.17428 26.0166C6.25903 26.0966 6.37094 26.1415 6.48747 26.1423C6.60401 26.1432 6.71653 26.0998 6.8024 26.021L9.00082 23.9872C9.65847 24.5613 11.2897 25.7032 14.1866 26.092V28.992C14.1866 29.1143 14.2352 29.2316 14.3216 29.318C14.4081 29.4045 14.5254 29.4531 14.6476 29.4531H17.3486C17.4708 29.4531 17.5881 29.4045 17.6746 29.318C17.761 29.2316 17.8096 29.1143 17.8096 28.992V26.0945C20.7065 25.7057 22.3377 24.5638 22.9954 23.9897L25.1938 26.0235C25.2798 26.1032 25.393 26.1471 25.5103 26.1463C25.6276 26.1455 25.7401 26.1 25.8251 26.0191L27.7829 24.1549C27.8283 24.1117 27.8645 24.0598 27.8892 24.0023C27.9139 23.9447 27.9267 23.8827 27.9267 23.8201C27.9267 23.7574 27.9139 23.6955 27.8892 23.6379C27.8645 23.5804 27.8283 23.5284 27.7829 23.4853L25.7729 21.5947C26.5032 20.9016 27.155 20.1303 27.7163 19.2945H29.6566C29.7789 19.2945 29.8961 19.2459 29.9826 19.1594C30.0691 19.073 30.1176 18.9557 30.1176 18.8334V16.4566C30.1176 16.3343 30.0691 16.2171 29.9826 16.1306C29.8961 16.0442 29.7789 15.9956 29.6566 15.9956ZM4.9218 14.7814C4.98251 14.7817 5.04266 14.7699 5.09881 14.7469C5.15497 14.7238 5.20602 14.6899 5.24903 14.6471C5.29204 14.6042 5.32617 14.5533 5.34945 14.4972C5.37274 14.4412 5.38473 14.3811 5.38473 14.3204V12.4913C5.38622 11.4922 5.78377 10.5345 6.49021 9.82805C7.19666 9.1216 8.15439 8.72406 9.15346 8.72256H9.54792C10.0901 8.72372 10.6257 8.8415 11.1184 9.0679C11.6111 9.2943 12.0493 9.62403 12.4034 10.0347C11.5736 10.9047 11.1108 12.061 11.1113 13.2633V15.0923C11.109 15.1543 11.1192 15.216 11.1414 15.2739C11.1635 15.3318 11.1971 15.3847 11.2401 15.4293C11.2831 15.4739 11.3346 15.5094 11.3917 15.5337C11.4487 15.5579 11.5101 15.5704 11.572 15.5704C11.634 15.5704 11.6954 15.5579 11.7524 15.5337C11.8094 15.5094 11.861 15.4739 11.904 15.4293C11.947 15.3847 11.9806 15.3318 12.0027 15.2739C12.0248 15.216 12.0351 15.1543 12.0328 15.0923V13.2601C12.0342 12.3743 12.347 11.5171 12.9165 10.8386C13.4861 10.1601 14.276 9.70343 15.1482 9.54854L14.3317 14.1646C14.3175 14.2438 14.3243 14.3254 14.3515 14.4011C14.3788 14.4769 14.4254 14.5441 14.4868 14.5961L15.701 15.625C15.7844 15.6959 15.8902 15.7348 15.9997 15.7348C16.1091 15.7348 16.215 15.6959 16.2983 15.625L17.5106 14.5942C17.572 14.5422 17.6187 14.475 17.6459 14.3992C17.6731 14.3235 17.68 14.2419 17.6658 14.1627L16.8492 9.54666C17.7214 9.70155 18.5114 10.1582 19.0809 10.8367C19.6505 11.5152 19.9633 12.3724 19.9647 13.2582V15.0873C19.9624 15.1493 19.9726 15.211 19.9947 15.2689C20.0169 15.3268 20.0504 15.3796 20.0934 15.4243C20.1364 15.4689 20.188 15.5044 20.2451 15.5286C20.3021 15.5529 20.3634 15.5654 20.4254 15.5654C20.4874 15.5654 20.5487 15.5529 20.6058 15.5286C20.6628 15.5044 20.7144 15.4689 20.7574 15.4243C20.8004 15.3796 20.834 15.3268 20.8561 15.2689C20.8782 15.211 20.8884 15.1493 20.8861 15.0873V13.2601C20.8865 12.0593 20.4247 10.9043 19.5966 10.0347C19.9509 9.62421 20.3894 9.29474 20.8823 9.06867C21.3752 8.84259 21.911 8.7252 22.4533 8.72445H22.8465C23.8456 8.72594 24.8033 9.12348 25.5097 9.82993C26.2162 10.5364 26.6137 11.4941 26.6152 12.4932V14.3223C26.6129 14.3842 26.6232 14.446 26.6453 14.5039C26.6674 14.5617 26.701 14.6146 26.744 14.6592C26.787 14.7038 26.8386 14.7393 26.8956 14.7636C26.9526 14.7878 27.014 14.8003 27.076 14.8003C27.1379 14.8003 27.1993 14.7878 27.2563 14.7636C27.3133 14.7393 27.3649 14.7038 27.4079 14.6592C27.4509 14.6146 27.4845 14.5617 27.5066 14.5039C27.5287 14.446 27.539 14.3842 27.5367 14.3223V12.4913C27.5357 11.538 27.2447 10.6076 26.7024 9.82356C26.1601 9.03956 25.392 8.43912 24.5003 8.10198C25.0184 7.71314 25.4009 7.17119 25.5939 6.55288C25.7868 5.93457 25.7803 5.27124 25.5754 4.6568C25.3704 4.04237 24.9774 3.50798 24.4519 3.12931C23.9264 2.75064 23.2951 2.54688 22.6474 2.54688C21.9997 2.54688 21.3684 2.75064 20.8429 3.12931C20.3174 3.50798 19.9243 4.04237 19.7194 4.6568C19.5144 5.27124 19.508 5.93457 19.7009 6.55288C19.8939 7.17119 20.2764 7.71314 20.7944 8.10198C20.0607 8.37884 19.4078 8.83463 18.895 9.42794C18.5709 9.19855 18.2191 9.01113 17.8479 8.87017C18.3659 8.48133 18.7485 7.93939 18.9414 7.32108C19.1344 6.70277 19.1279 6.03943 18.9229 5.42499C18.718 4.81056 18.3249 4.27617 17.7995 3.8975C17.274 3.51883 16.6427 3.31507 15.995 3.31507C15.3472 3.31507 14.7159 3.51883 14.1904 3.8975C13.665 4.27617 13.2719 4.81056 13.067 5.42499C12.862 6.03943 12.8555 6.70277 13.0485 7.32108C13.2414 7.93939 13.624 8.48133 14.142 8.87017C13.7708 9.01113 13.419 9.19855 13.0949 9.42794C12.5823 8.83445 11.9293 8.37863 11.1955 8.10198C11.7135 7.71314 12.0961 7.17119 12.289 6.55288C12.4819 5.93457 12.4755 5.27124 12.2705 4.6568C12.0656 4.04237 11.6725 3.50798 11.147 3.12931C10.6215 2.75064 9.99023 2.54688 9.34252 2.54688C8.69481 2.54688 8.06351 2.75064 7.53802 3.12931C7.01253 3.50798 6.61947 4.04237 6.41453 4.6568C6.20958 5.27124 6.20311 5.93457 6.39605 6.55288C6.58899 7.17119 6.97155 7.71314 7.48956 8.10198C6.59787 8.43912 5.82985 9.03956 5.28752 9.82356C4.74518 10.6076 4.4542 11.538 4.45322 12.4913V14.3204C4.45322 14.3816 4.46539 14.4421 4.48903 14.4986C4.51267 14.555 4.5473 14.6062 4.59091 14.6491C4.63453 14.692 4.68625 14.7258 4.74306 14.7485C4.79986 14.7712 4.86063 14.7824 4.9218 14.7814ZM22.6505 3.47021C23.0785 3.47034 23.4968 3.59731 23.8526 3.83509C24.2084 4.07286 24.4857 4.41077 24.6495 4.80611C24.8133 5.20145 24.8563 5.63648 24.773 6.05622C24.6896 6.47597 24.4837 6.86159 24.1813 7.16437C23.8789 7.46714 23.4935 7.67348 23.0739 7.7573C22.6542 7.84112 22.2191 7.79866 21.8236 7.6353C21.4281 7.47194 21.0898 7.195 20.8517 6.83947C20.6135 6.48395 20.486 6.0658 20.4854 5.63786C20.4852 5.35336 20.5411 5.07162 20.6498 4.80872C20.7585 4.54582 20.918 4.30691 21.119 4.10562C21.3201 3.90434 21.5588 3.74462 21.8216 3.6356C22.0844 3.52658 22.366 3.47038 22.6505 3.47021ZM16 14.6709L15.2877 14.0647L16 10.0265L16.7123 14.0647L16 14.6709ZM16 4.23903C16.4282 4.23891 16.8469 4.36579 17.203 4.60362C17.5592 4.84145 17.8368 5.17956 18.0007 5.57517C18.1647 5.97079 18.2077 6.40614 18.1242 6.82618C18.0407 7.24622 17.8346 7.63206 17.5318 7.93493C17.229 8.23779 16.8432 8.44406 16.4232 8.52765C16.0032 8.61125 15.5679 8.56841 15.1722 8.40455C14.7765 8.24069 14.4383 7.96318 14.2004 7.60712C13.9625 7.25105 13.8355 6.83242 13.8355 6.40417C13.836 5.8302 14.0642 5.27987 14.47 4.87396C14.8758 4.46804 15.426 4.2397 16 4.23903ZM9.34943 3.47021C9.77739 3.47021 10.1958 3.59708 10.5516 3.83478C10.9075 4.07248 11.185 4.41035 11.3489 4.80567C11.5128 5.201 11.5558 5.63605 11.4726 6.05584C11.3893 6.47563 11.1835 6.86131 10.8811 7.16415C10.5787 7.46698 10.1933 7.67338 9.77363 7.75725C9.35396 7.84112 8.91885 7.79871 8.52328 7.63536C8.12772 7.47202 7.78945 7.19508 7.55123 6.83954C7.31302 6.484 7.18555 6.06582 7.18492 5.63786C7.18476 5.06346 7.41265 4.51249 7.81852 4.10603C8.22439 3.69957 8.77503 3.47088 9.34943 3.47021Z" fill="#292929"/>
<path d="M29.6566 15.9956C29.5343 15.9956 29.417 16.0442 29.3306 16.1306C29.2441 16.2171 29.1955 16.3343 29.1955 16.4566V18.373H27.4657C27.3872 18.373 27.31 18.393 27.2414 18.4311C27.1729 18.4693 27.1151 18.5243 27.0738 18.591C27.0643 18.6067 26.1146 20.1292 24.7937 21.2291C24.7433 21.2708 24.7024 21.3228 24.6737 21.3815C24.645 21.4403 24.6291 21.5045 24.6271 21.5699C24.6252 21.6352 24.6372 21.7003 24.6623 21.7607C24.6875 21.821 24.7252 21.8754 24.7729 21.92L26.7955 23.8239L25.5041 25.0531L23.3057 23.0167C23.2601 22.9749 23.2067 22.9427 23.1485 22.9219C23.0903 22.9011 23.0285 22.8922 22.9668 22.8956C22.9051 22.8991 22.8447 22.9149 22.7892 22.942C22.7337 22.9692 22.6842 23.0072 22.6436 23.0538C22.6279 23.0714 21.0545 24.8345 17.3046 25.2271C17.1913 25.239 17.0865 25.2925 17.0103 25.3772C16.9341 25.4618 16.8919 25.5717 16.8919 25.6856V28.5335H15.1093V25.6856C15.1093 25.5716 15.067 25.4616 14.9907 25.377C14.9144 25.2923 14.8094 25.2389 14.696 25.2271C10.9467 24.8345 9.3733 23.0714 9.35697 23.0557C9.31679 23.0083 9.26739 22.9696 9.21178 22.942C9.15616 22.9143 9.0955 22.8983 9.03348 22.8949C8.97157 22.8913 8.90957 22.9003 8.85119 22.9212C8.79281 22.9422 8.73924 22.9747 8.69367 23.0167L6.49525 25.0531L5.20446 23.8232L7.22701 21.9194C7.2746 21.8746 7.31215 21.8203 7.33718 21.7599C7.3622 21.6996 7.37413 21.6346 7.37217 21.5693C7.37021 21.5039 7.35441 21.4398 7.32581 21.3811C7.29721 21.3223 7.25647 21.2703 7.20628 21.2285C5.88723 20.128 4.93562 18.6054 4.9262 18.5903C4.88482 18.5237 4.8271 18.4686 4.75851 18.4305C4.68992 18.3924 4.61273 18.3724 4.53425 18.3724H2.80441V16.4566C2.80441 16.3343 2.75583 16.2171 2.66937 16.1306C2.58291 16.0442 2.46564 15.9956 2.34337 15.9956C2.22109 15.9956 2.10382 16.0442 2.01736 16.1306C1.9309 16.2171 1.88232 16.3343 1.88232 16.4566V18.8334C1.88232 18.9557 1.9309 19.073 2.01736 19.1594C2.10382 19.2459 2.22109 19.2945 2.34337 19.2945H4.28363C4.84505 20.1293 5.49656 20.8998 6.22641 21.5921L4.21642 23.4834C4.17102 23.5265 4.13486 23.5784 4.11015 23.6359C4.08544 23.6934 4.07269 23.7553 4.07269 23.8179C4.07269 23.8805 4.08544 23.9424 4.11015 23.9999C4.13486 24.0574 4.17102 24.1093 4.21642 24.1524L6.17428 26.0166C6.25903 26.0966 6.37094 26.1415 6.48747 26.1423C6.60401 26.1432 6.71653 26.0998 6.8024 26.021L9.00082 23.9872C9.65847 24.5613 11.2897 25.7032 14.1866 26.092V28.992C14.1866 29.1143 14.2352 29.2316 14.3216 29.318C14.4081 29.4045 14.5254 29.4531 14.6476 29.4531H17.3486C17.4708 29.4531 17.5881 29.4045 17.6746 29.318C17.761 29.2316 17.8096 29.1143 17.8096 28.992V26.0945C20.7065 25.7057 22.3377 24.5638 22.9954 23.9897L25.1938 26.0235C25.2798 26.1032 25.393 26.1471 25.5103 26.1463C25.6276 26.1455 25.7401 26.1 25.8251 26.0191L27.7829 24.1549C27.8283 24.1117 27.8645 24.0598 27.8892 24.0023C27.9139 23.9447 27.9267 23.8827 27.9267 23.8201C27.9267 23.7574 27.9139 23.6955 27.8892 23.6379C27.8645 23.5804 27.8283 23.5284 27.7829 23.4853L25.7729 21.5947C26.5032 20.9016 27.155 20.1303 27.7163 19.2945H29.6566C29.7789 19.2945 29.8961 19.2459 29.9826 19.1594C30.0691 19.073 30.1176 18.9557 30.1176 18.8334V16.4566C30.1176 16.3343 30.0691 16.2171 29.9826 16.1306C29.8961 16.0442 29.7789 15.9956 29.6566 15.9956ZM4.9218 14.7814C4.98251 14.7817 5.04266 14.7699 5.09881 14.7469C5.15497 14.7238 5.20602 14.6899 5.24903 14.6471C5.29204 14.6042 5.32617 14.5533 5.34945 14.4972C5.37274 14.4412 5.38473 14.3811 5.38473 14.3204V12.4913C5.38622 11.4922 5.78377 10.5345 6.49021 9.82805C7.19666 9.1216 8.15439 8.72406 9.15346 8.72256H9.54792C10.0901 8.72372 10.6257 8.8415 11.1184 9.0679C11.6111 9.2943 12.0493 9.62403 12.4034 10.0347C11.5736 10.9047 11.1108 12.061 11.1113 13.2633V15.0923C11.109 15.1543 11.1192 15.216 11.1414 15.2739C11.1635 15.3318 11.1971 15.3847 11.2401 15.4293C11.2831 15.4739 11.3346 15.5094 11.3917 15.5337C11.4487 15.5579 11.5101 15.5704 11.572 15.5704C11.634 15.5704 11.6954 15.5579 11.7524 15.5337C11.8094 15.5094 11.861 15.4739 11.904 15.4293C11.947 15.3847 11.9806 15.3318 12.0027 15.2739C12.0248 15.216 12.0351 15.1543 12.0328 15.0923V13.2601C12.0342 12.3743 12.347 11.5171 12.9165 10.8386C13.4861 10.1601 14.276 9.70343 15.1482 9.54854L14.3317 14.1646C14.3175 14.2438 14.3243 14.3254 14.3515 14.4011C14.3788 14.4769 14.4254 14.5441 14.4868 14.5961L15.701 15.625C15.7844 15.6959 15.8902 15.7348 15.9997 15.7348C16.1091 15.7348 16.215 15.6959 16.2983 15.625L17.5106 14.5942C17.572 14.5422 17.6187 14.475 17.6459 14.3992C17.6731 14.3235 17.68 14.2419 17.6658 14.1627L16.8492 9.54666C17.7214 9.70155 18.5114 10.1582 19.0809 10.8367C19.6505 11.5152 19.9633 12.3724 19.9647 13.2582V15.0873C19.9624 15.1493 19.9726 15.211 19.9947 15.2689C20.0169 15.3268 20.0504 15.3796 20.0934 15.4243C20.1364 15.4689 20.188 15.5044 20.2451 15.5286C20.3021 15.5529 20.3634 15.5654 20.4254 15.5654C20.4874 15.5654 20.5487 15.5529 20.6058 15.5286C20.6628 15.5044 20.7144 15.4689 20.7574 15.4243C20.8004 15.3796 20.834 15.3268 20.8561 15.2689C20.8782 15.211 20.8884 15.1493 20.8861 15.0873V13.2601C20.8865 12.0593 20.4247 10.9043 19.5966 10.0347C19.9509 9.62421 20.3894 9.29474 20.8823 9.06867C21.3752 8.84259 21.911 8.7252 22.4533 8.72445H22.8465C23.8456 8.72594 24.8033 9.12348 25.5097 9.82993C26.2162 10.5364 26.6137 11.4941 26.6152 12.4932V14.3223C26.6129 14.3842 26.6232 14.446 26.6453 14.5039C26.6674 14.5617 26.701 14.6146 26.744 14.6592C26.787 14.7038 26.8386 14.7393 26.8956 14.7636C26.9526 14.7878 27.014 14.8003 27.076 14.8003C27.1379 14.8003 27.1993 14.7878 27.2563 14.7636C27.3133 14.7393 27.3649 14.7038 27.4079 14.6592C27.4509 14.6146 27.4845 14.5617 27.5066 14.5039C27.5287 14.446 27.539 14.3842 27.5367 14.3223V12.4913C27.5357 11.538 27.2447 10.6076 26.7024 9.82356C26.1601 9.03956 25.392 8.43912 24.5003 8.10198C25.0184 7.71314 25.4009 7.17119 25.5939 6.55288C25.7868 5.93457 25.7803 5.27124 25.5754 4.6568C25.3704 4.04237 24.9774 3.50798 24.4519 3.12931C23.9264 2.75064 23.2951 2.54688 22.6474 2.54688C21.9997 2.54688 21.3684 2.75064 20.8429 3.12931C20.3174 3.50798 19.9243 4.04237 19.7194 4.6568C19.5144 5.27124 19.508 5.93457 19.7009 6.55288C19.8939 7.17119 20.2764 7.71314 20.7944 8.10198C20.0607 8.37884 19.4078 8.83463 18.895 9.42794C18.5709 9.19855 18.2191 9.01113 17.8479 8.87017C18.3659 8.48133 18.7485 7.93939 18.9414 7.32108C19.1344 6.70277 19.1279 6.03943 18.9229 5.42499C18.718 4.81056 18.3249 4.27617 17.7995 3.8975C17.274 3.51883 16.6427 3.31507 15.995 3.31507C15.3472 3.31507 14.7159 3.51883 14.1904 3.8975C13.665 4.27617 13.2719 4.81056 13.067 5.42499C12.862 6.03943 12.8555 6.70277 13.0485 7.32108C13.2414 7.93939 13.624 8.48133 14.142 8.87017C13.7708 9.01113 13.419 9.19855 13.0949 9.42794C12.5823 8.83445 11.9293 8.37863 11.1955 8.10198C11.7135 7.71314 12.0961 7.17119 12.289 6.55288C12.4819 5.93457 12.4755 5.27124 12.2705 4.6568C12.0656 4.04237 11.6725 3.50798 11.147 3.12931C10.6215 2.75064 9.99023 2.54688 9.34252 2.54688C8.69481 2.54688 8.06351 2.75064 7.53802 3.12931C7.01253 3.50798 6.61947 4.04237 6.41453 4.6568C6.20958 5.27124 6.20311 5.93457 6.39605 6.55288C6.58899 7.17119 6.97155 7.71314 7.48956 8.10198C6.59787 8.43912 5.82985 9.03956 5.28752 9.82356C4.74518 10.6076 4.4542 11.538 4.45322 12.4913V14.3204C4.45322 14.3816 4.46539 14.4421 4.48903 14.4986C4.51267 14.555 4.5473 14.6062 4.59091 14.6491C4.63453 14.692 4.68625 14.7258 4.74306 14.7485C4.79986 14.7712 4.86063 14.7824 4.9218 14.7814ZM22.6505 3.47021C23.0785 3.47034 23.4968 3.59731 23.8526 3.83509C24.2084 4.07286 24.4857 4.41077 24.6495 4.80611C24.8133 5.20145 24.8563 5.63648 24.773 6.05622C24.6896 6.47597 24.4837 6.86159 24.1813 7.16437C23.8789 7.46714 23.4935 7.67348 23.0739 7.7573C22.6542 7.84112 22.2191 7.79866 21.8236 7.6353C21.4281 7.47194 21.0898 7.195 20.8517 6.83947C20.6135 6.48395 20.486 6.0658 20.4854 5.63786C20.4852 5.35336 20.5411 5.07162 20.6498 4.80872C20.7585 4.54582 20.918 4.30691 21.119 4.10562C21.3201 3.90434 21.5588 3.74462 21.8216 3.6356C22.0844 3.52658 22.366 3.47038 22.6505 3.47021ZM16 14.6709L15.2877 14.0647L16 10.0265L16.7123 14.0647L16 14.6709ZM16 4.23903C16.4282 4.23891 16.8469 4.36579 17.203 4.60362C17.5592 4.84145 17.8368 5.17956 18.0007 5.57517C18.1647 5.97079 18.2077 6.40614 18.1242 6.82618C18.0407 7.24622 17.8346 7.63206 17.5318 7.93493C17.229 8.23779 16.8432 8.44406 16.4232 8.52765C16.0032 8.61125 15.5679 8.56841 15.1722 8.40455C14.7765 8.24069 14.4383 7.96318 14.2004 7.60712C13.9625 7.25105 13.8355 6.83242 13.8355 6.40417C13.836 5.8302 14.0642 5.27987 14.47 4.87396C14.8758 4.46804 15.426 4.2397 16 4.23903ZM9.34943 3.47021C9.77739 3.47021 10.1958 3.59708 10.5516 3.83478C10.9075 4.07248 11.185 4.41035 11.3489 4.80567C11.5128 5.201 11.5558 5.63605 11.4726 6.05584C11.3893 6.47563 11.1835 6.86131 10.8811 7.16415C10.5787 7.46698 10.1933 7.67338 9.77363 7.75725C9.35396 7.84112 8.91885 7.79871 8.52328 7.63536C8.12772 7.47202 7.78945 7.19508 7.55123 6.83954C7.31302 6.484 7.18555 6.06582 7.18492 5.63786C7.18476 5.06346 7.41265 4.51249 7.81852 4.10603C8.22439 3.69957 8.77503 3.47088 9.34943 3.47021Z" stroke="#292929" mask="url(#path-2-outside-1_1640_2147)"/>
</svg>
