<svg width="30" height="28" viewBox="0 0 30 28" fill="none" xmlns="http://www.w3.org/2000/svg">
<path d="M22.7561 14.2531L22.7858 14.2629L22.7533 14.2583C22.7333 14.3274 22.3972 15.4298 21.2705 16.5129C20.1499 17.59 18.2281 18.667 15 18.667C11.7718 18.667 9.85022 17.5909 8.72979 16.5147C7.60344 15.4328 7.26715 14.3313 7.24616 14.2606L7.24628 14.2605L7.2438 14.2531C7.18619 14.0792 7.06367 13.9342 6.90179 13.8484C6.73991 13.7626 6.55116 13.7426 6.3749 13.7926C6.19864 13.8426 6.04847 13.9586 5.95569 14.1166C5.86292 14.2746 5.83471 14.4623 5.87694 14.6406L5.87664 14.6406L5.88004 14.6524C5.89458 14.7027 6.30546 16.0599 7.65058 17.4075C9.00242 18.7618 11.2821 20.0897 15 20.0897C18.7178 20.0897 20.9975 18.7618 22.3493 17.4075C23.6944 16.0599 24.1053 14.7027 24.1199 14.6524L24.1202 14.6525L24.123 14.6406C24.1652 14.4623 24.137 14.2746 24.0442 14.1166C23.9514 13.9586 23.8013 13.8426 23.625 13.7926C23.4487 13.7426 23.26 13.7626 23.0981 13.8484C22.9362 13.9342 22.8137 14.0792 22.7561 14.2531Z" fill="#4B4B4B" stroke="#4B4B4B" stroke-width="0.5"/>
<mask id="path-2-outside-1_1329_16" maskUnits="userSpaceOnUse" x="-0.117676" y="-0.453125" width="30" height="29" fill="black">
<rect fill="white" x="-0.117676" y="-0.453125" width="30" height="29"/>
<path d="M28.6566 13.9956C28.5343 13.9956 28.417 14.0442 28.3306 14.1306C28.2441 14.2171 28.1955 14.3343 28.1955 14.4566V16.373H26.4657C26.3872 16.373 26.31 16.393 26.2414 16.4311C26.1729 16.4693 26.1151 16.5243 26.0738 16.591C26.0643 16.6067 25.1146 18.1292 23.7937 19.2291C23.7433 19.2708 23.7024 19.3228 23.6737 19.3815C23.645 19.4403 23.6291 19.5045 23.6271 19.5699C23.6252 19.6352 23.6372 19.7003 23.6623 19.7607C23.6875 19.821 23.7252 19.8754 23.7729 19.92L25.7955 21.8239L24.5041 23.0531L22.3057 21.0167C22.2601 20.9749 22.2067 20.9427 22.1485 20.9219C22.0903 20.9011 22.0285 20.8922 21.9668 20.8956C21.9051 20.8991 21.8447 20.9149 21.7892 20.942C21.7337 20.9692 21.6842 21.0072 21.6436 21.0538C21.6279 21.0714 20.0545 22.8345 16.3046 23.2271C16.1913 23.239 16.0865 23.2925 16.0103 23.3772C15.9341 23.4618 15.8919 23.5717 15.8919 23.6856V26.5335H14.1093V23.6856C14.1093 23.5716 14.067 23.4616 13.9907 23.377C13.9144 23.2923 13.8094 23.2389 13.696 23.2271C9.94674 22.8345 8.3733 21.0714 8.35697 21.0557C8.31679 21.0083 8.26739 20.9696 8.21178 20.942C8.15616 20.9143 8.0955 20.8983 8.03348 20.8949C7.97157 20.8913 7.90957 20.9003 7.85119 20.9212C7.79281 20.9422 7.73924 20.9747 7.69367 21.0167L5.49525 23.0531L4.20446 21.8232L6.22701 19.9194C6.2746 19.8746 6.31215 19.8203 6.33718 19.7599C6.3622 19.6996 6.37413 19.6346 6.37217 19.5693C6.37021 19.5039 6.35441 19.4398 6.32581 19.3811C6.29721 19.3223 6.25647 19.2703 6.20628 19.2285C4.88723 18.128 3.93562 16.6054 3.9262 16.5903C3.88482 16.5237 3.8271 16.4686 3.75851 16.4305C3.68992 16.3924 3.61273 16.3724 3.53425 16.3724H1.80441V14.4566C1.80441 14.3343 1.75583 14.2171 1.66937 14.1306C1.58291 14.0442 1.46564 13.9956 1.34337 13.9956C1.22109 13.9956 1.10382 14.0442 1.01736 14.1306C0.930898 14.2171 0.882324 14.3343 0.882324 14.4566V16.8334C0.882324 16.9557 0.930898 17.073 1.01736 17.1594C1.10382 17.2459 1.22109 17.2945 1.34337 17.2945H3.28363C3.84505 18.1293 4.49656 18.8998 5.22641 19.5921L3.21642 21.4834C3.17102 21.5265 3.13486 21.5784 3.11015 21.6359C3.08544 21.6934 3.07269 21.7553 3.07269 21.8179C3.07269 21.8805 3.08544 21.9424 3.11015 21.9999C3.13486 22.0574 3.17102 22.1093 3.21642 22.1524L5.17428 24.0166C5.25903 24.0966 5.37094 24.1415 5.48747 24.1423C5.60401 24.1432 5.71653 24.0998 5.8024 24.021L8.00082 21.9872C8.65847 22.5613 10.2897 23.7032 13.1866 24.092V26.992C13.1866 27.1143 13.2352 27.2316 13.3216 27.318C13.4081 27.4045 13.5254 27.4531 13.6476 27.4531H16.3486C16.4708 27.4531 16.5881 27.4045 16.6746 27.318C16.761 27.2316 16.8096 27.1143 16.8096 26.992V24.0945C19.7065 23.7057 21.3377 22.5638 21.9954 21.9897L24.1938 24.0235C24.2798 24.1032 24.393 24.1471 24.5103 24.1463C24.6276 24.1455 24.7401 24.1 24.8251 24.0191L26.7829 22.1549C26.8283 22.1117 26.8645 22.0598 26.8892 22.0023C26.9139 21.9447 26.9267 21.8827 26.9267 21.8201C26.9267 21.7574 26.9139 21.6955 26.8892 21.6379C26.8645 21.5804 26.8283 21.5284 26.7829 21.4853L24.7729 19.5947C25.5032 18.9016 26.155 18.1303 26.7163 17.2945H28.6566C28.7789 17.2945 28.8961 17.2459 28.9826 17.1594C29.0691 17.073 29.1176 16.9557 29.1176 16.8334V14.4566C29.1176 14.3343 29.0691 14.2171 28.9826 14.1306C28.8961 14.0442 28.7789 13.9956 28.6566 13.9956ZM3.9218 12.7814C3.98251 12.7817 4.04266 12.7699 4.09881 12.7469C4.15497 12.7238 4.20602 12.6899 4.24903 12.6471C4.29204 12.6042 4.32617 12.5533 4.34945 12.4972C4.37274 12.4412 4.38473 12.3811 4.38473 12.3204V10.4913C4.38622 9.49222 4.78377 8.5345 5.49021 7.82805C6.19666 7.1216 7.15439 6.72406 8.15346 6.72256H8.54792C9.09013 6.72372 9.62574 6.8415 10.1184 7.0679C10.6111 7.2943 11.0493 7.62403 11.4034 8.03471C10.5736 8.90472 10.1108 10.061 10.1113 11.2633V13.0923C10.109 13.1543 10.1192 13.216 10.1414 13.2739C10.1635 13.3318 10.1971 13.3847 10.2401 13.4293C10.2831 13.4739 10.3346 13.5094 10.3917 13.5337C10.4487 13.5579 10.5101 13.5704 10.572 13.5704C10.634 13.5704 10.6954 13.5579 10.7524 13.5337C10.8094 13.5094 10.861 13.4739 10.904 13.4293C10.947 13.3847 10.9806 13.3318 11.0027 13.2739C11.0248 13.216 11.0351 13.1543 11.0328 13.0923V11.2601C11.0342 10.3743 11.347 9.51709 11.9165 8.83858C12.4861 8.16007 13.276 7.70343 14.1482 7.54854L13.3317 12.1646C13.3175 12.2438 13.3243 12.3254 13.3515 12.4011C13.3788 12.4769 13.4254 12.5441 13.4868 12.5961L14.701 13.625C14.7844 13.6959 14.8902 13.7348 14.9997 13.7348C15.1091 13.7348 15.215 13.6959 15.2983 13.625L16.5106 12.5942C16.572 12.5422 16.6187 12.475 16.6459 12.3992C16.6731 12.3235 16.68 12.2419 16.6658 12.1627L15.8492 7.54666C16.7214 7.70155 17.5114 8.15819 18.0809 8.8367C18.6505 9.5152 18.9633 10.3724 18.9647 11.2582V13.0873C18.9624 13.1493 18.9726 13.211 18.9947 13.2689C19.0169 13.3268 19.0504 13.3796 19.0934 13.4243C19.1364 13.4689 19.188 13.5044 19.2451 13.5286C19.3021 13.5529 19.3634 13.5654 19.4254 13.5654C19.4874 13.5654 19.5487 13.5529 19.6058 13.5286C19.6628 13.5044 19.7144 13.4689 19.7574 13.4243C19.8004 13.3796 19.834 13.3268 19.8561 13.2689C19.8782 13.211 19.8884 13.1493 19.8861 13.0873V11.2601C19.8865 10.0593 19.4247 8.90433 18.5966 8.03471C18.9509 7.62421 19.3894 7.29474 19.8823 7.06867C20.3752 6.84259 20.911 6.7252 21.4533 6.72445H21.8465C22.8456 6.72594 23.8033 7.12348 24.5097 7.82993C25.2162 8.53638 25.6137 9.49411 25.6152 10.4932V12.3223C25.6129 12.3842 25.6232 12.446 25.6453 12.5039C25.6674 12.5617 25.701 12.6146 25.744 12.6592C25.787 12.7038 25.8386 12.7393 25.8956 12.7636C25.9526 12.7878 26.014 12.8003 26.076 12.8003C26.1379 12.8003 26.1993 12.7878 26.2563 12.7636C26.3133 12.7393 26.3649 12.7038 26.4079 12.6592C26.4509 12.6146 26.4845 12.5617 26.5066 12.5039C26.5287 12.446 26.539 12.3842 26.5367 12.3223V10.4913C26.5357 9.53799 26.2447 8.60755 25.7024 7.82356C25.1601 7.03956 24.392 6.43912 23.5003 6.10198C24.0184 5.71314 24.4009 5.17119 24.5939 4.55288C24.7868 3.93457 24.7803 3.27124 24.5754 2.6568C24.3704 2.04237 23.9774 1.50798 23.4519 1.12931C22.9264 0.750638 22.2951 0.546875 21.6474 0.546875C20.9997 0.546875 20.3684 0.750638 19.8429 1.12931C19.3174 1.50798 18.9243 2.04237 18.7194 2.6568C18.5144 3.27124 18.508 3.93457 18.7009 4.55288C18.8939 5.17119 19.2764 5.71314 19.7944 6.10198C19.0607 6.37884 18.4078 6.83463 17.895 7.42794C17.5709 7.19855 17.2191 7.01113 16.8479 6.87017C17.3659 6.48133 17.7485 5.93939 17.9414 5.32108C18.1344 4.70277 18.1279 4.03943 17.9229 3.42499C17.718 2.81056 17.3249 2.27617 16.7995 1.8975C16.274 1.51883 15.6427 1.31507 14.995 1.31507C14.3472 1.31507 13.7159 1.51883 13.1904 1.8975C12.665 2.27617 12.2719 2.81056 12.067 3.42499C11.862 4.03943 11.8555 4.70277 12.0485 5.32108C12.2414 5.93939 12.624 6.48133 13.142 6.87017C12.7708 7.01113 12.419 7.19855 12.0949 7.42794C11.5823 6.83445 10.9293 6.37863 10.1955 6.10198C10.7135 5.71314 11.0961 5.17119 11.289 4.55288C11.4819 3.93457 11.4755 3.27124 11.2705 2.6568C11.0656 2.04237 10.6725 1.50798 10.147 1.12931C9.62153 0.750638 8.99023 0.546875 8.34252 0.546875C7.69481 0.546875 7.06351 0.750638 6.53802 1.12931C6.01253 1.50798 5.61947 2.04237 5.41453 2.6568C5.20958 3.27124 5.20311 3.93457 5.39605 4.55288C5.58899 5.17119 5.97155 5.71314 6.48956 6.10198C5.59787 6.43912 4.82985 7.03956 4.28752 7.82356C3.74518 8.60755 3.4542 9.53799 3.45322 10.4913V12.3204C3.45322 12.3816 3.46539 12.4421 3.48903 12.4986C3.51267 12.555 3.5473 12.6062 3.59091 12.6491C3.63453 12.692 3.68625 12.7258 3.74306 12.7485C3.79986 12.7712 3.86063 12.7824 3.9218 12.7814ZM21.6505 1.47021C22.0785 1.47034 22.4968 1.59731 22.8526 1.83509C23.2084 2.07286 23.4857 2.41077 23.6495 2.80611C23.8133 3.20145 23.8563 3.63648 23.773 4.05622C23.6896 4.47597 23.4837 4.86159 23.1813 5.16437C22.8789 5.46714 22.4935 5.67348 22.0739 5.7573C21.6542 5.84112 21.2191 5.79866 20.8236 5.6353C20.4281 5.47194 20.0898 5.195 19.8517 4.83947C19.6135 4.48395 19.486 4.0658 19.4854 3.63786C19.4852 3.35336 19.5411 3.07162 19.6498 2.80872C19.7585 2.54582 19.918 2.30691 20.119 2.10562C20.3201 1.90434 20.5588 1.74462 20.8216 1.6356C21.0844 1.52658 21.366 1.47038 21.6505 1.47021ZM15 12.6709L14.2877 12.0647L15 8.02654L15.7123 12.0647L15 12.6709ZM15 2.23903C15.4282 2.23891 15.8469 2.36579 16.203 2.60362C16.5592 2.84145 16.8368 3.17956 17.0007 3.57517C17.1647 3.97079 17.2077 4.40614 17.1242 4.82618C17.0407 5.24622 16.8346 5.63206 16.5318 5.93493C16.229 6.23779 15.8432 6.44406 15.4232 6.52765C15.0032 6.61125 14.5679 6.56841 14.1722 6.40455C13.7765 6.24069 13.4383 5.96318 13.2004 5.60712C12.9625 5.25105 12.8355 4.83242 12.8355 4.40417C12.836 3.8302 13.0642 3.27987 13.47 2.87396C13.8758 2.46804 14.426 2.2397 15 2.23903ZM8.34943 1.47021C8.77739 1.47021 9.19576 1.59708 9.55164 1.83478C9.90752 2.07248 10.185 2.41035 10.3489 2.80567C10.5128 3.201 10.5558 3.63605 10.4726 4.05584C10.3893 4.47563 10.1835 4.86131 9.88107 5.16415C9.57868 5.46698 9.19329 5.67338 8.77363 5.75725C8.35396 5.84112 7.91885 5.79871 7.52328 5.63536C7.12772 5.47202 6.78945 5.19508 6.55123 4.83954C6.31302 4.484 6.18555 4.06582 6.18492 3.63786C6.18476 3.06346 6.41265 2.51249 6.81852 2.10603C7.22439 1.69957 7.77503 1.47088 8.34943 1.47021Z"/>
</mask>
<path d="M28.6566 13.9956C28.5343 13.9956 28.417 14.0442 28.3306 14.1306C28.2441 14.2171 28.1955 14.3343 28.1955 14.4566V16.373H26.4657C26.3872 16.373 26.31 16.393 26.2414 16.4311C26.1729 16.4693 26.1151 16.5243 26.0738 16.591C26.0643 16.6067 25.1146 18.1292 23.7937 19.2291C23.7433 19.2708 23.7024 19.3228 23.6737 19.3815C23.645 19.4403 23.6291 19.5045 23.6271 19.5699C23.6252 19.6352 23.6372 19.7003 23.6623 19.7607C23.6875 19.821 23.7252 19.8754 23.7729 19.92L25.7955 21.8239L24.5041 23.0531L22.3057 21.0167C22.2601 20.9749 22.2067 20.9427 22.1485 20.9219C22.0903 20.9011 22.0285 20.8922 21.9668 20.8956C21.9051 20.8991 21.8447 20.9149 21.7892 20.942C21.7337 20.9692 21.6842 21.0072 21.6436 21.0538C21.6279 21.0714 20.0545 22.8345 16.3046 23.2271C16.1913 23.239 16.0865 23.2925 16.0103 23.3772C15.9341 23.4618 15.8919 23.5717 15.8919 23.6856V26.5335H14.1093V23.6856C14.1093 23.5716 14.067 23.4616 13.9907 23.377C13.9144 23.2923 13.8094 23.2389 13.696 23.2271C9.94674 22.8345 8.3733 21.0714 8.35697 21.0557C8.31679 21.0083 8.26739 20.9696 8.21178 20.942C8.15616 20.9143 8.0955 20.8983 8.03348 20.8949C7.97157 20.8913 7.90957 20.9003 7.85119 20.9212C7.79281 20.9422 7.73924 20.9747 7.69367 21.0167L5.49525 23.0531L4.20446 21.8232L6.22701 19.9194C6.2746 19.8746 6.31215 19.8203 6.33718 19.7599C6.3622 19.6996 6.37413 19.6346 6.37217 19.5693C6.37021 19.5039 6.35441 19.4398 6.32581 19.3811C6.29721 19.3223 6.25647 19.2703 6.20628 19.2285C4.88723 18.128 3.93562 16.6054 3.9262 16.5903C3.88482 16.5237 3.8271 16.4686 3.75851 16.4305C3.68992 16.3924 3.61273 16.3724 3.53425 16.3724H1.80441V14.4566C1.80441 14.3343 1.75583 14.2171 1.66937 14.1306C1.58291 14.0442 1.46564 13.9956 1.34337 13.9956C1.22109 13.9956 1.10382 14.0442 1.01736 14.1306C0.930898 14.2171 0.882324 14.3343 0.882324 14.4566V16.8334C0.882324 16.9557 0.930898 17.073 1.01736 17.1594C1.10382 17.2459 1.22109 17.2945 1.34337 17.2945H3.28363C3.84505 18.1293 4.49656 18.8998 5.22641 19.5921L3.21642 21.4834C3.17102 21.5265 3.13486 21.5784 3.11015 21.6359C3.08544 21.6934 3.07269 21.7553 3.07269 21.8179C3.07269 21.8805 3.08544 21.9424 3.11015 21.9999C3.13486 22.0574 3.17102 22.1093 3.21642 22.1524L5.17428 24.0166C5.25903 24.0966 5.37094 24.1415 5.48747 24.1423C5.60401 24.1432 5.71653 24.0998 5.8024 24.021L8.00082 21.9872C8.65847 22.5613 10.2897 23.7032 13.1866 24.092V26.992C13.1866 27.1143 13.2352 27.2316 13.3216 27.318C13.4081 27.4045 13.5254 27.4531 13.6476 27.4531H16.3486C16.4708 27.4531 16.5881 27.4045 16.6746 27.318C16.761 27.2316 16.8096 27.1143 16.8096 26.992V24.0945C19.7065 23.7057 21.3377 22.5638 21.9954 21.9897L24.1938 24.0235C24.2798 24.1032 24.393 24.1471 24.5103 24.1463C24.6276 24.1455 24.7401 24.1 24.8251 24.0191L26.7829 22.1549C26.8283 22.1117 26.8645 22.0598 26.8892 22.0023C26.9139 21.9447 26.9267 21.8827 26.9267 21.8201C26.9267 21.7574 26.9139 21.6955 26.8892 21.6379C26.8645 21.5804 26.8283 21.5284 26.7829 21.4853L24.7729 19.5947C25.5032 18.9016 26.155 18.1303 26.7163 17.2945H28.6566C28.7789 17.2945 28.8961 17.2459 28.9826 17.1594C29.0691 17.073 29.1176 16.9557 29.1176 16.8334V14.4566C29.1176 14.3343 29.0691 14.2171 28.9826 14.1306C28.8961 14.0442 28.7789 13.9956 28.6566 13.9956ZM3.9218 12.7814C3.98251 12.7817 4.04266 12.7699 4.09881 12.7469C4.15497 12.7238 4.20602 12.6899 4.24903 12.6471C4.29204 12.6042 4.32617 12.5533 4.34945 12.4972C4.37274 12.4412 4.38473 12.3811 4.38473 12.3204V10.4913C4.38622 9.49222 4.78377 8.5345 5.49021 7.82805C6.19666 7.1216 7.15439 6.72406 8.15346 6.72256H8.54792C9.09013 6.72372 9.62574 6.8415 10.1184 7.0679C10.6111 7.2943 11.0493 7.62403 11.4034 8.03471C10.5736 8.90472 10.1108 10.061 10.1113 11.2633V13.0923C10.109 13.1543 10.1192 13.216 10.1414 13.2739C10.1635 13.3318 10.1971 13.3847 10.2401 13.4293C10.2831 13.4739 10.3346 13.5094 10.3917 13.5337C10.4487 13.5579 10.5101 13.5704 10.572 13.5704C10.634 13.5704 10.6954 13.5579 10.7524 13.5337C10.8094 13.5094 10.861 13.4739 10.904 13.4293C10.947 13.3847 10.9806 13.3318 11.0027 13.2739C11.0248 13.216 11.0351 13.1543 11.0328 13.0923V11.2601C11.0342 10.3743 11.347 9.51709 11.9165 8.83858C12.4861 8.16007 13.276 7.70343 14.1482 7.54854L13.3317 12.1646C13.3175 12.2438 13.3243 12.3254 13.3515 12.4011C13.3788 12.4769 13.4254 12.5441 13.4868 12.5961L14.701 13.625C14.7844 13.6959 14.8902 13.7348 14.9997 13.7348C15.1091 13.7348 15.215 13.6959 15.2983 13.625L16.5106 12.5942C16.572 12.5422 16.6187 12.475 16.6459 12.3992C16.6731 12.3235 16.68 12.2419 16.6658 12.1627L15.8492 7.54666C16.7214 7.70155 17.5114 8.15819 18.0809 8.8367C18.6505 9.5152 18.9633 10.3724 18.9647 11.2582V13.0873C18.9624 13.1493 18.9726 13.211 18.9947 13.2689C19.0169 13.3268 19.0504 13.3796 19.0934 13.4243C19.1364 13.4689 19.188 13.5044 19.2451 13.5286C19.3021 13.5529 19.3634 13.5654 19.4254 13.5654C19.4874 13.5654 19.5487 13.5529 19.6058 13.5286C19.6628 13.5044 19.7144 13.4689 19.7574 13.4243C19.8004 13.3796 19.834 13.3268 19.8561 13.2689C19.8782 13.211 19.8884 13.1493 19.8861 13.0873V11.2601C19.8865 10.0593 19.4247 8.90433 18.5966 8.03471C18.9509 7.62421 19.3894 7.29474 19.8823 7.06867C20.3752 6.84259 20.911 6.7252 21.4533 6.72445H21.8465C22.8456 6.72594 23.8033 7.12348 24.5097 7.82993C25.2162 8.53638 25.6137 9.49411 25.6152 10.4932V12.3223C25.6129 12.3842 25.6232 12.446 25.6453 12.5039C25.6674 12.5617 25.701 12.6146 25.744 12.6592C25.787 12.7038 25.8386 12.7393 25.8956 12.7636C25.9526 12.7878 26.014 12.8003 26.076 12.8003C26.1379 12.8003 26.1993 12.7878 26.2563 12.7636C26.3133 12.7393 26.3649 12.7038 26.4079 12.6592C26.4509 12.6146 26.4845 12.5617 26.5066 12.5039C26.5287 12.446 26.539 12.3842 26.5367 12.3223V10.4913C26.5357 9.53799 26.2447 8.60755 25.7024 7.82356C25.1601 7.03956 24.392 6.43912 23.5003 6.10198C24.0184 5.71314 24.4009 5.17119 24.5939 4.55288C24.7868 3.93457 24.7803 3.27124 24.5754 2.6568C24.3704 2.04237 23.9774 1.50798 23.4519 1.12931C22.9264 0.750638 22.2951 0.546875 21.6474 0.546875C20.9997 0.546875 20.3684 0.750638 19.8429 1.12931C19.3174 1.50798 18.9243 2.04237 18.7194 2.6568C18.5144 3.27124 18.508 3.93457 18.7009 4.55288C18.8939 5.17119 19.2764 5.71314 19.7944 6.10198C19.0607 6.37884 18.4078 6.83463 17.895 7.42794C17.5709 7.19855 17.2191 7.01113 16.8479 6.87017C17.3659 6.48133 17.7485 5.93939 17.9414 5.32108C18.1344 4.70277 18.1279 4.03943 17.9229 3.42499C17.718 2.81056 17.3249 2.27617 16.7995 1.8975C16.274 1.51883 15.6427 1.31507 14.995 1.31507C14.3472 1.31507 13.7159 1.51883 13.1904 1.8975C12.665 2.27617 12.2719 2.81056 12.067 3.42499C11.862 4.03943 11.8555 4.70277 12.0485 5.32108C12.2414 5.93939 12.624 6.48133 13.142 6.87017C12.7708 7.01113 12.419 7.19855 12.0949 7.42794C11.5823 6.83445 10.9293 6.37863 10.1955 6.10198C10.7135 5.71314 11.0961 5.17119 11.289 4.55288C11.4819 3.93457 11.4755 3.27124 11.2705 2.6568C11.0656 2.04237 10.6725 1.50798 10.147 1.12931C9.62153 0.750638 8.99023 0.546875 8.34252 0.546875C7.69481 0.546875 7.06351 0.750638 6.53802 1.12931C6.01253 1.50798 5.61947 2.04237 5.41453 2.6568C5.20958 3.27124 5.20311 3.93457 5.39605 4.55288C5.58899 5.17119 5.97155 5.71314 6.48956 6.10198C5.59787 6.43912 4.82985 7.03956 4.28752 7.82356C3.74518 8.60755 3.4542 9.53799 3.45322 10.4913V12.3204C3.45322 12.3816 3.46539 12.4421 3.48903 12.4986C3.51267 12.555 3.5473 12.6062 3.59091 12.6491C3.63453 12.692 3.68625 12.7258 3.74306 12.7485C3.79986 12.7712 3.86063 12.7824 3.9218 12.7814ZM21.6505 1.47021C22.0785 1.47034 22.4968 1.59731 22.8526 1.83509C23.2084 2.07286 23.4857 2.41077 23.6495 2.80611C23.8133 3.20145 23.8563 3.63648 23.773 4.05622C23.6896 4.47597 23.4837 4.86159 23.1813 5.16437C22.8789 5.46714 22.4935 5.67348 22.0739 5.7573C21.6542 5.84112 21.2191 5.79866 20.8236 5.6353C20.4281 5.47194 20.0898 5.195 19.8517 4.83947C19.6135 4.48395 19.486 4.0658 19.4854 3.63786C19.4852 3.35336 19.5411 3.07162 19.6498 2.80872C19.7585 2.54582 19.918 2.30691 20.119 2.10562C20.3201 1.90434 20.5588 1.74462 20.8216 1.6356C21.0844 1.52658 21.366 1.47038 21.6505 1.47021ZM15 12.6709L14.2877 12.0647L15 8.02654L15.7123 12.0647L15 12.6709ZM15 2.23903C15.4282 2.23891 15.8469 2.36579 16.203 2.60362C16.5592 2.84145 16.8368 3.17956 17.0007 3.57517C17.1647 3.97079 17.2077 4.40614 17.1242 4.82618C17.0407 5.24622 16.8346 5.63206 16.5318 5.93493C16.229 6.23779 15.8432 6.44406 15.4232 6.52765C15.0032 6.61125 14.5679 6.56841 14.1722 6.40455C13.7765 6.24069 13.4383 5.96318 13.2004 5.60712C12.9625 5.25105 12.8355 4.83242 12.8355 4.40417C12.836 3.8302 13.0642 3.27987 13.47 2.87396C13.8758 2.46804 14.426 2.2397 15 2.23903ZM8.34943 1.47021C8.77739 1.47021 9.19576 1.59708 9.55164 1.83478C9.90752 2.07248 10.185 2.41035 10.3489 2.80567C10.5128 3.201 10.5558 3.63605 10.4726 4.05584C10.3893 4.47563 10.1835 4.86131 9.88107 5.16415C9.57868 5.46698 9.19329 5.67338 8.77363 5.75725C8.35396 5.84112 7.91885 5.79871 7.52328 5.63536C7.12772 5.47202 6.78945 5.19508 6.55123 4.83954C6.31302 4.484 6.18555 4.06582 6.18492 3.63786C6.18476 3.06346 6.41265 2.51249 6.81852 2.10603C7.22439 1.69957 7.77503 1.47088 8.34943 1.47021Z" fill="#4B4B4B"/>
<path d="M28.6566 13.9956C28.5343 13.9956 28.417 14.0442 28.3306 14.1306C28.2441 14.2171 28.1955 14.3343 28.1955 14.4566V16.373H26.4657C26.3872 16.373 26.31 16.393 26.2414 16.4311C26.1729 16.4693 26.1151 16.5243 26.0738 16.591C26.0643 16.6067 25.1146 18.1292 23.7937 19.2291C23.7433 19.2708 23.7024 19.3228 23.6737 19.3815C23.645 19.4403 23.6291 19.5045 23.6271 19.5699C23.6252 19.6352 23.6372 19.7003 23.6623 19.7607C23.6875 19.821 23.7252 19.8754 23.7729 19.92L25.7955 21.8239L24.5041 23.0531L22.3057 21.0167C22.2601 20.9749 22.2067 20.9427 22.1485 20.9219C22.0903 20.9011 22.0285 20.8922 21.9668 20.8956C21.9051 20.8991 21.8447 20.9149 21.7892 20.942C21.7337 20.9692 21.6842 21.0072 21.6436 21.0538C21.6279 21.0714 20.0545 22.8345 16.3046 23.2271C16.1913 23.239 16.0865 23.2925 16.0103 23.3772C15.9341 23.4618 15.8919 23.5717 15.8919 23.6856V26.5335H14.1093V23.6856C14.1093 23.5716 14.067 23.4616 13.9907 23.377C13.9144 23.2923 13.8094 23.2389 13.696 23.2271C9.94674 22.8345 8.3733 21.0714 8.35697 21.0557C8.31679 21.0083 8.26739 20.9696 8.21178 20.942C8.15616 20.9143 8.0955 20.8983 8.03348 20.8949C7.97157 20.8913 7.90957 20.9003 7.85119 20.9212C7.79281 20.9422 7.73924 20.9747 7.69367 21.0167L5.49525 23.0531L4.20446 21.8232L6.22701 19.9194C6.2746 19.8746 6.31215 19.8203 6.33718 19.7599C6.3622 19.6996 6.37413 19.6346 6.37217 19.5693C6.37021 19.5039 6.35441 19.4398 6.32581 19.3811C6.29721 19.3223 6.25647 19.2703 6.20628 19.2285C4.88723 18.128 3.93562 16.6054 3.9262 16.5903C3.88482 16.5237 3.8271 16.4686 3.75851 16.4305C3.68992 16.3924 3.61273 16.3724 3.53425 16.3724H1.80441V14.4566C1.80441 14.3343 1.75583 14.2171 1.66937 14.1306C1.58291 14.0442 1.46564 13.9956 1.34337 13.9956C1.22109 13.9956 1.10382 14.0442 1.01736 14.1306C0.930898 14.2171 0.882324 14.3343 0.882324 14.4566V16.8334C0.882324 16.9557 0.930898 17.073 1.01736 17.1594C1.10382 17.2459 1.22109 17.2945 1.34337 17.2945H3.28363C3.84505 18.1293 4.49656 18.8998 5.22641 19.5921L3.21642 21.4834C3.17102 21.5265 3.13486 21.5784 3.11015 21.6359C3.08544 21.6934 3.07269 21.7553 3.07269 21.8179C3.07269 21.8805 3.08544 21.9424 3.11015 21.9999C3.13486 22.0574 3.17102 22.1093 3.21642 22.1524L5.17428 24.0166C5.25903 24.0966 5.37094 24.1415 5.48747 24.1423C5.60401 24.1432 5.71653 24.0998 5.8024 24.021L8.00082 21.9872C8.65847 22.5613 10.2897 23.7032 13.1866 24.092V26.992C13.1866 27.1143 13.2352 27.2316 13.3216 27.318C13.4081 27.4045 13.5254 27.4531 13.6476 27.4531H16.3486C16.4708 27.4531 16.5881 27.4045 16.6746 27.318C16.761 27.2316 16.8096 27.1143 16.8096 26.992V24.0945C19.7065 23.7057 21.3377 22.5638 21.9954 21.9897L24.1938 24.0235C24.2798 24.1032 24.393 24.1471 24.5103 24.1463C24.6276 24.1455 24.7401 24.1 24.8251 24.0191L26.7829 22.1549C26.8283 22.1117 26.8645 22.0598 26.8892 22.0023C26.9139 21.9447 26.9267 21.8827 26.9267 21.8201C26.9267 21.7574 26.9139 21.6955 26.8892 21.6379C26.8645 21.5804 26.8283 21.5284 26.7829 21.4853L24.7729 19.5947C25.5032 18.9016 26.155 18.1303 26.7163 17.2945H28.6566C28.7789 17.2945 28.8961 17.2459 28.9826 17.1594C29.0691 17.073 29.1176 16.9557 29.1176 16.8334V14.4566C29.1176 14.3343 29.0691 14.2171 28.9826 14.1306C28.8961 14.0442 28.7789 13.9956 28.6566 13.9956ZM3.9218 12.7814C3.98251 12.7817 4.04266 12.7699 4.09881 12.7469C4.15497 12.7238 4.20602 12.6899 4.24903 12.6471C4.29204 12.6042 4.32617 12.5533 4.34945 12.4972C4.37274 12.4412 4.38473 12.3811 4.38473 12.3204V10.4913C4.38622 9.49222 4.78377 8.5345 5.49021 7.82805C6.19666 7.1216 7.15439 6.72406 8.15346 6.72256H8.54792C9.09013 6.72372 9.62574 6.8415 10.1184 7.0679C10.6111 7.2943 11.0493 7.62403 11.4034 8.03471C10.5736 8.90472 10.1108 10.061 10.1113 11.2633V13.0923C10.109 13.1543 10.1192 13.216 10.1414 13.2739C10.1635 13.3318 10.1971 13.3847 10.2401 13.4293C10.2831 13.4739 10.3346 13.5094 10.3917 13.5337C10.4487 13.5579 10.5101 13.5704 10.572 13.5704C10.634 13.5704 10.6954 13.5579 10.7524 13.5337C10.8094 13.5094 10.861 13.4739 10.904 13.4293C10.947 13.3847 10.9806 13.3318 11.0027 13.2739C11.0248 13.216 11.0351 13.1543 11.0328 13.0923V11.2601C11.0342 10.3743 11.347 9.51709 11.9165 8.83858C12.4861 8.16007 13.276 7.70343 14.1482 7.54854L13.3317 12.1646C13.3175 12.2438 13.3243 12.3254 13.3515 12.4011C13.3788 12.4769 13.4254 12.5441 13.4868 12.5961L14.701 13.625C14.7844 13.6959 14.8902 13.7348 14.9997 13.7348C15.1091 13.7348 15.215 13.6959 15.2983 13.625L16.5106 12.5942C16.572 12.5422 16.6187 12.475 16.6459 12.3992C16.6731 12.3235 16.68 12.2419 16.6658 12.1627L15.8492 7.54666C16.7214 7.70155 17.5114 8.15819 18.0809 8.8367C18.6505 9.5152 18.9633 10.3724 18.9647 11.2582V13.0873C18.9624 13.1493 18.9726 13.211 18.9947 13.2689C19.0169 13.3268 19.0504 13.3796 19.0934 13.4243C19.1364 13.4689 19.188 13.5044 19.2451 13.5286C19.3021 13.5529 19.3634 13.5654 19.4254 13.5654C19.4874 13.5654 19.5487 13.5529 19.6058 13.5286C19.6628 13.5044 19.7144 13.4689 19.7574 13.4243C19.8004 13.3796 19.834 13.3268 19.8561 13.2689C19.8782 13.211 19.8884 13.1493 19.8861 13.0873V11.2601C19.8865 10.0593 19.4247 8.90433 18.5966 8.03471C18.9509 7.62421 19.3894 7.29474 19.8823 7.06867C20.3752 6.84259 20.911 6.7252 21.4533 6.72445H21.8465C22.8456 6.72594 23.8033 7.12348 24.5097 7.82993C25.2162 8.53638 25.6137 9.49411 25.6152 10.4932V12.3223C25.6129 12.3842 25.6232 12.446 25.6453 12.5039C25.6674 12.5617 25.701 12.6146 25.744 12.6592C25.787 12.7038 25.8386 12.7393 25.8956 12.7636C25.9526 12.7878 26.014 12.8003 26.076 12.8003C26.1379 12.8003 26.1993 12.7878 26.2563 12.7636C26.3133 12.7393 26.3649 12.7038 26.4079 12.6592C26.4509 12.6146 26.4845 12.5617 26.5066 12.5039C26.5287 12.446 26.539 12.3842 26.5367 12.3223V10.4913C26.5357 9.53799 26.2447 8.60755 25.7024 7.82356C25.1601 7.03956 24.392 6.43912 23.5003 6.10198C24.0184 5.71314 24.4009 5.17119 24.5939 4.55288C24.7868 3.93457 24.7803 3.27124 24.5754 2.6568C24.3704 2.04237 23.9774 1.50798 23.4519 1.12931C22.9264 0.750638 22.2951 0.546875 21.6474 0.546875C20.9997 0.546875 20.3684 0.750638 19.8429 1.12931C19.3174 1.50798 18.9243 2.04237 18.7194 2.6568C18.5144 3.27124 18.508 3.93457 18.7009 4.55288C18.8939 5.17119 19.2764 5.71314 19.7944 6.10198C19.0607 6.37884 18.4078 6.83463 17.895 7.42794C17.5709 7.19855 17.2191 7.01113 16.8479 6.87017C17.3659 6.48133 17.7485 5.93939 17.9414 5.32108C18.1344 4.70277 18.1279 4.03943 17.9229 3.42499C17.718 2.81056 17.3249 2.27617 16.7995 1.8975C16.274 1.51883 15.6427 1.31507 14.995 1.31507C14.3472 1.31507 13.7159 1.51883 13.1904 1.8975C12.665 2.27617 12.2719 2.81056 12.067 3.42499C11.862 4.03943 11.8555 4.70277 12.0485 5.32108C12.2414 5.93939 12.624 6.48133 13.142 6.87017C12.7708 7.01113 12.419 7.19855 12.0949 7.42794C11.5823 6.83445 10.9293 6.37863 10.1955 6.10198C10.7135 5.71314 11.0961 5.17119 11.289 4.55288C11.4819 3.93457 11.4755 3.27124 11.2705 2.6568C11.0656 2.04237 10.6725 1.50798 10.147 1.12931C9.62153 0.750638 8.99023 0.546875 8.34252 0.546875C7.69481 0.546875 7.06351 0.750638 6.53802 1.12931C6.01253 1.50798 5.61947 2.04237 5.41453 2.6568C5.20958 3.27124 5.20311 3.93457 5.39605 4.55288C5.58899 5.17119 5.97155 5.71314 6.48956 6.10198C5.59787 6.43912 4.82985 7.03956 4.28752 7.82356C3.74518 8.60755 3.4542 9.53799 3.45322 10.4913V12.3204C3.45322 12.3816 3.46539 12.4421 3.48903 12.4986C3.51267 12.555 3.5473 12.6062 3.59091 12.6491C3.63453 12.692 3.68625 12.7258 3.74306 12.7485C3.79986 12.7712 3.86063 12.7824 3.9218 12.7814ZM21.6505 1.47021C22.0785 1.47034 22.4968 1.59731 22.8526 1.83509C23.2084 2.07286 23.4857 2.41077 23.6495 2.80611C23.8133 3.20145 23.8563 3.63648 23.773 4.05622C23.6896 4.47597 23.4837 4.86159 23.1813 5.16437C22.8789 5.46714 22.4935 5.67348 22.0739 5.7573C21.6542 5.84112 21.2191 5.79866 20.8236 5.6353C20.4281 5.47194 20.0898 5.195 19.8517 4.83947C19.6135 4.48395 19.486 4.0658 19.4854 3.63786C19.4852 3.35336 19.5411 3.07162 19.6498 2.80872C19.7585 2.54582 19.918 2.30691 20.119 2.10562C20.3201 1.90434 20.5588 1.74462 20.8216 1.6356C21.0844 1.52658 21.366 1.47038 21.6505 1.47021ZM15 12.6709L14.2877 12.0647L15 8.02654L15.7123 12.0647L15 12.6709ZM15 2.23903C15.4282 2.23891 15.8469 2.36579 16.203 2.60362C16.5592 2.84145 16.8368 3.17956 17.0007 3.57517C17.1647 3.97079 17.2077 4.40614 17.1242 4.82618C17.0407 5.24622 16.8346 5.63206 16.5318 5.93493C16.229 6.23779 15.8432 6.44406 15.4232 6.52765C15.0032 6.61125 14.5679 6.56841 14.1722 6.40455C13.7765 6.24069 13.4383 5.96318 13.2004 5.60712C12.9625 5.25105 12.8355 4.83242 12.8355 4.40417C12.836 3.8302 13.0642 3.27987 13.47 2.87396C13.8758 2.46804 14.426 2.2397 15 2.23903ZM8.34943 1.47021C8.77739 1.47021 9.19576 1.59708 9.55164 1.83478C9.90752 2.07248 10.185 2.41035 10.3489 2.80567C10.5128 3.201 10.5558 3.63605 10.4726 4.05584C10.3893 4.47563 10.1835 4.86131 9.88107 5.16415C9.57868 5.46698 9.19329 5.67338 8.77363 5.75725C8.35396 5.84112 7.91885 5.79871 7.52328 5.63536C7.12772 5.47202 6.78945 5.19508 6.55123 4.83954C6.31302 4.484 6.18555 4.06582 6.18492 3.63786C6.18476 3.06346 6.41265 2.51249 6.81852 2.10603C7.22439 1.69957 7.77503 1.47088 8.34943 1.47021Z" stroke="#4B4B4B" mask="url(#path-2-outside-1_1329_16)"/>
</svg>
