<svg width="32" height="32" viewBox="0 0 32 32" fill="none" xmlns="http://www.w3.org/2000/svg">
<path d="M9 4C7.67392 4 6.40215 4.52678 5.46447 5.46447C4.52678 6.40215 4 7.67392 4 9V21C4 22.3261 4.52678 23.5979 5.46447 24.5355C6.40215 25.4732 7.67392 26 9 26H10V24H9C8.20435 24 7.44129 23.6839 6.87868 23.1213C6.31607 22.5587 6 21.7956 6 21V9C6 8.20435 6.31607 7.44129 6.87868 6.87868C7.44129 6.31607 8.20435 6 9 6H21C21.7956 6 22.5587 6.31607 23.1213 6.87868C23.6839 7.44129 24 8.20435 24 9V14H26V9C26 7.67392 25.4732 6.40215 24.5355 5.46447C23.5979 4.52678 22.3261 4 21 4H9ZM15 16C14.2044 16 13.4413 16.3161 12.8787 16.8787C12.3161 17.4413 12 18.2044 12 19V27C12 27.7956 12.3161 28.5587 12.8787 29.1213C13.4413 29.6839 14.2044 30 15 30H27C27.7956 30 28.5587 29.6839 29.1213 29.1213C29.6839 28.5587 30 27.7956 30 27V19C30 18.2044 29.6839 17.4413 29.1213 16.8787C28.5587 16.3161 27.7956 16 27 16H15ZM14 19C14 18.7348 14.1054 18.4804 14.2929 18.2929C14.4804 18.1054 14.7348 18 15 18H27C27.2652 18 27.5196 18.1054 27.7071 18.2929C27.8946 18.4804 28 18.7348 28 19V19.968L21 23.856L14 19.968V19ZM14 22.254L20.514 25.874C20.6626 25.9567 20.8299 26 21 26C21.1701 26 21.3374 25.9567 21.486 25.874L28 22.254V27C28 27.2652 27.8946 27.5196 27.7071 27.7071C27.5196 27.8946 27.2652 28 27 28H15C14.7348 28 14.4804 27.8946 14.2929 27.7071C14.1054 27.5196 14 27.2652 14 27V22.254ZM10 10C9.73478 10 9.48043 10.1054 9.29289 10.2929C9.10536 10.4804 9 10.7348 9 11C9 11.2652 9.10536 11.5196 9.29289 11.7071C9.48043 11.8946 9.73478 12 10 12H20C20.2652 12 20.5196 11.8946 20.7071 11.7071C20.8946 11.5196 21 11.2652 21 11C21 10.7348 20.8946 10.4804 20.7071 10.2929C20.5196 10.1054 20.2652 10 20 10H10Z" fill="#4B4B4B"/>
</svg>
