<svg width="64" height="64" viewBox="0 0 64 64" fill="none" xmlns="http://www.w3.org/2000/svg">
<path d="M32 4C16.5375 4 4 16.5375 4 32C4 47.4625 16.5375 60 32 60C47.4625 60 60 47.4625 60 32C60 16.5375 47.4625 4 32 4ZM45.4562 25.1063C45.475 25.4 45.475 25.7063 45.475 26.0063C45.475 35.1813 38.4875 45.75 25.7188 45.75C21.7812 45.75 18.1312 44.6063 15.0562 42.6375C15.6187 42.7 16.1563 42.725 16.7313 42.725C19.9813 42.725 22.9688 41.625 25.35 39.7625C22.3 39.7 19.7375 37.7 18.8625 34.95C19.9312 35.1063 20.8937 35.1063 21.9937 34.825C20.4233 34.5059 19.0117 33.653 17.9989 32.4111C16.986 31.1693 16.4343 29.615 16.4375 28.0125V27.925C17.3562 28.4437 18.4375 28.7625 19.5688 28.8062C18.6178 28.1725 17.8379 27.3138 17.2982 26.3064C16.7585 25.2991 16.4758 24.1741 16.475 23.0312C16.475 21.7375 16.8125 20.5562 17.4188 19.5312C19.1619 21.6771 21.3371 23.4321 23.8029 24.6823C26.2687 25.9324 28.97 26.6497 31.7313 26.7875C30.75 22.0688 34.275 18.25 38.5125 18.25C40.5125 18.25 42.3125 19.0875 43.5812 20.4375C45.15 20.1437 46.65 19.5562 47.9875 18.7687C47.4688 20.375 46.3812 21.7312 44.9375 22.5875C46.3375 22.4375 47.6875 22.05 48.9375 21.5063C47.9938 22.8938 46.8125 24.125 45.4562 25.1063Z" fill="#292929"/>
</svg>
