<svg width="58" height="58" viewBox="0 0 58 58" fill="none" xmlns="http://www.w3.org/2000/svg">
<path d="M38.4377 38.545L28.9981 29.1055L19.5586 38.545" stroke="#292929" stroke-width="2.65487" stroke-linejoin="round"/>
<path d="M28.9993 29.1055V50.3444" stroke="#292929" stroke-width="2.65487" stroke-linejoin="round"/>
<path d="M48.7985 44.1839C51.1002 42.9291 52.9185 40.9435 53.9664 38.5405C55.0143 36.1375 55.2321 33.454 54.5854 30.9135C53.9388 28.373 52.4646 26.1202 50.3954 24.5106C48.3262 22.901 45.7799 22.0263 43.1584 22.0246H40.185C39.4707 19.2617 38.1393 16.6968 36.291 14.5225C34.4427 12.3482 32.1256 10.6213 29.5138 9.47145C26.902 8.32161 24.0635 7.77883 21.2118 7.8839C18.36 7.98897 15.5692 8.73916 13.0491 10.0781C10.529 11.417 8.34522 13.3098 6.66194 15.6142C4.97866 17.9185 3.83968 20.5745 3.33063 23.3824C2.82158 26.1904 2.95571 29.0772 3.72292 31.8258C4.49014 34.5744 5.87048 37.1134 7.76018 39.2517" stroke="#292929" stroke-width="2.65487" stroke-linejoin="round"/>
<path d="M38.4377 38.545L28.9981 29.1055L19.5586 38.545" stroke="#292929" stroke-width="2.65487" stroke-linejoin="round"/>
</svg>
