<svg width="23" height="23" viewBox="0 0 23 23" fill="none" xmlns="http://www.w3.org/2000/svg">
<path d="M13.3333 5.00113L16.0085 2.32596C16.2273 2.10724 16.524 1.98438 16.8333 1.98438C17.1427 1.98438 17.4394 2.10724 17.6582 2.32596L20.6752 5.34296C20.8939 5.56174 21.0168 5.85843 21.0168 6.16779C21.0168 6.47715 20.8939 6.77384 20.6752 6.99263L18 9.66779M13.3333 5.00113L2.00851 16.326C1.7897 16.5447 1.66674 16.8414 1.66667 17.1508V20.1678C1.66667 20.4772 1.78959 20.774 2.00838 20.9928C2.22717 21.2115 2.52392 21.3345 2.83334 21.3345H5.85034C6.15973 21.3344 6.45643 21.2114 6.67517 20.9926L18 9.66779M13.3333 5.00113L18 9.66779" stroke="#B4B4B4" stroke-width="2" stroke-linecap="round" stroke-linejoin="round"/>
</svg>
