<svg width="64" height="64" viewBox="0 0 64 64" fill="none" xmlns="http://www.w3.org/2000/svg">
<circle cx="31.7308" cy="31.7308" r="26.7308" fill="#292929"/>
<path d="M18 25.1282C18 23.2377 18.751 21.4246 20.0878 20.0878C21.4246 18.751 23.2377 18 25.1282 18H39.3846C41.2751 18 43.0882 18.751 44.425 20.0878C45.7618 21.4246 46.5128 23.2377 46.5128 25.1282V39.3846C46.5128 41.2751 45.7618 43.0882 44.425 44.425C43.0882 45.7618 41.2751 46.5128 39.3846 46.5128H25.1282C23.2377 46.5128 21.4246 45.7618 20.0878 44.425C18.751 43.0882 18 41.2751 18 39.3846V25.1282Z" stroke="white" stroke-width="3.5" stroke-linecap="round" stroke-linejoin="round"/>
<path d="M40.2757 24.2383V24.2561M26.9103 32.2575C26.9103 33.6754 27.4735 35.0352 28.4761 36.0378C29.4787 37.0404 30.8385 37.6037 32.2564 37.6037C33.6743 37.6037 35.0341 37.0404 36.0367 36.0378C37.0393 35.0352 37.6026 33.6754 37.6026 32.2575C37.6026 30.8396 37.0393 29.4798 36.0367 28.4772C35.0341 27.4746 33.6743 26.9114 32.2564 26.9114C30.8385 26.9114 29.4787 27.4746 28.4761 28.4772C27.4735 29.4798 26.9103 30.8396 26.9103 32.2575Z" stroke="white" stroke-width="3.5" stroke-linecap="round" stroke-linejoin="round"/>
</svg>
