<svg width="32" height="30" viewBox="0 0 32 30" fill="none" xmlns="http://www.w3.org/2000/svg">
<path d="M18.75 12C18.75 12.5105 19.0594 12.8998 19.4845 13.186C19.9081 13.4712 20.4817 13.6806 21.1042 13.8348C22.3528 14.1441 23.875 14.25 25 14.25C26.125 14.25 27.6472 14.1441 28.8958 13.8348C29.5183 13.6806 30.0919 13.4712 30.5155 13.186C30.9406 12.8998 31.25 12.5105 31.25 12C31.25 11.4895 30.9406 11.1002 30.5155 10.814C30.0919 10.5288 29.5183 10.3194 28.8958 10.1652C27.6472 9.85587 26.125 9.75 25 9.75C23.875 9.75 22.3528 9.85587 21.1042 10.1652C20.4817 10.3194 19.9081 10.5288 19.4845 10.814C19.0594 11.1002 18.75 11.4895 18.75 12ZM20.5142 12.078C20.4614 12.0545 20.4156 12.0321 20.3764 12.0112C20.4163 11.9882 20.4637 11.9635 20.5189 11.9376C20.739 11.8343 21.06 11.7226 21.4775 11.6197C22.3111 11.4144 23.5066 11.25 25 11.25C26.4642 11.25 27.6421 11.408 28.4733 11.6077C28.8895 11.7077 29.2138 11.817 29.4417 11.9195C29.5044 11.9476 29.5583 11.9746 29.6038 12C29.5583 12.0254 29.5044 12.0524 29.4417 12.0805C29.2138 12.183 28.8895 12.2923 28.4733 12.3923C27.6421 12.592 26.4642 12.75 25 12.75C23.5068 12.75 22.3107 12.5856 21.4761 12.3852C21.0582 12.2848 20.7358 12.1765 20.5142 12.078Z" fill="#292929" stroke="#292929" stroke-width="0.5"/>
<path d="M29.75 12V12.0003L29.7529 14.8999C29.7452 14.9067 29.7351 14.9152 29.7218 14.9251C29.6704 14.9637 29.5916 15.0106 29.4812 15.0624C29.2611 15.1657 28.9402 15.2774 28.5226 15.3803C27.6892 15.5856 26.4936 15.75 25 15.75C23.5064 15.75 22.3106 15.5856 21.4771 15.3827C21.0595 15.2811 20.7382 15.1711 20.5179 15.0703C20.4074 15.0196 20.3283 14.974 20.2768 14.9367C20.2658 14.9288 20.257 14.9218 20.25 14.916V12C20.25 11.8011 20.171 11.6103 20.0303 11.4697C19.8897 11.329 19.6989 11.25 19.5 11.25C19.3011 11.25 19.1103 11.329 18.9697 11.4697C18.829 11.6103 18.75 11.8011 18.75 12V15C18.75 15.5104 19.0595 15.8996 19.4845 16.1858C19.9081 16.471 20.4817 16.6803 21.1042 16.8346C22.3527 17.144 23.8749 17.25 25 17.25C26.1251 17.25 27.6473 17.144 28.8958 16.8346C29.5183 16.6803 30.0919 16.471 30.5155 16.1858C30.9405 15.8996 31.25 15.5104 31.25 15V12C31.25 11.8011 31.171 11.6103 31.0303 11.4697C30.8897 11.329 30.6989 11.25 30.5 11.25C30.3011 11.25 30.1103 11.329 29.9697 11.4697C29.829 11.6103 29.75 11.8011 29.75 12Z" fill="#292929" stroke="#292929" stroke-width="0.5"/>
<path d="M29.75 15V15.0003L29.7529 17.9C29.7452 17.9069 29.7351 17.9154 29.7218 17.9253C29.6704 17.9639 29.5916 18.0108 29.4812 18.0626C29.2611 18.1659 28.9402 18.2776 28.5227 18.3804C27.6892 18.5857 26.4936 18.75 25 18.75C23.5064 18.75 22.3106 18.5857 21.477 18.3829C21.0595 18.2813 20.7382 18.1714 20.518 18.0705C20.4074 18.0199 20.3283 17.9742 20.2769 17.9369C20.2658 17.9289 20.257 17.922 20.25 17.9161V15C20.25 14.8011 20.171 14.6103 20.0303 14.4697C19.8897 14.329 19.6989 14.25 19.5 14.25C19.3011 14.25 19.1103 14.329 18.9697 14.4697C18.829 14.6103 18.75 14.8011 18.75 15V18C18.75 18.5104 19.0595 18.8996 19.4845 19.1858C19.9081 19.471 20.4817 19.6803 21.1042 19.8346C22.3527 20.144 23.8749 20.25 25 20.25C26.1251 20.25 27.6473 20.144 28.8958 19.8346C29.5183 19.6803 30.0919 19.471 30.5155 19.1858C30.9405 18.8996 31.25 18.5104 31.25 18V15C31.25 14.8011 31.171 14.6103 31.0303 14.4697C30.8897 14.329 30.6989 14.25 30.5 14.25C30.3011 14.25 30.1103 14.329 29.9697 14.4697C29.829 14.6103 29.75 14.8011 29.75 15Z" fill="#292929" stroke="#292929" stroke-width="0.5"/>
<path d="M17.5583 15.8088L17.5585 15.8088C17.7568 15.8243 17.9408 15.9179 18.0701 16.0691C18.1994 16.2203 18.2633 16.4167 18.2477 16.615C18.2322 16.8133 18.1386 16.9973 17.9874 17.1266C17.8362 17.2558 17.6399 17.3197 17.4416 17.3042L17.5583 15.8088ZM17.5583 15.8088C17.0556 15.7697 16.5316 15.75 16 15.75C14.8749 15.75 13.3527 15.856 12.1042 16.1654C11.4817 16.3197 10.9081 16.529 10.4845 16.8142C10.0595 17.1004 9.75 17.4896 9.75 18C9.75 18.5104 10.0595 18.8996 10.4845 19.1858C10.9081 19.471 11.4817 19.6803 12.1042 19.8346C13.3527 20.144 14.8749 20.25 16 20.25C16.5316 20.25 17.0556 20.2303 17.5583 20.1912L17.5585 20.1912M17.5583 15.8088L17.5585 20.1912M17.5585 20.1912C17.6567 20.1836 17.7524 20.1566 17.8402 20.1119C17.928 20.0673 18.0061 20.0057 18.0701 19.9309C18.1341 19.856 18.1827 19.7693 18.2132 19.6756C18.2437 19.5819 18.2554 19.4832 18.2477 19.385C18.2401 19.2868 18.2131 19.1911 18.1684 19.1033C18.1238 19.0155 18.0622 18.9374 17.9874 18.8734C17.9125 18.8094 17.8258 18.7608 17.7321 18.7303C17.6385 18.6998 17.5398 18.6881 17.4416 18.6958L17.5585 20.1912ZM29.75 18V18.0003L29.7529 20.9C29.7452 20.9069 29.7351 20.9154 29.7218 20.9253C29.6704 20.9639 29.5916 21.0108 29.4812 21.0626C29.2611 21.1659 28.9402 21.2776 28.5227 21.3804C27.6892 21.5857 26.4936 21.75 25 21.75C23.5064 21.75 22.3106 21.5857 21.477 21.3829C21.0595 21.2813 20.7382 21.1714 20.518 21.0705C20.4074 21.0199 20.3283 20.9742 20.2769 20.9369C20.2659 20.9289 20.257 20.922 20.25 20.9161V18C20.25 17.8011 20.171 17.6103 20.0303 17.4697C19.8897 17.329 19.6989 17.25 19.5 17.25C19.3011 17.25 19.1103 17.329 18.9697 17.4697C18.829 17.6103 18.75 17.8011 18.75 18V21C18.75 21.5104 19.0595 21.8996 19.4845 22.1858C19.9081 22.471 20.4817 22.6803 21.1042 22.8346C22.3527 23.144 23.8749 23.25 25 23.25C26.125 23.25 27.6473 23.144 28.8958 22.8346C29.5183 22.6803 30.0919 22.471 30.5155 22.1858C30.9405 21.8996 31.25 21.5104 31.25 21V18C31.25 17.8011 31.171 17.6103 31.0303 17.4697C30.8897 17.329 30.6989 17.25 30.5 17.25C30.3011 17.25 30.1103 17.329 29.9697 17.4697C29.829 17.6103 29.75 17.8011 29.75 18ZM16 17.25C16.4939 17.25 16.9784 17.2683 17.4415 17.3042V18.6958C16.9784 18.7317 16.4939 18.75 16 18.75C14.5065 18.75 13.3104 18.5857 12.4759 18.3853C12.058 18.285 11.7357 18.1768 11.5142 18.0782C11.4612 18.0546 11.4152 18.0322 11.376 18.0112C11.416 17.9881 11.4635 17.9634 11.5188 17.9374C11.7389 17.8341 12.0598 17.7224 12.4773 17.6196C13.3108 17.4143 14.5064 17.25 16 17.25Z" fill="#292929" stroke="#292929" stroke-width="0.5"/>
<path d="M17.5585 23.1912L17.5583 23.1912C17.0556 23.2303 16.5316 23.25 16 23.25C14.8749 23.25 13.3527 23.144 12.1042 22.8346C11.4817 22.6803 10.9081 22.471 10.4845 22.1858C10.0595 21.8996 9.75 21.5104 9.75 21V18C9.75 17.8011 9.82902 17.6103 9.96967 17.4697C10.1103 17.329 10.3011 17.25 10.5 17.25C10.6989 17.25 10.8897 17.329 11.0303 17.4697C11.171 17.6103 11.25 17.8011 11.25 18V20.9161C11.257 20.922 11.2658 20.9289 11.2769 20.9369C11.3283 20.9742 11.4074 21.0199 11.518 21.0705C11.7382 21.1714 12.0595 21.2813 12.477 21.3829C13.3106 21.5857 14.5064 21.75 16 21.75C16.4939 21.75 16.9784 21.7317 17.4415 21.6958L17.5585 23.1912ZM17.5585 23.1912C17.6567 23.1836 17.7524 23.1566 17.8402 23.1119C17.928 23.0673 18.0061 23.0057 18.0701 22.9309C18.1341 22.856 18.1827 22.7693 18.2132 22.6756C18.2437 22.5819 18.2554 22.4832 18.2477 22.385C18.2401 22.2868 18.2131 22.1911 18.1684 22.1033C18.1238 22.0155 18.0622 21.9374 17.9874 21.8734C17.9125 21.8094 17.8258 21.7608 17.7321 21.7303C17.6385 21.6998 17.5398 21.6881 17.4416 21.6958L17.5585 23.1912Z" fill="#292929" stroke="#292929" stroke-width="0.5"/>
<path d="M17.5585 26.1912L17.5583 26.1912C17.0556 26.2303 16.5316 26.25 16 26.25C14.8749 26.25 13.3527 26.144 12.1042 25.8346C11.4817 25.6803 10.9081 25.471 10.4845 25.1858C10.0595 24.8996 9.75 24.5104 9.75 24V21C9.75 20.8011 9.82902 20.6103 9.96967 20.4697C10.1103 20.329 10.3011 20.25 10.5 20.25C10.6989 20.25 10.8897 20.329 11.0303 20.4697C11.171 20.6103 11.25 20.8011 11.25 21V23.9161C11.257 23.922 11.2659 23.9289 11.2769 23.9369C11.3283 23.9742 11.4074 24.0199 11.518 24.0705C11.7382 24.1714 12.0595 24.2813 12.477 24.3829C13.3106 24.5857 14.5064 24.75 16 24.75C16.4939 24.75 16.9783 24.7317 17.4415 24.6958L17.5585 26.1912ZM17.5585 26.1912C17.6567 26.1836 17.7524 26.1566 17.8402 26.1119C17.928 26.0673 18.0061 26.0057 18.0701 25.9309C18.1341 25.856 18.1827 25.7693 18.2132 25.6756C18.2437 25.5819 18.2554 25.4832 18.2477 25.385C18.2401 25.2868 18.2131 25.1911 18.1684 25.1033C18.1238 25.0155 18.0622 24.9374 17.9874 24.8734C17.9125 24.8094 17.8258 24.7608 17.7321 24.7303C17.6385 24.6998 17.5398 24.6881 17.4416 24.6958L17.5585 26.1912ZM8.55835 18.8088L8.5585 18.8088C8.65669 18.8164 8.75241 18.8434 8.84019 18.8881C8.92797 18.9327 9.00609 18.9943 9.0701 19.0691C9.1341 19.144 9.18273 19.2307 9.21321 19.3244C9.24369 19.4181 9.25542 19.5168 9.24774 19.615C9.24006 19.7132 9.21311 19.8089 9.16843 19.8967C9.12376 19.9845 9.06223 20.0626 8.98737 20.1266C8.9125 20.1906 8.82576 20.2392 8.7321 20.2697C8.63849 20.3002 8.53979 20.3119 8.44164 20.3042L8.55835 18.8088ZM8.55835 18.8088C8.05556 18.7697 7.5316 18.75 7 18.75C5.87495 18.75 4.35274 18.856 3.10418 19.1654C2.48171 19.3197 1.90812 19.529 1.4845 19.8142C1.05945 20.1004 0.75 20.4896 0.75 21C0.75 21.5104 1.05945 21.8996 1.4845 22.1858C1.90812 22.471 2.48171 22.6803 3.10418 22.8346C4.35274 23.144 5.87495 23.25 7 23.25C7.5316 23.25 8.05556 23.2303 8.55835 23.1912L8.5585 23.1912M8.55835 18.8088L8.5585 23.1912M8.5585 23.1912C8.65669 23.1836 8.75241 23.1566 8.84019 23.1119C8.92797 23.0673 9.00609 23.0057 9.0701 22.9309C9.1341 22.856 9.18273 22.7693 9.21321 22.6756C9.24369 22.5819 9.25542 22.4832 9.24774 22.385C9.24006 22.2868 9.21311 22.1911 9.16843 22.1033C9.12376 22.0155 9.06223 21.9374 8.98737 21.8734C8.9125 21.8094 8.82576 21.7608 8.7321 21.7303C8.63849 21.6998 8.53979 21.6881 8.44164 21.6958L8.5585 23.1912ZM7 20.25C7.49387 20.25 7.97835 20.2683 8.4415 20.3042V21.6958C7.97835 21.7317 7.49387 21.75 7 21.75C5.50651 21.75 4.3104 21.5857 3.47593 21.3853C3.05799 21.285 2.73573 21.1768 2.51421 21.0782C2.46118 21.0546 2.41524 21.0322 2.37601 21.0112C2.41602 20.9881 2.46346 20.9634 2.51885 20.9374C2.73888 20.8341 3.05981 20.7224 3.47734 20.6196C4.3108 20.4143 5.50635 20.25 7 20.25Z" fill="#292929" stroke="#292929" stroke-width="0.5"/>
<path d="M8.5585 26.1912L8.55835 26.1912C8.05556 26.2303 7.5316 26.25 7 26.25C5.87495 26.25 4.35274 26.144 3.10418 25.8346C2.48171 25.6803 1.90812 25.471 1.4845 25.1858C1.05945 24.8996 0.75 24.5104 0.75 24V21C0.75 20.8011 0.829017 20.6103 0.96967 20.4697C1.11032 20.329 1.30109 20.25 1.5 20.25C1.69891 20.25 1.88968 20.329 2.03033 20.4697C2.17098 20.6103 2.25 20.8011 2.25 21V23.9161C2.25702 23.922 2.26585 23.9289 2.27687 23.9369C2.32833 23.9742 2.4074 24.0199 2.51796 24.0705C2.73823 24.1714 3.05949 24.2813 3.47704 24.3829C4.3106 24.5857 5.50643 24.75 7 24.75C7.49387 24.75 7.97835 24.7317 8.4415 24.6958L8.5585 26.1912ZM8.5585 26.1912C8.65669 26.1836 8.75241 26.1566 8.84019 26.1119C8.92797 26.0673 9.00609 26.0057 9.0701 25.9309C9.1341 25.856 9.18273 25.7693 9.21321 25.6756C9.24369 25.5819 9.25542 25.4832 9.24774 25.385C9.24006 25.2868 9.21311 25.1911 9.16843 25.1033C9.12376 25.0155 9.06223 24.9374 8.98737 24.8734C8.9125 24.8094 8.82576 24.7608 8.7321 24.7303C8.63849 24.6998 8.53979 24.6881 8.44164 24.6958L8.5585 26.1912Z" fill="#292929" stroke="#292929" stroke-width="0.5"/>
<path d="M8.5585 29.1912L8.55835 29.1912C8.05556 29.2303 7.5316 29.25 7 29.25C5.87495 29.25 4.35274 29.144 3.10418 28.8346C2.48171 28.6803 1.90812 28.471 1.4845 28.1858C1.05945 27.8996 0.75 27.5104 0.75 27V24C0.75 23.8011 0.829017 23.6103 0.96967 23.4697C1.11032 23.329 1.30109 23.25 1.5 23.25C1.69891 23.25 1.88968 23.329 2.03033 23.4697C2.17098 23.6103 2.25 23.8011 2.25 24V26.9161C2.25702 26.922 2.26585 26.9289 2.27687 26.9369C2.32833 26.9742 2.4074 27.0199 2.51796 27.0705C2.73823 27.1714 3.05949 27.2813 3.47704 27.3829C4.3106 27.5857 5.50643 27.75 7 27.75C7.49387 27.75 7.97835 27.7317 8.4415 27.6958L8.5585 29.1912ZM8.5585 29.1912C8.65669 29.1836 8.75241 29.1566 8.84019 29.1119C8.92797 29.0673 9.00609 29.0057 9.0701 28.9309C9.1341 28.856 9.18273 28.7693 9.21321 28.6756C9.24369 28.5819 9.25542 28.4832 9.24774 28.385C9.24006 28.2868 9.21311 28.1911 9.16843 28.1033C9.12376 28.0155 9.06223 27.9374 8.98737 27.8734C8.9125 27.8094 8.82576 27.7608 8.7321 27.7303C8.63849 27.6998 8.53979 27.6881 8.44164 27.6958L8.5585 29.1912ZM17.5585 29.1912L17.5583 29.1912C17.0556 29.2303 16.5316 29.25 16 29.25C14.8749 29.25 13.3527 29.144 12.1042 28.8346C11.4817 28.6803 10.9081 28.471 10.4845 28.1858C10.0595 27.8996 9.75 27.5104 9.75 27V24C9.75 23.8011 9.82902 23.6103 9.96967 23.4697C10.1103 23.329 10.3011 23.25 10.5 23.25C10.6989 23.25 10.8897 23.329 11.0303 23.4697C11.171 23.6103 11.25 23.8011 11.25 24V26.9161C11.257 26.922 11.2659 26.9289 11.2769 26.9369C11.3283 26.9742 11.4074 27.0199 11.518 27.0705C11.7382 27.1714 12.0595 27.2813 12.477 27.3829C13.3106 27.5857 14.5064 27.75 16 27.75C16.4939 27.75 16.9783 27.7317 17.4415 27.6958L17.5585 29.1912ZM17.5585 29.1912C17.6567 29.1836 17.7524 29.1566 17.8402 29.1119C17.928 29.0673 18.0061 29.0057 18.0701 28.9309C18.1341 28.856 18.1827 28.7693 18.2132 28.6756C18.2437 28.5819 18.2554 28.4832 18.2477 28.385C18.2401 28.2868 18.2131 28.1911 18.1684 28.1033C18.1238 28.0155 18.0622 27.9374 17.9874 27.8734C17.9125 27.8094 17.8258 27.7608 17.7321 27.7303C17.6385 27.6998 17.5398 27.6881 17.4416 27.6958L17.5585 29.1912ZM29.75 21V21.0003L29.7529 23.9C29.7452 23.9069 29.7351 23.9154 29.7218 23.9253C29.6704 23.9639 29.5916 24.0108 29.4812 24.0626C29.2611 24.1659 28.9402 24.2776 28.5227 24.3804C27.6892 24.5857 26.4936 24.75 25 24.75C23.5064 24.75 22.3106 24.5857 21.477 24.3829C21.0595 24.2813 20.7382 24.1714 20.518 24.0705C20.4074 24.0199 20.3283 23.9742 20.2769 23.9369C20.2659 23.9289 20.257 23.922 20.25 23.9161V21C20.25 20.8011 20.171 20.6103 20.0303 20.4697C19.8897 20.329 19.6989 20.25 19.5 20.25C19.3011 20.25 19.1103 20.329 18.9697 20.4697C18.829 20.6103 18.75 20.8011 18.75 21V24C18.75 24.5104 19.0595 24.8996 19.4845 25.1858C19.9081 25.471 20.4817 25.6803 21.1042 25.8346C22.3527 26.144 23.875 26.25 25 26.25C26.125 26.25 27.6473 26.144 28.8958 25.8346C29.5183 25.6803 30.0919 25.471 30.5155 25.1858C30.9405 24.8996 31.25 24.5104 31.25 24V21C31.25 20.8011 31.171 20.6103 31.0303 20.4697C30.8897 20.329 30.6989 20.25 30.5 20.25C30.3011 20.25 30.1103 20.329 29.9697 20.4697C29.829 20.6103 29.75 20.8011 29.75 21Z" fill="#292929" stroke="#292929" stroke-width="0.5"/>
<path d="M28.4697 0.969575L28.4698 0.969512C28.5395 0.899883 28.6222 0.84466 28.7132 0.806997C28.8042 0.769332 28.9018 0.749965 29.0003 0.75C29.0988 0.750035 29.1963 0.769472 29.2873 0.8072C29.3783 0.844928 29.461 0.900209 29.5306 0.969887C29.6002 1.03957 29.6554 1.12228 29.6931 1.2133C29.7308 1.30432 29.7501 1.40186 29.7501 1.50037C29.7501 1.59887 29.7306 1.6964 29.6929 1.7874C29.6552 1.87836 29.5999 1.96101 29.5303 2.03063L28.4697 0.969575ZM28.4697 0.969575L25.4296 4.00971C25.6367 3.7164 25.75 3.36422 25.75 3.00035C25.75 2.65423 25.6474 2.31589 25.4551 2.0281C25.2628 1.74032 24.9895 1.51602 24.6697 1.38356C24.3499 1.25111 23.9981 1.21645 23.6586 1.28398C23.3191 1.3515 23.0073 1.51817 22.7626 1.76291C22.5178 2.00766 22.3511 2.31948 22.2836 2.65894C22.2161 2.99841 22.2508 3.35028 22.3832 3.67005C22.5157 3.98982 22.74 4.26313 23.0278 4.45542C23.3155 4.64772 23.6539 4.75035 24 4.75035C24.3639 4.75035 24.716 4.63703 25.0094 4.42994L21.4699 7.96935L28.4697 0.969575ZM29.75 24.0004V24.0006L29.7529 26.9004C29.7452 26.9072 29.7351 26.9157 29.7218 26.9257C29.6704 26.9643 29.5916 27.0112 29.4812 27.063C29.2611 27.1663 28.9402 27.278 28.5227 27.3808C27.6892 27.586 26.4936 27.7504 25 27.7504C23.5064 27.7504 22.3106 27.5861 21.477 27.3832C21.0595 27.2817 20.7382 27.1717 20.518 27.0708C20.4074 27.0202 20.3283 26.9746 20.2769 26.9373C20.2658 26.9293 20.257 26.9223 20.25 26.9165V24.0004C20.25 23.8014 20.171 23.6107 20.0303 23.47C19.8897 23.3294 19.6989 23.2504 19.5 23.2504C19.3011 23.2504 19.1103 23.3294 18.9697 23.47C18.829 23.6107 18.75 23.8014 18.75 24.0004V27.0004C18.75 27.5108 19.0595 27.9 19.4845 28.1862C19.9081 28.4714 20.4817 28.6807 21.1042 28.8349C22.3527 29.1444 23.8749 29.2504 25 29.2504C26.1251 29.2504 27.6473 29.1444 28.8958 28.8349C29.5183 28.6807 30.0919 28.4714 30.5155 28.1862C30.9405 27.9 31.25 27.5108 31.25 27.0004V24.0004C31.25 23.8014 31.171 23.6107 31.0303 23.47C30.8897 23.3294 30.6989 23.2504 30.5 23.2504C30.3011 23.2504 30.1103 23.3294 29.9697 23.47C29.829 23.6107 29.75 23.8014 29.75 24.0004ZM26.4889 5.072L29.5302 2.03069L21.5093 8.40244C21.4899 8.4995 21.4998 8.60013 21.5376 8.69158C21.5755 8.78304 21.6396 8.8612 21.7219 8.91616C21.8042 8.97113 21.901 9.00043 22 9.00035L22.0001 9.25035C22.0001 9.25035 22.0001 9.25035 22.0002 9.25035C22.199 9.25027 22.3897 9.17124 22.5303 9.03063C22.5303 9.03062 22.5303 9.03061 22.5303 9.0306L26.0716 5.48926C25.9303 5.6889 25.8318 5.91689 25.7836 6.15894C25.7161 6.49841 25.7508 6.85028 25.8832 7.17005C26.0157 7.48982 26.24 7.76313 26.5278 7.95542C26.8155 8.14772 27.1539 8.25035 27.5 8.25035C27.9641 8.25035 28.4092 8.06598 28.7374 7.73779C29.0656 7.4096 29.25 6.96448 29.25 6.50035C29.25 6.15423 29.1474 5.81589 28.9551 5.5281C28.7628 5.24032 28.4895 5.01602 28.1697 4.88356C27.8499 4.75111 27.4981 4.71645 27.1586 4.78398C26.9165 4.83212 26.6886 4.93068 26.4889 5.072ZM23.8611 2.79248C23.9022 2.76501 23.9506 2.75035 24 2.75035C24.0663 2.75035 24.1299 2.77669 24.1768 2.82357C24.2237 2.87046 24.25 2.93405 24.25 3.00035C24.25 3.0498 24.2353 3.09813 24.2079 3.13924C24.1804 3.18036 24.1414 3.2124 24.0957 3.23132C24.05 3.25024 23.9997 3.25519 23.9512 3.24555C23.9027 3.2359 23.8582 3.21209 23.8232 3.17713C23.7883 3.14217 23.7645 3.09762 23.7548 3.04912C23.7452 3.00063 23.7501 2.95036 23.769 2.90468C23.788 2.859 23.82 2.81995 23.8611 2.79248ZM27.3611 6.29248C27.4022 6.26501 27.4506 6.25035 27.5 6.25035C27.5663 6.25035 27.6299 6.27669 27.6768 6.32358C27.7237 6.37046 27.75 6.43405 27.75 6.50035C27.75 6.5498 27.7353 6.59813 27.7079 6.63924C27.6804 6.68036 27.6414 6.7124 27.5957 6.73132C27.55 6.75024 27.4997 6.75519 27.4512 6.74555C27.4027 6.7359 27.3582 6.71209 27.3232 6.67713C27.2883 6.64217 27.2645 6.59762 27.2548 6.54912C27.2452 6.50063 27.2501 6.45036 27.269 6.40468C27.288 6.359 27.32 6.31995 27.3611 6.29248Z" fill="#292929" stroke="#292929" stroke-width="0.5"/>
</svg>
