<svg width="32" height="32" viewBox="0 0 32 32" fill="none" xmlns="http://www.w3.org/2000/svg">
<path d="M25.6 2.99922H25.6H19.2V2.99911L19.1933 2.99933L18.9533 3.00733L18.9533 3.00716L18.945 3.00778C18.0896 3.07212 17.2902 3.45738 16.7069 4.08635C16.1237 4.7153 15.7997 5.54146 15.8 6.39922C15.8 6.39924 15.8 6.39926 15.8 6.39928V9.59922H15.7998L15.8001 9.60593L15.8081 9.84433L15.8084 9.85296L15.8094 9.86154L15.8414 10.1271L15.8412 10.1272L15.8425 10.1349C15.9435 10.7652 16.2197 11.3545 16.6396 11.8354C17.0556 12.3118 17.5959 12.6629 18.2 12.8494V14.3992H18.1996L18.2003 14.4116L18.2115 14.5924L18.2121 14.6014L18.2135 14.6103L18.2407 14.7879L18.2403 14.788L18.2429 14.8001C18.5543 16.2328 20.4856 16.7526 21.4415 15.4793L21.4416 15.4791L23.2985 12.9992H25.6V12.9993L25.6066 12.9991L25.8466 12.9911L25.8466 12.9913L25.8549 12.9907C26.7103 12.9263 27.5098 12.5411 28.093 11.9121C28.6762 11.2831 29.0002 10.457 29 9.59922C29 9.5992 29 9.59918 29 9.59916V6.39922H29.0001L28.9998 6.39122L28.9902 6.15122L28.9903 6.15122L28.9898 6.14422C28.9255 5.28915 28.5405 4.48995 27.9118 3.90674C27.2832 3.32353 26.4575 2.99938 25.6 2.99922ZM20.2 11.1992V10.9992H20H19.2059L19.0306 10.9887C18.6922 10.9475 18.3804 10.7842 18.1538 10.5293C17.9259 10.2731 17.8 9.94212 17.8 9.59922C17.8 9.59921 17.8 9.5992 17.8 9.59919V6.4052L17.8104 6.2299C17.8517 5.89147 18.015 5.57965 18.2699 5.35302C18.5261 5.12516 18.8571 4.99926 19.2 4.99922H25.594L25.7693 5.00971C26.1077 5.05094 26.4195 5.21426 26.6461 5.46912C26.874 5.72537 26.9999 6.05634 27 6.39922V9.59327L26.9895 9.76854C26.9482 10.107 26.7849 10.4188 26.53 10.6454C26.2738 10.8733 25.9428 10.9992 25.6 10.9992H22.4H22.3L22.24 11.0792L20.2 13.7992V11.1992ZM18.6384 19.7607C18.1508 19.2731 17.4895 18.9992 16.8 18.9992H5.59995C4.91039 18.9992 4.24907 19.2731 3.76147 19.7607C3.27388 20.2483 2.99995 20.9097 2.99995 21.5992V22.3992C2.99995 25.6868 6.09054 28.9992 11.2 28.9992C16.3094 28.9992 19.4 25.6868 19.4 22.3992V21.5992C19.4 20.9097 19.126 20.2483 18.6384 19.7607ZM5.17569 21.175C5.28821 21.0624 5.44082 20.9992 5.59995 20.9992H16.8C16.9591 20.9992 17.1117 21.0624 17.2242 21.175C17.3367 21.2875 17.4 21.4401 17.4 21.5992V22.3992C17.4 24.5583 15.2324 26.9992 11.2 26.9992C7.16748 26.9992 4.99995 24.5583 4.99995 22.3992V21.5992C4.99995 21.4401 5.06317 21.2875 5.17569 21.175L5.03427 21.0335L5.17569 21.175ZM14.4526 9.94653C13.59 9.08386 12.4199 8.59922 11.2 8.59922C9.97996 8.59922 8.80993 9.08386 7.94726 9.94653C7.08459 10.8092 6.59995 11.9792 6.59995 13.1992C6.59995 14.4192 7.08459 15.5892 7.94726 16.4519C8.80993 17.3146 9.97996 17.7992 11.2 17.7992C12.4199 17.7992 13.59 17.3146 14.4526 16.4519C15.3153 15.5892 15.8 14.4192 15.8 13.1992C15.8 11.9792 15.3153 10.8092 14.4526 9.94653ZM10.205 10.7971C10.5204 10.6665 10.8585 10.5992 11.2 10.5992C11.8895 10.5992 12.5508 10.8731 13.0384 11.3607C13.526 11.8483 13.8 12.5097 13.8 13.1992C13.8 13.8888 13.526 14.5501 13.0384 15.0377C12.5508 15.5253 11.8895 15.7992 11.2 15.7992C10.8585 15.7992 10.5204 15.732 10.205 15.6013C9.88953 15.4706 9.60291 15.2791 9.36147 15.0377C9.12004 14.7963 8.92853 14.5096 8.79786 14.1942C8.6672 13.8787 8.59995 13.5407 8.59995 13.1992C8.59995 12.8578 8.6672 12.5197 8.79786 12.2042C8.92853 11.8888 9.12004 11.6022 9.36147 11.3607C9.60291 11.1193 9.88953 10.9278 10.205 10.7971Z" fill="#4B4B4B" stroke="#4B4B4B" stroke-width="0.4"/>
</svg>
