<svg width="36" height="35" viewBox="0 0 36 35" fill="none" xmlns="http://www.w3.org/2000/svg">
<path fill-rule="evenodd" clip-rule="evenodd" d="M12.4726 30.6928C17.3091 30.6928 21.2299 26.772 21.2299 21.9355C21.2299 17.0989 17.3091 13.1781 12.4726 13.1781C7.63603 13.1781 3.71524 17.0989 3.71524 21.9355C3.71524 26.772 7.63603 30.6928 12.4726 30.6928ZM12.4726 34.4081C19.361 34.4081 24.9452 28.8239 24.9452 21.9355C24.9452 15.0471 19.361 9.46289 12.4726 9.46289C5.58417 9.46289 0 15.0471 0 21.9355C0 28.8239 5.58417 34.4081 12.4726 34.4081Z" fill="#979797"/>
<path fill-rule="evenodd" clip-rule="evenodd" d="M20.1685 5.21652L29.7219 5.21652C30.3082 5.21652 30.7834 5.69177 30.7834 6.27802L30.7834 15.8315C30.7834 16.4177 30.3082 16.893 29.7219 16.893C29.1357 16.893 28.6605 16.4177 28.6605 15.8315L28.6605 8.8407L22.5113 14.9898L21.0101 13.4886L27.1593 7.33951L20.1685 7.33951C19.5822 7.33951 19.107 6.86426 19.107 6.27802C19.107 5.69177 19.5822 5.21652 20.1685 5.21652Z" fill="#979797"/>
</svg>
