<svg width="904" height="703" viewBox="0 0 904 703" fill="none" xmlns="http://www.w3.org/2000/svg">
<g clip-path="url(#clip0_86_8457)">
<path d="M289.616 254.295L352.106 310.872L379.446 254.295V111.648H289.616V254.295Z" fill="#FFD6DA"/>
<path d="M369.531 308.164C369.531 308.164 369.832 309.067 370.132 310.572C372.836 322.91 363.222 334.647 350.304 334.647H347.9C333.179 334.647 331.076 312.678 331.076 312.678L352.106 310.572L369.531 308.164Z" fill="black"/>
<path d="M417 332.539C454.854 440.878 379.746 520.327 379.746 520.327C379.746 520.327 361.72 507.386 340.99 483.01" stroke="black" stroke-miterlimit="10" stroke-linecap="round" stroke-linejoin="round"/>
<path d="M365.926 327.422C365.926 327.422 417.601 413.792 398.072 494.745L379.446 520.326L350.905 494.144C350.905 494.144 377.343 408.977 347.9 334.644L365.926 327.422Z" fill="black"/>
<path d="M289.616 254.293H283.908C279.702 254.293 275.797 256.7 274.294 260.613L267.685 276.262C264.981 282.281 265.882 289.202 270.088 294.318L297.127 328.325C302.835 335.246 313.351 335.547 319.059 328.325L331.677 312.676L352.707 310.569L289.616 254.293Z" fill="white"/>
<path d="M379.446 254.293C383.952 254.293 388.158 257.302 389.66 261.817L401.077 297.93C404.982 309.967 392.064 320.5 380.948 314.782L369.531 308.462L352.106 310.87L379.446 254.293Z" fill="white"/>
<path d="M622.195 123.39L632.109 112.255C636.315 107.741 642.925 106.537 648.332 109.547L664.255 118.274C667.56 120.079 669.963 123.089 671.165 126.399L674.77 137.534C675.371 139.641 674.169 141.747 672.066 142.048C666.659 142.65 661.551 139.942 659.148 135.127C657.045 130.612 652.538 127.603 647.431 127.001L638.418 127.603L622.195 123.39Z" fill="#FFD6DA"/>
<path d="M582.538 100.516C581.636 102.623 582.538 105.331 584.641 106.234L691.294 156.191L705.715 158.297L694.899 148.366L588.246 98.4098C586.143 97.206 583.439 98.1088 582.538 100.516Z" fill="black"/>
<path d="M657.946 129.709C657.646 138.135 664.856 143.853 671.766 142.047C673.869 141.746 675.371 139.64 674.47 137.533L670.865 126.398" fill="#FFD6DA"/>
<path d="M618.89 142.348L644.727 134.223C686.487 144.756 655.242 191.703 655.242 191.703C651.036 201.935 644.427 203.74 638.418 202.235C628.203 199.527 624.298 187.489 629.405 178.16C631.508 174.248 633.611 169.433 633.912 163.414C634.512 156.191 628.203 145.658 618.89 142.348Z" fill="#E47718"/>
<path d="M618.89 142.347L635.714 145.958C642.925 147.463 650.435 145.056 655.242 139.338C657.646 136.629 656.144 132.416 652.839 131.513L605.671 119.175C598.461 117.369 592.452 122.184 590.049 129.106C575.027 173.344 585.542 211.865 585.542 211.865L571.722 275.062C568.417 289.508 577.731 303.652 592.152 306.962C606.572 310.273 620.693 300.943 623.997 286.498L637.817 223.3C637.817 223.3 653.74 206.448 659.749 180.266L664.856 152.278L636.315 145.958" fill="#FFD6DA"/>
<path d="M618.89 142.348L635.714 145.959C681.079 144.454 655.242 191.702 655.242 191.702C651.036 201.934 644.427 203.74 638.418 202.235C628.203 199.527 624.298 187.489 629.405 178.16C631.508 174.247 633.611 169.432 633.912 163.414C634.512 156.191 628.203 145.658 618.89 142.348Z" fill="#FFBDC4"/>
<path d="M655.543 190.196C657.946 192.904 662.152 193.205 664.856 190.496L680.178 176.954C681.981 175.449 681.981 172.741 680.479 170.935L677.474 167.625C675.972 165.819 673.268 165.819 671.466 167.324L656.144 180.866C653.139 183.575 652.839 187.487 655.543 190.196Z" fill="#FFD6DA"/>
<path d="M647.431 177.256L648.933 178.761C651.637 181.77 656.144 181.77 658.847 179.362L675.972 163.713C678.075 161.908 678.376 158.597 676.273 156.19L672.367 151.977C670.564 149.87 667.26 149.569 664.856 151.676L647.731 167.325C645.028 170.033 645.028 174.547 647.431 177.256Z" fill="#FFD6DA"/>
<path d="M638.418 165.822L639.92 167.327C642.624 170.336 647.131 170.336 649.834 167.929L666.959 152.28C669.062 150.474 669.363 147.164 667.26 144.756L663.354 140.543C661.551 138.437 658.247 138.136 655.843 140.242L638.718 155.891C636.015 158.6 635.714 163.114 638.418 165.822Z" fill="#FFD6DA"/>
<path d="M287.514 305.755L333.48 418.909L512.838 216.375L620.392 344.276L782.325 173.341L765.801 157.692L897.991 76.4375L824.085 212.764L807.561 197.115L618.89 396.038L512.237 269.341L323.265 482.709L266.183 348.489L143.006 436.063L136.697 413.492L287.514 305.755Z" fill="black"/>
<path d="M293.522 278.673L339.488 391.827L518.846 189.293L626.401 317.194L788.334 146.259L771.81 130.61L904 49.3555L830.094 185.682L813.57 170.033L624.899 368.956L518.245 242.259L329.274 455.627L272.191 321.407L149.014 408.981L142.705 386.41L293.522 278.673Z" fill="#E47718"/>
<path d="M302.235 156.792C302.235 156.792 296.827 211.262 327.471 240.152C363.523 274.46 379.446 242.259 379.446 242.259V211.262C379.446 211.262 347.299 123.989 302.235 156.792Z" fill="#FFBDC4"/>
<path d="M420.304 84.2654C420.304 86.372 420.304 153.783 420.304 196.818C420.304 214.573 403.18 227.213 386.356 222.097L337.686 207.652C319.96 202.536 307.642 185.984 307.642 167.325V157.695C307.642 157.695 293.823 156.491 287.814 145.357C280.303 131.212 282.106 103.225 302.235 116.767C302.235 116.767 295.625 68.9174 334.08 46.0458C366.227 27.6883 417.3 42.4345 420.304 84.2654Z" fill="#FFD6DA"/>
<path d="M408.588 104.127C408.588 97.5066 413.995 92.3906 420.304 92.3906" stroke="black" stroke-width="2" stroke-miterlimit="10" stroke-linecap="round" stroke-linejoin="round"/>
<path d="M408.588 161.005H419.704C422.107 161.005 423.609 158.597 422.708 156.189L414.296 139.638C410.691 132.415 408.588 124.29 408.588 115.863" stroke="#FFBDC4" stroke-miterlimit="10" stroke-linecap="round" stroke-linejoin="round"/>
<path d="M370.733 159.199C389.059 173.343 414.596 169.431 414.596 169.431C414.596 169.431 415.798 195.312 401.978 195.312C377.042 195.312 370.733 159.199 370.733 159.199Z" fill="white"/>
<path d="M365.626 129.404H366.527C368.33 129.404 369.531 128.2 369.531 126.394V122.181C369.531 120.376 368.33 119.172 366.527 119.172H365.626C363.823 119.172 362.621 120.376 362.621 122.181V126.394C362.621 127.899 363.823 129.404 365.626 129.404Z" fill="black"/>
<path d="M414.596 129.404H415.497C417.3 129.404 418.502 128.2 418.502 126.394V122.181C418.502 120.376 417.3 119.172 415.497 119.172H414.596C412.794 119.172 411.592 120.376 411.592 122.181V126.394C411.592 127.899 413.094 129.404 414.596 129.404Z" fill="black"/>
<path d="M403.781 61.0916C403.781 61.0916 377.042 89.681 322.063 107.437V152.277H312.149L302.535 117.669C302.535 117.669 283.307 105.029 283.908 131.211C283.908 131.211 282.106 152.578 307.642 158.597C307.642 184.177 270.389 186.885 266.784 161.606C266.483 158.898 266.183 156.189 266.183 153.18C266.183 111.048 266.183 64.101 266.183 64.101C266.183 64.101 264.08 19.5616 297.728 19.5616C297.728 19.5616 304.939 -7.8241 335.583 2.10698C356.312 8.7277 398.373 26.4833 425.712 39.4238C438.631 45.4426 445.841 60.1887 443.438 74.0321C441.635 83.3613 435.927 92.3895 420.605 96.9036L403.781 61.0916Z" fill="black"/>
<path d="M383.051 99.9117C383.051 99.9117 369.531 80.6514 351.506 99.9117" stroke="black" stroke-width="2" stroke-miterlimit="10" stroke-linecap="round" stroke-linejoin="round"/>
<path d="M285.41 379.487L153.821 267.537C151.117 265.43 147.212 265.43 144.808 267.537L63.3912 339.462C52.876 347.888 62.7903 356.616 62.7903 356.616L195.281 462.547C197.985 464.654 201.89 464.654 204.294 462.547L284.81 396.641C294.724 387.914 288.415 382.196 285.41 379.487Z" fill="#FFBE8A"/>
<path d="M284.509 386.409L152.92 274.459C150.216 272.352 146.31 272.352 143.907 274.459L62.4898 346.384C59.4855 349.092 59.4855 354.208 62.4898 356.917L194.379 469.469C197.083 471.576 200.989 471.576 203.392 469.469L284.509 396.641C287.814 393.933 287.814 389.118 284.509 386.409Z" fill="black"/>
<path d="M225.624 538.685L205.495 505.581C205.495 505.581 216.912 486.622 210.002 449.004L218.414 412.289C219.015 410.183 217.813 407.775 216.011 406.872C213.607 405.367 210.302 406.571 209.101 409.28L193.178 444.791L200.388 382.496C200.689 378.885 198.586 375.875 194.98 374.972C191.075 374.07 187.47 376.477 186.568 380.389L176.654 436.665L169.744 412.289L170.645 372.866C170.645 368.051 166.139 364.138 161.332 365.643C158.628 366.546 156.525 368.954 156.225 371.963L152.619 404.465L159.529 439.675L139.1 394.233L137.297 375.273C136.997 371.06 132.791 368.352 128.885 369.555C125.881 370.458 123.778 373.468 124.078 376.477L126.782 409.882L176.654 563.061C179.959 573.293 188.671 581.118 199.186 582.622C205.796 583.525 213.607 582.02 221.418 574.798C231.032 565.469 232.835 550.421 225.624 538.685Z" fill="#FFD6DA"/>
<path d="M450.047 455.93H610.177V616.332H450.047V455.93Z" fill="black"/>
<path d="M469.876 436.066H630.006V596.468H469.876V436.066Z" fill="white"/>
<path d="M72.9998 36.0273H193.173V156.404H72.9998V36.0273Z" fill="black"/>
<path d="M84.1209 27.0859H204.294V147.463H84.1209V27.0859Z" fill="white"/>
<path d="M123.177 104.426H99.1427V134.52H123.177V104.426Z" fill="#56BCC5"/>
<path d="M157.727 74.332H133.692V134.52H157.727V74.332Z" fill="#A7A1E4"/>
<path d="M192.276 44.2383H168.242V134.521H192.276V44.2383Z" fill="#407AFF"/>
<path d="M545.885 460.141V520.329H605.971C605.971 553.433 578.933 580.517 545.885 580.517C512.838 580.517 485.799 553.433 485.799 520.329C485.799 486.924 512.838 460.141 545.885 460.141Z" fill="#B3ADEF"/>
<path d="M553.997 452.016C587.044 452.016 614.083 479.1 614.083 512.204H553.997V452.016Z" fill="#9CDFE4"/>
<path d="M251.762 682.534C263.479 687.349 267.384 691.262 272.191 702.998C276.998 691.262 280.904 687.349 292.621 682.534C280.904 677.719 276.998 673.807 272.191 662.07C267.384 673.506 263.479 677.719 251.762 682.534Z" fill="#005B66"/>
<path d="M711.423 452.015C723.14 456.83 727.046 460.742 731.852 472.479C736.659 460.742 740.565 456.83 752.282 452.015C740.565 447.2 736.659 443.288 731.852 431.551C727.346 443.288 723.14 447.2 711.423 452.015Z" fill="#241913"/>
<path d="M20.4295 300.944C9.14662 300.944 0.000114441 291.782 0.000114441 280.48C0.000114441 269.178 9.14662 260.016 20.4295 260.016C31.7123 260.016 40.8589 269.178 40.8589 280.48C40.8589 291.782 31.7123 300.944 20.4295 300.944Z" fill="#56BCC5"/>
<path d="M682.281 655.753C693.998 660.568 697.904 664.48 702.711 676.217C707.517 664.48 711.423 660.568 723.14 655.753C711.423 650.938 707.517 647.026 702.711 635.289C697.904 647.026 693.998 650.938 682.281 655.753Z" fill="#9CDFE4"/>
<path d="M325.067 637.694C331.977 640.402 334.08 642.81 337.085 649.732C339.789 642.81 342.192 640.703 349.102 637.694C342.192 634.985 340.089 632.578 337.085 625.656C334.381 632.578 331.977 634.685 325.067 637.694Z" fill="white"/>
<path d="M62.1894 239.85C69.0994 242.559 71.2024 244.966 74.2067 251.888C76.9106 244.966 79.3141 242.86 86.224 239.85C79.3141 237.142 77.211 234.734 74.2067 227.812C71.2024 234.734 68.7989 237.142 62.1894 239.85Z" fill="white"/>
<path d="M495.412 77.3424C502.322 80.0508 504.425 82.4584 507.43 89.38C510.134 82.4584 512.537 80.3518 519.447 77.3424C512.537 74.6339 510.434 72.2263 507.43 65.3047C504.425 72.2263 502.022 74.3329 495.412 77.3424Z" fill="#DBC133"/>
<path d="M40.5583 592.854C47.4683 595.563 49.5713 597.97 52.5756 604.892C55.2795 597.97 57.683 595.863 64.5929 592.854C57.683 590.146 55.5799 587.738 52.5756 580.816C49.5713 587.738 47.4683 590.146 40.5583 592.854Z" fill="white"/>
<path d="M778.119 582.624C785.029 585.332 787.132 587.74 790.136 594.661C792.84 587.74 795.244 585.633 802.154 582.624C795.244 579.915 793.141 577.508 790.136 570.586C787.132 577.508 785.029 579.915 778.119 582.624Z" fill="white"/>
</g>
<defs>
<clipPath id="clip0_86_8457">
<rect width="904" height="703" fill="white" transform="matrix(-1 0 0 1 904 0)"/>
</clipPath>
</defs>
</svg>
