<svg width="32" height="32" viewBox="0 0 32 32" fill="none" xmlns="http://www.w3.org/2000/svg">
<g clip-path="url(#clip0_6846_36694)">
<path d="M19.5961 15.0274H9.20508M9.20508 5.32031H24.6365C24.9213 5.32031 25.1906 5.44975 25.3686 5.67219L28.3452 9.393C28.5225 9.61464 28.6191 9.89003 28.6191 10.1739C28.6191 10.4577 28.5225 10.7331 28.3452 10.9548L25.3686 14.6756C25.2807 14.7854 25.1693 14.874 25.0426 14.9349C24.9159 14.9958 24.7771 15.0274 24.6365 15.0274H21.7836" stroke="#292929" stroke-miterlimit="10" stroke-linecap="round" stroke-linejoin="round"/>
<path d="M13.0879 7.26562V13.0898M16 10.1778H17.456C18.2602 10.1778 18.9121 9.52581 18.9121 8.72169C18.9121 7.9175 18.2602 7.26562 17.456 7.26562H16V10.1778ZM16 10.1778V13.0898M9.20505 3.38281V27.6504M7.26367 5.40319V3.38281M7.26367 27.6504V7.59069M22.3095 13.0898C21.5054 13.0898 20.8535 12.4379 20.8535 11.6337V8.72162C20.8535 7.9175 21.5054 7.26556 22.3095 7.26556C23.1137 7.26556 23.7656 7.91744 23.7656 8.72162V11.6337C23.7656 12.4379 23.1137 13.0898 22.3095 13.0898Z" stroke="#292929" stroke-miterlimit="10" stroke-linecap="round" stroke-linejoin="round"/>
<path d="M8.23438 3.38088C9.03854 3.38088 9.69044 2.72897 9.69044 1.92481C9.69044 1.12065 9.03854 0.46875 8.23438 0.46875C7.43022 0.46875 6.77832 1.12065 6.77832 1.92481C6.77832 2.72897 7.43022 3.38088 8.23438 3.38088Z" stroke="#292929" stroke-miterlimit="10" stroke-linecap="round" stroke-linejoin="round"/>
<path d="M6.29298 3.38281H10.1757M5.32223 29.5918V28.5879C5.32223 28.0702 5.74198 27.6504 6.25973 27.6504H10.209C10.7267 27.6504 11.1465 28.0702 11.1465 28.5879V29.5918M14.1418 23.2133L11.695 25.6601L14.4406 28.4056L18.5589 24.2873L21.3045 27.0328L27.0798 21.2576L28.6191 22.7969V16.9726H22.7949L24.3342 18.512L21.3045 21.5417L18.5589 18.7961L15.7069 21.6483M12.1504 29.5918H4.31836C3.80061 29.5918 3.38086 30.0116 3.38086 30.5293V31.5332H13.0879V30.5293C13.0879 30.0115 12.6682 29.5918 12.1504 29.5918Z" stroke="#292929" stroke-miterlimit="10" stroke-linecap="round" stroke-linejoin="round"/>
</g>
<defs>
<clipPath id="clip0_6846_36694">
<rect width="32" height="32" fill="white"/>
</clipPath>
</defs>
</svg>
