<svg width="32" height="32" viewBox="0 0 32 32" fill="none" xmlns="http://www.w3.org/2000/svg">
<path d="M5.33329 26.6673C4.59996 26.6673 3.97196 26.406 3.44929 25.8833C2.92663 25.3607 2.66574 24.7331 2.66663 24.0007V8.00065C2.66663 7.26732 2.92796 6.63932 3.45063 6.11665C3.97329 5.59399 4.60085 5.3331 5.33329 5.33399H13.3333L16 8.00065H26.6666C27.4 8.00065 28.028 8.26199 28.5506 8.78465C29.0733 9.30732 29.3342 9.93488 29.3333 10.6673V15.0007C28.9333 14.7118 28.5111 14.4673 28.0666 14.2673C27.6222 14.0673 27.1555 13.8895 26.6666 13.734V10.6673H5.33329V24.0007H14.7666C14.8333 24.4673 14.9333 24.9229 15.0666 25.3673C15.2 25.8118 15.3666 26.2451 15.5666 26.6673H5.33329ZM22.6666 29.334L22.2666 27.334C22 27.2229 21.7497 27.106 21.516 26.9833C21.2822 26.8607 21.0435 26.7109 20.8 26.534L18.8666 27.134L17.5333 24.8673L19.0666 23.534C19.0222 23.2673 19 22.9784 19 22.6673C19 22.3562 19.0222 22.0673 19.0666 21.8007L17.5333 20.4673L18.8666 18.2007L20.8 18.8007C21.0444 18.6229 21.2835 18.4731 21.5173 18.3513C21.7511 18.2295 22.0009 18.1127 22.2666 18.0007L22.6666 16.0007H25.3333L25.7333 18.0007C26 18.1118 26.2502 18.2287 26.484 18.3513C26.7177 18.474 26.9564 18.6238 27.2 18.8007L29.1333 18.2007L30.4666 20.4673L28.9333 21.8007C28.9777 22.0673 29 22.3562 29 22.6673C29 22.9784 28.9777 23.2673 28.9333 23.534L30.4666 24.8673L29.1333 27.134L27.2 26.534C26.9555 26.7118 26.7169 26.862 26.484 26.9847C26.2511 27.1073 26.0009 27.2238 25.7333 27.334L25.3333 29.334H22.6666ZM24 25.334C24.7333 25.334 25.3613 25.0727 25.884 24.55C26.4066 24.0273 26.6675 23.3998 26.6666 22.6673C26.6666 21.934 26.4053 21.306 25.8826 20.7833C25.36 20.2607 24.7324 19.9998 24 20.0007C23.2666 20.0007 22.6386 20.262 22.116 20.7847C21.5933 21.3073 21.3324 21.9349 21.3333 22.6673C21.3333 23.4007 21.5946 24.0287 22.1173 24.5513C22.64 25.074 23.2675 25.3349 24 25.334Z" fill="#292929"/>
</svg>
