<svg width="21" height="21" viewBox="0 0 21 21" fill="none" xmlns="http://www.w3.org/2000/svg">
<path d="M4.41263 9.00391C4.2253 9.00391 4.07324 9.15596 4.07324 9.34329V11.3797C4.07324 11.567 4.2253 11.7191 4.41263 11.7191C4.59996 11.7191 4.75202 11.567 4.75202 11.3797V9.34329C4.75206 9.15596 4.6 9.00391 4.41263 9.00391Z" fill="white"/>
<path d="M4.44887 0.274322L1.23982 1.55829C0.336007 1.89295 0 2.34708 0 3.23391V17.4918C0 18.3787 0.336007 18.8328 1.23135 19.1647L4.45531 20.4545C4.61484 20.5149 4.77501 20.5454 4.93184 20.5454C5.61404 20.5454 6.10922 19.9752 6.10922 19.1895V1.53693C6.10922 0.571669 5.33944 -0.0609692 4.44887 0.274322ZM5.4304 19.1895C5.4304 19.5944 5.23014 19.8666 4.93184 19.8666C4.8575 19.8666 4.7774 19.8507 4.70103 19.8221L1.47572 18.5314C0.835284 18.2942 0.678815 18.0898 0.678815 17.4918V3.23391C0.678815 2.63588 0.835284 2.43192 1.48387 2.19161L4.69459 0.907318C4.7774 0.876095 4.85715 0.860146 4.93148 0.860146C5.22982 0.860146 5.4304 1.132 5.4304 1.53693V19.1895Z" fill="white"/>
<path d="M7.08548 2.21397H11.8795C12.4409 2.21397 12.8977 2.67081 12.8977 3.23217V8.32319C12.8977 8.51052 13.0494 8.66257 13.2371 8.66257C13.4248 8.66257 13.5765 8.51052 13.5765 8.32319V3.23217C13.5765 2.29646 12.8152 1.53516 11.8795 1.53516H7.08548C6.89815 1.53516 6.74609 1.68721 6.74609 1.87454C6.74609 2.06188 6.89815 2.21397 7.08548 2.21397Z" fill="white"/>
<path d="M13.2367 12.0586C13.049 12.0586 12.8973 12.2106 12.8973 12.398V17.489C12.8973 18.0504 12.4405 18.5072 11.8791 18.5072H7.12747C6.94014 18.5072 6.78809 18.6593 6.78809 18.8466C6.78809 19.0339 6.94014 19.186 7.12747 19.186H11.8791C12.8148 19.186 13.5761 18.4247 13.5761 17.489V12.3979C13.5761 12.2106 13.4244 12.0586 13.2367 12.0586Z" fill="white"/>
<path d="M20.3379 10.2292C20.3206 10.1874 20.2958 10.1501 20.2642 10.1185L16.8705 6.72451C16.7378 6.59183 16.5233 6.59183 16.3906 6.72451C16.2579 6.85724 16.2579 7.07174 16.3906 7.20442L19.2053 10.0194H7.80618C7.61885 10.0194 7.4668 10.1714 7.4668 10.3588C7.4668 10.5461 7.61885 10.6982 7.80618 10.6982H19.2053L16.3906 13.5129C16.2579 13.6456 16.2579 13.8601 16.3906 13.9928C16.4568 14.059 16.5437 14.0922 16.6306 14.0922C16.7175 14.0922 16.8044 14.059 16.8705 13.9928L20.2642 10.5991C20.2958 10.5675 20.3206 10.5302 20.3379 10.4884C20.3722 10.4057 20.3722 10.312 20.3379 10.2292Z" fill="white"/>
</svg>
