<svg width="23" height="35" viewBox="0 0 23 35" fill="none" xmlns="http://www.w3.org/2000/svg">
<path fill-rule="evenodd" clip-rule="evenodd" d="M11.5 19.5745C15.9594 19.5745 19.5745 15.9594 19.5745 11.5C19.5745 7.04059 15.9594 3.42553 11.5 3.42553C7.04059 3.42553 3.42553 7.04059 3.42553 11.5C3.42553 15.9594 7.04059 19.5745 11.5 19.5745ZM11.5 23C17.8513 23 23 17.8513 23 11.5C23 5.14873 17.8513 0 11.5 0C5.14873 0 0 5.14873 0 11.5C0 17.8513 5.14873 23 11.5 23Z" fill="#ADD7FF"/>
<rect x="10.2766" y="21.043" width="2.93617" height="13.7021" rx="1.46809" fill="#ADD7FF"/>
<rect x="5.87231" y="29.3613" width="2.93617" height="11.7447" rx="1.46808" transform="rotate(-90 5.87231 29.3613)" fill="#ADD7FF"/>
</svg>
