<svg width="32" height="32" viewBox="0 0 32 32" fill="none" xmlns="http://www.w3.org/2000/svg">
<path d="M26.0559 23.4236C26.0991 23.0684 26.0991 22.7093 26.0559 22.3541L27.1927 21.4771C27.3009 21.4022 27.3226 21.2846 27.2576 21.1348L26.175 19.2953C26.11 19.1776 25.9693 19.1455 25.8502 19.1776L24.4969 19.6803C24.1937 19.4985 23.9231 19.3167 23.5874 19.1883L23.3817 17.7659C23.3716 17.7025 23.3386 17.6449 23.2889 17.6036C23.2391 17.5624 23.176 17.5402 23.1111 17.5413H20.9458C20.8158 17.5413 20.6967 17.6375 20.6751 17.7659L20.4802 19.1883C20.1338 19.3167 19.8631 19.4985 19.56 19.6803L18.2391 19.1776C18.0984 19.1455 17.9468 19.1776 17.8818 19.2953L16.7992 21.1348C16.7342 21.2846 16.7667 21.4022 16.8641 21.4771L18.0118 22.3541C17.9901 22.5359 17.9685 22.7177 17.9685 22.8888C17.9685 23.06 17.9901 23.2418 18.0118 23.4236L16.8641 24.3006C16.7667 24.3755 16.7342 24.5252 16.7992 24.6429L17.8818 26.4931C17.9468 26.6322 18.0984 26.6322 18.2391 26.6322L19.56 26.0653C19.8631 26.2792 20.1338 26.461 20.4802 26.6001L20.6751 28.0118C20.6967 28.1402 20.8158 28.2364 20.9458 28.2364H23.1111C23.2518 28.2364 23.3601 28.1402 23.3817 28.0118L23.5874 26.6001C23.9231 26.461 24.1937 26.2792 24.4969 26.0653L25.8502 26.6322C25.9693 26.6322 26.11 26.6322 26.175 26.4931L27.2576 24.6429C27.3226 24.5252 27.3009 24.3755 27.1927 24.3006L26.0559 23.4236ZM22.0284 24.7605C20.9891 24.7605 20.1338 23.9263 20.1338 22.8888C20.1338 21.8514 20.9891 21.0172 22.0284 21.0172C23.0678 21.0172 23.9231 21.8514 23.9231 22.8888C23.9231 23.9263 23.0786 24.7605 22.0284 24.7605ZM14.5364 23.9584H4.70593V22.8888L6.87124 20.7498V14.3327C6.87124 11.0172 9.03655 8.12949 12.2845 7.16692V6.84607C12.2845 5.6696 13.2589 4.70703 14.4498 4.70703C15.6407 4.70703 16.6151 5.6696 16.6151 6.84607V7.16692C19.8631 8.12949 22.0284 11.0172 22.0284 14.3327V15.4022C21.2814 15.4022 20.5452 15.5199 19.8631 15.7124V14.3327C19.8631 11.338 17.4813 8.98511 14.4498 8.98511C11.4184 8.98511 9.03655 11.338 9.03655 14.3327V21.8193H14.5364C14.4823 22.1723 14.4498 22.5252 14.4498 22.8888C14.4498 23.2525 14.4823 23.6054 14.5364 23.9584ZM14.7746 25.0279C14.9912 25.6696 15.251 26.2792 15.5974 26.8354C15.2618 27.0386 14.8721 27.1669 14.4498 27.1669C13.2589 27.1669 12.2845 26.2044 12.2845 25.0279H14.7746Z" fill="#292929"/>
</svg>
