<svg width="32" height="32" viewBox="0 0 32 32" fill="none" xmlns="http://www.w3.org/2000/svg">
<path d="M22.5345 12.6462L16.5345 9.0962C16.3726 9.00032 16.1879 8.94982 15.9998 8.95C15.8117 8.95019 15.6271 9.00104 15.4655 9.09723C15.4655 9.09724 15.4654 9.09724 15.4654 9.09725L9.4656 12.6472C9.30851 12.7398 9.17831 12.8718 9.08789 13.0302C8.99746 13.1886 8.94993 13.3678 8.95 13.5502C8.95 13.5502 8.95 13.5502 8.95 13.5502L8.95 20.4502C8.95 20.8219 9.14635 21.1653 9.46563 21.3533L15.4653 24.9031C15.4653 24.9031 15.4653 24.9031 15.4654 24.9032C15.6269 25.0001 15.8117 25.0513 16 25.0513C16.1883 25.0513 16.3731 25.0001 16.5346 24.9032C16.5347 24.9031 16.5347 24.9031 16.5347 24.9031L22.5344 21.3533C22.6915 21.2606 22.8217 21.1286 22.9121 20.9702C23.0025 20.8118 23.0501 20.6326 23.05 20.4502C23.05 20.4502 23.05 20.4502 23.05 20.4502V13.5502C23.05 13.3677 23.0025 13.1884 22.9121 13.0298C22.8217 12.8713 22.6915 12.7391 22.5345 12.6462ZM20.95 14.1487V19.8517L16 22.7801L11.05 19.8517V14.1487L16 11.2203L20.95 14.1487Z" fill="#292929" stroke="#292929" stroke-width="0.1"/>
<path d="M12.2254 7.44904L12.2685 7.42361L12.2431 7.38057L11.2261 5.65857L11.2006 5.61551L11.1576 5.64095L4.46556 9.59595L4.46555 9.59596C4.30846 9.68885 4.17829 9.82109 4.08789 9.97962C3.99748 10.1382 3.94996 10.3175 3.95 10.5V20.1488C3.37114 20.3605 2.86981 20.7429 2.51259 21.2458C2.14854 21.7584 1.95202 22.3711 1.95 22.9998V23C1.95 24.6816 3.31839 26.05 5 26.05C6.68161 26.05 8.05 24.6816 8.05 23L8.05 22.9998C8.04798 22.3711 7.85147 21.7584 7.48741 21.2458C7.13019 20.7429 6.62886 20.3605 6.05 20.1488V11.0985L12.2254 7.44904ZM9.62144 25.011L9.57838 24.9855L9.55295 25.0286L8.53595 26.7506L8.51053 26.7936L8.55357 26.819L15.4654 30.903C15.6271 30.9992 15.8117 31.05 15.9998 31.0502C16.1879 31.0504 16.3726 30.9999 16.5345 30.904L25.469 25.6241C25.9199 25.8882 26.4396 26.05 27 26.05C28.6816 26.05 30.05 24.6816 30.05 23C30.05 21.3184 28.6816 19.95 27 19.95C25.3184 19.95 23.95 21.3184 23.95 23C23.95 23.3453 24.0176 23.672 24.1242 23.9799L16 28.7799L9.62144 25.011ZM25.95 18V18.05H26H28H28.05V18V10.5C28.05 10.3175 28.0025 10.1382 27.9121 9.97962C27.8217 9.82109 27.6915 9.68885 27.5345 9.59596L27.5344 9.59595L18.9976 4.55178C19.0302 4.37314 19.05 4.18944 19.05 4C19.05 2.31839 17.6816 0.95 16 0.95C14.3184 0.95 12.95 2.31839 12.95 4C12.95 5.68161 14.3184 7.05 16 7.05C16.7311 7.05 17.393 6.78155 17.9178 6.3529L25.95 11.0995V18ZM16 3.05H16C16.1882 3.04981 16.3722 3.10545 16.5288 3.20988C16.6853 3.3143 16.8073 3.46282 16.8794 3.63663C16.9515 3.81044 16.9704 4.00173 16.9338 4.1863C16.8971 4.37086 16.8065 4.5404 16.6735 4.67346C16.5404 4.80651 16.3709 4.89711 16.1863 4.93377C16.0017 4.97044 15.8104 4.95152 15.6366 4.87943C15.4628 4.80733 15.3143 4.68529 15.2099 4.52875C15.1055 4.37222 15.0498 4.18822 15.05 4.00005V4C15.05 3.47565 15.4766 3.05 16 3.05ZM5.64259 23.6573C5.47387 23.8337 5.24379 23.9385 5 23.9499C4.75621 23.9385 4.52613 23.8337 4.35741 23.6573C4.18818 23.4803 4.09373 23.2449 4.09373 23C4.09373 22.7551 4.18818 22.5197 4.35741 22.3427C4.52613 22.1663 4.75621 22.0615 5 22.0501C5.24379 22.0615 5.47387 22.1663 5.64259 22.3427C5.81182 22.5197 5.90627 22.7551 5.90627 23C5.90627 23.2449 5.81182 23.4803 5.64259 23.6573ZM27.6426 23.6573C27.4739 23.8337 27.2438 23.9385 27 23.9499C26.7562 23.9385 26.5261 23.8337 26.3574 23.6573C26.1882 23.4803 26.0937 23.2449 26.0937 23C26.0937 22.7551 26.1882 22.5197 26.3574 22.3427C26.5261 22.1663 26.7562 22.0615 27 22.0501C27.2438 22.0615 27.4739 22.1663 27.6426 22.3427C27.8118 22.5197 27.9063 22.7551 27.9063 23C27.9063 23.2449 27.8118 23.4803 27.6426 23.6573Z" fill="#292929" stroke="#292929" stroke-width="0.1"/>
</svg>
