<svg width="150" height="146" viewBox="0 0 150 146" fill="none" xmlns="http://www.w3.org/2000/svg">
<rect width="150" height="146" fill="#DBE1E7"/>
<path d="M74.6667 20C82.9768 20 90.9465 23.3012 96.8227 29.1773C102.699 35.0535 106 43.0232 106 51.3333C106 59.6435 102.699 67.6132 96.8227 73.4893C90.9465 79.3655 82.9768 82.6667 74.6667 82.6667C66.3566 82.6667 58.3868 79.3655 52.5107 73.4893C46.6345 67.6132 43.3333 59.6435 43.3333 51.3333C43.3333 43.0232 46.6345 35.0535 52.5107 29.1773C58.3868 23.3012 66.3566 20 74.6667 20ZM74.6667 98.3333C109.29 98.3333 137.333 112.355 137.333 129.667V145.333H12V129.667C12 112.355 40.0433 98.3333 74.6667 98.3333Z" fill="#5F5F5F"/>
</svg>
