<svg width="32" height="32" viewBox="0 0 32 32" fill="none" xmlns="http://www.w3.org/2000/svg">
<path d="M27.863 18.6157L27.863 18.6157L25.3539 16.0157L25.3539 16.0156C25.1694 15.8245 24.918 15.7161 24.6547 15.7161C24.3914 15.7161 24.14 15.8245 23.9554 16.0156L23.9554 16.0157L16.183 24.0696L16.1409 24.1132V24.1738V27.9992V28.1492H16.2909H19.9827H20.0464L20.0906 28.1034L27.863 20.0494L27.863 20.0494C28.0473 19.8584 28.15 19.6004 28.15 19.3326C28.15 19.0647 28.0473 18.8067 27.863 18.6157ZM19.6364 13.4159H19.7864V13.2659V11.5326V11.3826H19.6364H17.96C17.8897 11.1364 17.7939 10.8988 17.6743 10.6739L18.8662 9.43885L18.9667 9.33468L18.8662 9.23052L17.6836 8.00506L17.5756 7.89321L17.4677 8.00506L16.2811 9.23457C16.0663 9.11275 15.8395 9.01492 15.6046 8.94278V7.19922V7.04922H15.4546H13.7818H13.6318V7.19922V8.94278C13.3969 9.01492 13.1701 9.11275 12.9553 9.23457L11.7687 8.00506L11.6608 7.89321L11.5529 8.00506L10.3702 9.23052L10.2697 9.33468L10.3702 9.43885L11.5621 10.6739C11.4425 10.8988 11.3467 11.1364 11.2764 11.3826H9.59998H9.44998V11.5326V13.2659V13.4159H9.59998H11.2764C11.3467 13.662 11.4425 13.8996 11.5621 14.1245L10.3702 15.3596L10.2697 15.4638L10.3702 15.5679L11.5529 16.7934L11.6608 16.9052L11.7687 16.7934L12.9553 15.5639C13.1701 15.6857 13.3969 15.7835 13.6318 15.8557V17.5992V17.7492H13.7818H15.4546H15.6046V17.5992V15.8557C15.8395 15.7835 16.0663 15.6857 16.2811 15.5639L17.4677 16.7934L17.5756 16.9052L17.6836 16.7934L18.8662 15.5679L18.9667 15.4638L18.8662 15.3596L17.6743 14.1245C17.7939 13.8996 17.8897 13.662 17.96 13.4159H19.6364ZM23.2636 21.9326L19.2265 26.1159H18.1137V24.9519L22.1456 20.774L23.2636 21.9326ZM25.7727 19.3326L24.6547 20.4911L23.5366 19.3326L24.6547 18.174L25.7727 19.3326ZM14.6181 13.9826C14.3181 13.9825 14.0245 13.8904 13.7743 13.7171C13.5239 13.5438 13.328 13.2968 13.2121 13.0069C13.0962 12.7169 13.0658 12.3975 13.1249 12.0893C13.1841 11.7812 13.33 11.4988 13.5433 11.2777C13.7567 11.0567 14.0278 10.9068 14.3222 10.8461C14.6165 10.7854 14.9216 10.8165 15.1992 10.9357C15.4768 11.0548 15.715 11.257 15.883 11.5175C16.051 11.778 16.1409 12.0848 16.1409 12.3991C16.1405 12.8206 15.9787 13.2237 15.6926 13.5202C15.4066 13.8165 15.0201 13.9821 14.6181 13.9826Z" fill="#4B4B4B" stroke="#4B4B4B" stroke-width="0.3"/>
<path d="M12.64 28.15H12.79V28V26.2857V26.1357H12.64H7.50998V5.86429H21.29V14.2857V14.4357H21.44H23.2H23.35V14.2857V5.71429V5.71413C23.3495 5.21859 23.1471 4.74432 22.7886 4.39515C22.4303 4.04612 21.9452 3.85049 21.4401 3.85H21.44L7.35998 3.85L7.35983 3.85C6.85471 3.85049 6.36966 4.04612 6.01132 4.39515C5.65285 4.74432 5.45048 5.21859 5.44998 5.71413V5.71429L5.44998 26.2857L5.44998 26.2859C5.45048 26.7814 5.65285 27.2557 6.01132 27.6048C6.36966 27.9539 6.85471 28.1495 7.35983 28.15H7.35998H12.64Z" fill="#4B4B4B" stroke="#4B4B4B" stroke-width="0.3"/>
</svg>
